<svg xmlns="http://www.w3.org/2000/svg" width="1024.4" height="1365.4" xmlns:v="https://vecta.io/nano"><path d="M35 1363.5v-2l-4-1.4-4-1.4-9-8.8-9-8.8-3.8-8.3-3.8-8.3v-642-642l4.2-9 4.2-9 7.8-7.4L25 8l5.7-2.7 5.7-2.7V1.3 0H513h476.7v2 2l4 1.4 4 1.4 8.8 8.4 8.8 8.4 4.5 9.6 4.5 9.6v639 639l-1.7 5.3-1.7 5.3-3 5.4-3 5.4-9.5 9-9.5 9h-1.8-1.8l-2.4 2.7-2.4 2.7H511.5 35v-2z" fill="#cad1d8"/><path d="M43 1364v-1.3h-2.6H38l-5.8-2.5-5.8-2.5-6.7-6-6.7-6L9 1340l-3.8-5.4L3 1327l-2.5-7.5v-636-636l1.8-6.7L4 34l2.4-4.7 2.4-4.7 9-8.8 9-8.8L33 5l6.4-2.2H42h2.4V1.3 0H513h468.7v1 1l8 2.2 8 2.2 7.4 6.8 7.4 6.8 4 6 4 6 2 7 2 7-.3 639-.3 639-3.6 7.8-3.6 7.8-8.4 8.4-8.4 8.4-5.6 3-5.6 3h-2.7-2.7v1.3 1.3H513 43zm284-108.3l6-3 4-5.8 4-5.8.4-95.6.4-95.6-3-6-3-6-5.7-4-5.7-4-96.2-.4-96.2-.4-6.4 4-6.4 4-3.3 7-3.3 7v94 94l3.3 5.7 3.3 5.7 4 3 4 3 3.6 1 3.6 1 93.4.1 93.4.1 6-3zm289.3-.4l4.6-2.7 4-5.7 4-5.7.4-95.6.4-95.6-3-6-3-6-5.7-4-5.7-4h-97-97l-5.7 3.8-5.7 3.8-3.2 7-3.2 7v94 94l3.3 5.7 3.3 5.7 4 3 4 3 3.6 1 3.6 1 94.7-.2 94.7-.2 4.6-2.7zM327 967.7l6-3 4-5.8 4-5.8v-97-97l-4-5.7-4-5.7-6-3-6-3h-95-95l-6.3 4-6.3 4-3.3 7-3.3 7v94 94l3.8 6 3.8 6 2.2 1.8 2.2 1.8 5 1.8 5 1.8 93.4.1 93.4.1 6-3zm288 0l6-3 4-5.8 4-5.8.4-95.6.4-95.6-3-6-3-6-5.7-4-5.7-4-96.2-.4-96.2-.4-6.4 4-6.4 4-3.3 7-3.3 7v94 94l3.8 6 3.8 6 2.2 1.8 2.2 1.8 5 1.8 5 1.8 93.4.1 93.4.1 6-3zM326.4 680.2l5.4-2.4 3.6-4.2 3.6-4.2 1.4-5 1.4-5-.4-94.2-.4-94.2-4-5.7-4-5.7-6-3-6-3h-94.7H132l-5.8 3.4-5.8 3.4-3.6 5.6-3.6 5.6-.4 95.8-.4 95.8 3.2 5.5 3.2 5.5 2.7 2.5 2.7 2.5 5 1.8 5 1.8h93.3H321l5.4-2.4zm288.6-.5l6-3 4-5.8 4-5.8v-97-97l-4-5.7-4-5.7-6-3-6-3h-95-95l-6.3 4-6.3 4-3.3 7-3.3 7v94 94l3.8 6 3.8 6 2.2 1.8 2.2 1.8 5 1.8 5 1.8 93.4.1 93.4.1 6-3zm288 0l6-3 4-5.8 4-5.8v-97-97l-4-5.7-4-5.7-6-3-6-3h-95-95l-6.3 4-6.3 4-3.3 7-3.3 7v94 94l3.8 6 3.8 6 2.2 1.8 2.2 1.8 5 1.8 5 1.8 93.4.1 93.4.1 6-3z" fill="#48d8fb"/><path d="M43 1364v-1.3h-2.6H38l-5.8-2.5-5.8-2.5-6.7-6-6.7-6L9 1340l-3.8-5.4L3 1327l-2.5-7.5v-636-636l1.8-6.7L4 34l2.4-4.7 2.4-4.7 9-8.8 9-8.8L33 5l6.4-2.2H42h2.4V1.3 0H513h468.7v1 1l8 2.2 8 2.2 7.4 6.8 7.4 6.8 4 6 4 6 2 7 2 7-.3 639-.3 639-3.6 7.8-3.6 7.8-8.4 8.4-8.4 8.4-5.6 3-5.6 3h-2.7-2.7v1.3 1.3H513 43zm284-108.3l6-3 4-5.8 4-5.8.4-95.6.4-95.6-3-6-3-6-5.7-4-5.7-4-96.2-.4-96.2-.4-6.4 4-6.4 4-3.3 7-3.3 7v94 94l3.3 5.7 3.3 5.7 4 3 4 3 3.6 1 3.6 1 93.4.1 93.4.1 6-3zm289.3-.4l4.6-2.7 4-5.7 4-5.7.4-95.6.4-95.6-3-6-3-6-5.7-4-5.7-4h-97-97l-5.7 3.8-5.7 3.8-3.2 7-3.2 7v94 94l3.3 5.7 3.3 5.7 4 3 4 3 3.6 1 3.6 1 94.7-.2 94.7-.2 4.6-2.7zM327 967.7l6-3 4-5.8 4-5.8v-97-97l-4-5.7-4-5.7-6-3-6-3h-95-95l-6.3 4-6.3 4-3.3 7-3.3 7v94 94l3.8 6 3.8 6 2.2 1.8 2.2 1.8 5 1.8 5 1.8 93.4.1 93.4.1 6-3zm288 0l6-3 4-5.8 4-5.8.4-95.6.4-95.6-3-6-3-6-5.7-4-5.7-4-96.2-.4-96.2-.4-6.4 4-6.4 4-3.3 7-3.3 7v94 94l3.8 6 3.8 6 2.2 1.8 2.2 1.8 5 1.8 5 1.8 93.4.1 93.4.1 6-3zM326.4 680.2l5.4-2.4 3.6-4.2 3.6-4.2 1.4-5 1.4-5-.4-94.2-.4-94.2-4-5.7-4-5.7-6-3-6-3h-94.7H132l-5.8 3.4-5.8 3.4-3.6 5.6-3.6 5.6-.4 95.8-.4 95.8 3.2 5.5 3.2 5.5 2.7 2.5 2.7 2.5 5 1.8 5 1.8h93.3H321l5.4-2.4zm288.6-.5l6-3 4-5.8 4-5.8v-97-97l-4-5.7-4-5.7-6-3-6-3h-95-95l-6.3 4-6.3 4-3.3 7-3.3 7v94 94l3.8 6 3.8 6 2.2 1.8 2.2 1.8 5 1.8 5 1.8 93.4.1 93.4.1 6-3zm288 0l6-3 4-5.8 4-5.8v-97-97l-4-5.7-4-5.7-6-3-6-3h-95-95l-6.3 4-6.3 4-3.3 7-3.3 7v94 94l3.8 6 3.8 6 2.2 1.8 2.2 1.8 5 1.8 5 1.8 93.4.1 93.4.1 6-3zm-10.8-341.3l5.7-3 4.2-5.8 4.2-5.8.4-95.5.4-95.5-3-6-3-6-5-4-5-4-380-.3-380-.3-5 3.3-5 3.3-3.8 5-3.8 5-.4 94.8-.4 94.8.8 4.5.8 4.5 6.4 6.4 6.4 6.4 3.2.6 3.2.6 376.8.2 376.8.2z" fill="#848b93"/><path d="M44.4 1363.3l-1.7-2h-4-4l-4.7-2-4.7-2-8.4-8.4-8.4-8.4-2.4-4.7-2.4-4.7-1.8-6.7-1.8-6.7.1-358.3.1-358.3h1 1l-.5-2.8-.5-2.8 1.7 1.4 1.7 1.4L7 597l1.8-1.6-.8 1.4-.8 1.4h2 2l-.6-1-.6-1 2-1.6 2-1.6-.6-1-.6-1h3.2H19l-.5.8-.5.8h2 2l-.3-1.4-.3-1.4 2 .4 2 .4-1.5-2-1.5-2 1-1 1-1 2 1.5 2 1.5-.4-2-.4-2 2 .4 2 .4-1.5-2-1.5-2 1-1 1-1 2 1.7 2 1.7-1-1.7-1-1.7H33h2.2l-.7 1-.7 1h2 2l-.3-1.4-.3-1.4 1.6.3 1.6.3-.5-2.4-.5-2.4h3 3l-.5.8-.5.8h2 2l-.3-1.4-.3-1.4 1.6.3 1.6.3-.5-2.4-.5-2.4h3 3l-.5.8-.5.8h2 2l-.3-1.4-.3-1.4 2 .4 2 .4-1.5-2-1.5-2 1-1 1-1 2 1.5 2 1.5-.4-2-.4-2 2 .4 2 .4-1.7-2-1.7-2h.5l.5-.1 3.6-.3 3.6-.3-.6 1-.6 1h2 2l-.6-1-.6-1 2-1.6 2-1.6-.6-1-.6-1 3 .2h3l1.7 1 1.7 1-.4-1.8-.4-1.8 2 .4 2 .4-1.5-2-1.5-2 1-1 1-1 2 1.7 2 1.7-1-1.7-1-1.7h2.2H94l-.7 1-.7 1h1.7 1.7l.2-2 .2-2 .5-2.6.5-2.6 1.6-.5 1.6-.5v1.5 1.5l-1-.7-1-.7v2 2l1.8-1.5 1.8-1.5V538v-4.4l1.4-1 1.4-1-1.7-2-1.7-2 1.7 1 1.7 1v-2-2h-2-2v4.3 4.3l-2 1.6-2 1.6.3-1.7.3-1.7 1.2-2 1.2-2-1.4 1-1.4 1-.5-5.4-.5-5.4 1.3-.8 1.3-.8-1 1.4-1 1.4 1.2.8 1.2.8-.4-2.3-.4-2.3-.3-.3-.3-.3-.2-2.3-.2-2.3-1-1.6-1-1.6 1.2-.8 1.2-.8-.4-2.3-.4-2.3L98 503l1.2-1.6 2.4.5 2.4.5.1-6.6.1-6.6 2.2-3.3 2.2-3.3 1.3-5.7 1.3-5.7.6-3.3.6-3.3 2.2-2.5 2.2-2.5 4-2.7 4-2.7-4.8 4.5-4.8 4.5-2 5.3-2 5.3v95.3 95.3l4 6 4 6 6 3.3 6 3.3 92.4.4 92.4.4 5-1.4 5-1.4 4.5-3 4.5-3 3.3-6 3.3-6V568v-95.3l-3.3-6-3.3-6-5.8-4-5.8-4-97.6-.7-97.6-.7 2-1 2-1 14-1 14-1 18-.6 18-.6 1-1.4 1-1.4h39.8 39.8l2.3-2.7 2.3-2.7v-.2-.2h-2-2l.8 1.3.8 1.3-1.4-1-1.4-1-.7-2.8-.7-2.8 1.7 1.4 1.7 1.4v-1.7-1.7h-3-3l.5 2.4.5 2.4-1.2.7-1.2.7-1-1.6-1-1.6 2 1 2 1-1-1-1-1-1.7-.3-1.7-.3v1.8 1.8l1-.7 1-.7v1.4 1.4h-22.7-22.7l1-1.7 1-1.7-2 1.6-2 1.6-1.8-1.6-1.8-1.6 1 1.7 1 1.7h-6-6l-1.6-2-1.6-2 1.6-1 1.6-1-1 1.4-1 1.4 1 .7 1 .7V434v-4.5l-1 .7-1 .7 1 1.4 1 1.4-1.5-1-1.5-1 .5-2.8.5-2.8-1.8 1.5-1.8 1.5-1.5-1.8-1.5-1.8 1-1.2 1-1.2-2 1.4-2 1.4-1.3-.1H197l-1.7-1-1.7-1 .7-1 .7-1-4 .3-4 .3-1-1.4-1-1.4 1.4 1 1.4 1 .7-1 .7-1h-3.2-3.2l.2 1.3.2 1.3h-4-4l.4-1.8.4-1.8-2 1.6-2 1.6-.7-1-.7-1-12.2.1-12.2.1-1.4-1.7-1.4-1.7-2.2 1.6-2.2 1.6 1-1.2 1-1.2-2.2-2.4-2.2-2.4h.8.8l-2-3.6-2-3.6.5-1 .5-1h-1.8-1.8l-7.4-3.6-7.4-3.6-1-1.6-1-1.6 2.6 2 2.6 2-3.2-3.6-3.2-3.6-1 .7-1 .7v-2-2l-3-1.2-3-1.2 1.3-.1h1.3l-4.5-4.7-4.5-4.7h1 1l-2.4-2.7-2.4-2.7h1 1l-1.7-2-1.7-2h1 1l-1.4-1.7-1.4-1.7-.1-1v-1-.7l-.2-.7-.2-2.3-.2-2.3-1-1.7-1-1.7h1 1l-1.4-1.7-1.4-1.7-1-6.7-1-6.7.3-10 .3-10 .2-17.5.2-17.5L92 277l1.5-1.8.2-15.6.2-15.6.5-2.8.5-2.8.8-21 .8-21 .8-4.7.8-4.7.3-1 .3-1 .3-.7.3-.7.2-1.2.2-1.2 1-1 1-1V175v-4.4l1.6.3 1.6.3V170l.1-1.3 1.2-4.7 1.2-4.7 1 5.3 1 5.3.3-7.3.3-7.3 1-12.7 1-12.7.2 96.4.2 96.4 2 3.6 2 3.6 4.4 4.3 4.4 4.3 3.8 1.4 3.8 1.4h377 377l5.7-3 5.7-3 4.2-5.8 4.2-5.8.4-96.2.4-96.2-1.5-3.7-1.5-3.7-6.6-6-6.6-6H783.2 675.7l-242-.8-242-.8-.6-.5-.6-.5H380h189.6v-1.7-1.7l1.3 2 1.3 2v-2-2l1.3 2 1.3 2v-2-2l1.3 2 1.3 2v-2-2l1.3 2 1.3 2v-2-2l1.3 2 1.3 2v-2-2l1.3 2 1.3 2v-2-2l1.2 1.8 1.2 1.8.6-1.7.6-1.7 33.5-.3 33.5-.3 12.8-1 12.8-1-.7-1.2-.7-1.2h1.7 1.7l-2.6-2-2.6-2 3.7-.2 3.7-.2 2.3-.2 2.3-.2 1.3-.8 1.3-.8h33.3 33.3l13.7-.3 13.7-.3v-1-1l3.7-1 3.7-1 1-1.5 1-1.5V89v1.7h2 2v-1.4-1.4l1.2.8 1.2.8.8-1.3.8-1.3-1.6-1-1.6-1 1 2 1 2-2-1.5-2-1.5-3.6.2-3.6.2.5-1 .5-1 5 .2 5 .2 2-1.4 2-1.4-1.2 2-1.2 2 2.6-2 2.6-2 2.4-1 2.4-1-.6 1-.6 1h9l9-.1 1.5 1.2 1.5 1.2.8-1.2.8-1.2 4 .3 4 .3-.6-1-.6-1 2-1.6 2-1.6v1 1l1.7-1.3 1.7-1.3 2.3.4 2.3.4.8-1.3.8-1.3 1.8 1.5 1.8 1.5 1-1.4 1-1.4-1 .4-1 .4-.3-1.3-.3-1.3 4 .1 4 .1-1.4-1.4-1.4-1.4H861l-3.3-.2.8 1.3.8 1.3-1.7-1-1.7-1 1 1.5 1 1.5-2.7-.5-2.7-.5 1 1.5 1 1.5-1.4-1-1.4-1-1 1.4-1 1.4-1-.7-1-.7-.8 1.3-.8 1.3-2.7-.5-2.7-.5.7 1.2.7 1.2-2.7-.5-2.7-.5.7 1 .7 1-4-.3-4-.3.5 1 .5 1h-7-7l.5-.8.5-.8 5 .2 5 .2 2.3-2 2.3-2v1 1l2.2-1.8 2.2-1.8h5 5l2.2-1.8 2.2-1.8v1 1l2.7-2.4 2.7-2.4v1 1l1.7-1.2 1.7-1.2 3 .1h3l-.3 1-.3 1 2.3 2.6 2.3 2.6-.7.7-.7.7h2 2L871 74l-1.3-1.6 1-1 1-1 1.8 1.5 1.8 1.5-.6 1-.6 1h2 2l-1.4-1.7-1.4-1.7 1.3-.8 1.3-.8 1 1.4 1 1.4L881 72l1.8-1.5-.4 2.4-.4 2.4 1.3 1.7 1.3 1.7 1-.7 1-.7.8 1.2.8 1.2-2.3-.4-2.3-.4v-.2-.2l-2-.4-2-.4v1.5 1.5h7 7l-.6-1-.6-1h2.2 2.2l-.7 1-.7 1h2 2l-.7-1-.7-1h2.2 2.2l-.7 1-.7 1h3.2 3.2l-.6-1-.6-1 1.8-1.5 1.8-1.5 1 1 1 1 2 .3 2 .3-1.4-1.7-1.4-1.7 1-1 1-1 2 1.5 2 1.5-.4-2-.4-2 2 .4 2 .4-1.5-2-1.5-2 1-1 1-1 2 1.5 2 1.5-.4-2-.4-2 2 .4 2 .4-1.5-2-1.5-2 1-1 1-1 2 1.7 2 1.7-1-1.7-1-1.7h2.2 2.2l-.7 1-.7 1h2 2l-.3-1.4-.3-1.4 1.6.3 1.6.3-.5-2.4-.5-2.4h3 3l-.5.8-.5.8h2 2L944 58l-.3-1.4 1.6.3 1.6.3-.5-2.4-.5-2.4h3 3l-.5.8-.5.8h2 2l-.3-1.4-.3-1.4 2 .4 2 .4-1.5-2-1.5-2 1-1 1-1 2 1.5 2 1.5-.4-2-.4-2 2 .4 2 .4-1.5-2-1.5-2 1-1 1-1 2 1.7 2 1.7-1-1.7-1-1.7h2.2 2.2l-.7 1-.7 1h2 2l-.3-1.4-.3-1.4 1.6.3 1.6.3-.5-2.4-.5-2.4h3 3l-.5.8-.5.8h2 2l-.3-1.4-.3-1.4 1.6.3 1.6.3-.5-2.4-.5-2.4h3 3l-.5.8-.5.8h2 2l-.3-1.4-.3-1.4 1.6.3 1.6.3-.5-2.8-.5-2.8 2 1.7 2 1.7-.4-2-.4-2 1.6.3 1.6.3-.5-2.4-.5-2.4h3 3l-.5.8-.5.8h2 2l-.6-1-.6-1 1.4-1 1.4-1 3.3 3.8 3.3 3.8v1 1l-1.3-.8-1.3-.8.8 2.2.8 2.2 1-1.6 1-1.6 1.7 3.2 1.7 3.2 1.7 8 1.7 8v634 634l-1.8 6.7-1.8 6.7-2.4 4.7-2.4 4.7-8.2 8.2-8.2 8.2-5 2-5 2-4.6 1-4.6 1v1.2 1.2H513.2 46zM328 1256l5.6-2.5 3.4-5.2 3.4-5.2 1.4-7.6 1.4-7.6-.4-89.7-.4-89.7-3.7-6.3-3.7-6.3-6.3-3.7-6.3-3.7H227h-95.4l-6.6 4-6.6 4-3.3 6.7-3.3 6.7v94.8 94.8l4 6.6 4 6.6 6 3 6 3H227h95.4l5.6-2.5zm290.7-1.7l5.4-3.6 3.2-6.4 3.2-6.4v-94-94l-3.4-6.6-3.4-6.6-6.5-4-6.5-4H515h-95.5l-6.5 4-6.5 4-3.4 6.6-3.4 6.6v94.8 94.8l4 6.6 4 6.6 6 3 6 3 96.8-.4 96.8-.4zM328.4 968l5.3-2.7 3.3-5 3.3-5 1.4-6.7 1.4-6.7-.4-90.7-.4-90.7-4-6.6-4-6.6-6-3.3-6-3.3H226 130l-5.8 4-5.8 4-3.3 6-3.3 6V856v95.3l2.5 4.7 2.5 4.7 2.2 2.5 2.2 2.5 4 2.2 4 2.2 12 .7 12 .7 85-.3 85-.3zm287.5.1l5.6-2.5 3.4-5 3.4-5 1.4-6.8 1.4-6.8-.4-90.6-.4-90.6-3.7-6.3-3.7-6.3-6.3-3.7-6.3-3.7h-96-96L412 745l-6.3 4.4-3 5.6-3 5.6V856v95.4l4 6.5 4 6.5 5.3 3 5.3 3h96 96l5.6-2.5zm.4-288l6-3.3 4-6.6 4-6.6V568v-95.4L628 468l-2.5-4.7-2.2-2.5-2.2-2.5-5.3-3-5.3-3H514 418l-5.8 4-5.8 4-3.3 6-3.3 6V568v95.3l2.5 4.7 2.5 4.7 2.2 2.5 2.2 2.5 4 2 4 2 5.3 1 5.3 1 91.3-.1 91.3-.1zm286.4.6l5.8-2.2 3.8-5.3 3.8-5.3 1.5-7 1.5-7-.4-90.6-.4-90.6-4-6.6-4-6.6-6-3.3-6-3.3h-96-96l-6 4-6 4-3.3 6-3.3 6V568v95.3l2.5 4.7 2.5 4.7 2.2 2.5 2.2 2.5 4 2.2 4 2.2 45.3.7 45.3.7 50.6-.3 50.6-.3zm-897-79.8v-.6l-1.5-1-1.5-1 1 1.5 1 1.5H5h.6zm10.2-7V592l-1.8 1.5-1.8 1.5v.3.3H14 16zm3 1.5v-.7h-.7-.7v.7.7h.7.7zm5.3-8v-.7h-.7-.7v.7.7h.7.7zm8-2.7v-.7h-.7-.7v.7.7h.7.7zm2.7 0v-.7h-.7-.7v.7.7h.7.7zm-5.3-2.7v-.7H29h-.7v.7.7h.7.7zm13.3-2.7v-.7h-.7-.7v.7.7h.7.7zm2.7 0v-.7H45h-.7v.7.7h.7.7zm-2.7-2.7v-.7h-.7-.7v.7.7h.7.7zm10.7-2.7v-.7H53h-.7v.7.7h.7.7zm2.7 0v-.7h-.7-.7v.7.7h.7.7zm-2.7-2.7v-.7H53h-.7v.7.7h.7.7zm8-5.3v-.7H61h-.7v.7.7h.7.7zm8-2.7v-.7H69h-.7v.7.7h.7.7zm2.7 0v-.7h-.7-.7v.7.7h.7.7zm-5.3-2.7v-.7h-.7-.7v.7.7h.7.7zm2.7 0v-.7H69h-.7v.7.7h.7.7zm13-4V555l-1.8.3-1.8.3-1.3 1.3-1.3 1.3h3 3zm-3.6.1v-.7h.7.7v.7.7h-.7-.7zm9.3-6.7v-.7h-.7-.7v.7.7h.7.7zM99 534v-.7h-.7-.7v.7.7h.7.7zm0-5.3v-.7h-.7-.7v.7.7h.7.7zm0-2.7v-.7h-.7-.7v.7.7h.7.7zm3.3-3.2l.8-1.2-1-.7-1-.7v2 2h.4.4zm-.4-7.3l-.4-2.3 1.7-2.2 1.7-2.2-1.6 1-1.6 1-.8-1.4-.8-1.4 2-.8 2-.8V505v-1.4l-1 1-1 1-1.8-1.5-1.8-1.5v.8l-.2.8-.2 2.3-.2 2.3-1 1.6-1 1.6 1.6 1 1.6 1-1-1.7-1-1.7 1.6 1 1.6 1-1 1.6-1 1.6-.2 1.5-.2 1.5 2.2-.3 2.2-.3zm-3-.1v-.7h.7.7v.7.7h-.7-.7zm0-5.3v-.7h.7.7v.7.7h-.7-.7zm0-2.7v-.7h.7.7v.7.7h-.7-.7zm0-2.7v-.7h.7.7v.7.7h-.7-.7zM200.4 446v-.7h-.7-.7v.7.7h.7.7zm2.7 0v-.7h-.7-.7v.7.7h.7.7zm2.7 0v-.7h-.7-.7v.7.7h.7.7zm2.7 0v-.7h-.7-.7v.7.7h.7.7zm13.3 0v-.7h-.7-.7v.7.7h.7.7zm5.3 0v-.7h-.7-.7v.7.7h.7.7zm2.7 0v-.7h-.7-.7v.7.7h.7.7zm29.3 0v-.7h-.7-.7v.7.7h.7.7zm2.7 0v-.7h-.7-.7v.7.7h.7.7zm2.7 0v-.7h-.7-.7v.7.7h.7.7zm2.7 0v-.7h-.7-.7v.7.7h.7.7zm2.7 0v-.7h-.7-.7v.7.7h.7.7zm2.7 0v-.7h-.7-.7v.7.7h.7.7zm2.7 0v-.7h-.7-.7v.7.7h.7.7zm2.7 0v-.7h-.7-.7v.7.7h.7.7zm2.7 0v-.7h-.7-.7v.7.7h.7.7zm2.7 0v-.7h-.7-.7v.7.7h.7.7zm2.7 0v-.7h-.7-.7v.7.7h.7.7zm-72-8v-.7h-.7-.7v.7.7h.7.7zm2.7 0v-.7h-.7-.7v.7.7h.7.7zm2.7 0v-.7h-.7-.7v.7.7h.7.7zm5.3 0v-.7h-.7-.7v.7.7h.7.7zm5.3 0v-.7h-.7-.7v.7.7h.7.7zm2.7 0v-.7h-.7-.7v.7.7h.7.7zm2.7 0v-.7h-.7-.7v.7.7h.7.7zm2.7 0v-.7h-.7-.7v.7.7h.7.7zm2.7 0v-.7h-.7-.7v.7.7h.7.7zm2.7 0v-.7h-.7-.7v.7.7h.7.7zm2.7 0v-.7h-.7-.7v.7.7h.7.7zm2.7 0v-.7h-.7-.7v.7.7h.7.7zm2.7 0v-.7h-.7-.7v.7.7h.7.7zm2.7 0v-.7h-.7-.7v.7.7h.7.7zm2.7 0v-.7h-.7-.7v.7.7h.7.7zm5-1.3V435h-1.6-1.6v1.6 1.6h1.6 1.6zm3 1.3v-.7h-.7-.7v.7.7h.7.7zm2.7 0v-.7h-.7-.7v.7.7h.7.7zm-53.3-2.7v-.7h-.7-.7v.7.7h.7.7zm2.7 0v-.7h-.7-.7v.7.7h.7.7zm2.7 0v-.7h-.7-.7v.7.7h.7.7zm2.7 0v-.7h-.7-.7v.7.7h.7.7zm2.7 0v-.7h-.7-.7v.7.7h.7.7zm2.7 0v-.7h-.7-.7v.7.7h.7.7zm2.7 0v-.7h-.7-.7v.7.7h.7.7zm2.7 0v-.7h-.7-.7v.7.7h.7.7zm2.7 0v-.7h-.7-.7v.7.7h.7.7zm2.7 0v-.7h-.7-.7v.7.7h.7.7zm2.7 0v-.7h-.7-.7v.7.7h.7.7zm2.7 0v-.7h-.7-.7v.7.7h.7.7zm2.7 0v-.7h-.7-.7v.7.7h.7.7zm2.7 0v-.7h-.7-.7v.7.7h.7.7zm2.7 0v-.7h-.7-.7v.7.7h.7.7zm2.7 0v-.7h-.7-.7v.7.7h.7.7zm2.7 0v-.7h-.7-.7v.7.7h.7.7zm8 0v-.7h-.7-.7v.7.7h.7.7zm2.7 0v-.7h-.7-.7v.7.7h.7.7zm-53.3-2.7v-.7h-.7-.7v.7.7h.7.7zm2.7 0v-.7h-.7-.7v.7.7h.7.7zm2.7 0v-.7h-.7-.7v.7.7h.7.7zm2.7 0v-.7h-.7-.7v.7.7h.7.7zm2.7 0v-.7h-.7-.7v.7.7h.7.7zm2.7 0v-.7h-.7-.7v.7.7h.7.7zm2.7 0v-.7h-.7-.7v.7.7h.7.7zm2.7 0v-.7h-.7-.7v.7.7h.7.7zm2.7 0v-.7h-.7-.7v.7.7h.7.7zm2.7 0v-.7h-.7-.7v.7.7h.7.7zm2.7 0v-.7h-.7-.7v.7.7h.7.7zm2.7 0v-.7h-.7-.7v.7.7h.7.7zm2.7 0v-.7h-.7-.7v.7.7h.7.7zm2.7 0v-.7h-.7-.7v.7.7h.7.7zm2.7 0v-.7h-.7-.7v.7.7h.7.7zm2.7 0v-.7h-.7-.7v.7.7h.7.7zm2.7 0v-.7h-.7-.7v.7.7h.7.7zm2.7 0v-.7h-.7-.7v.7.7h.7.7zm2.7 0v-.7h-.7-.7v.7.7h.7.7zm2.7 0v-.7h-.7-.7v.7.7h.7.7zm2.7 0v-.7h-.7-.7v.7.7h.7.7zm2.7 0v-.7h-.7-.7v.7.7h.7.7zm2.7 0v-.7h-.7-.7v.7.7h.7.7zm-58.7-2.7v-.7h-.7-.7v.7.7h.7.7zm5-1.3V427H217h-1.6v1.6 1.6h1.6 1.6zm5.8 1.3v-.7h-.7-.7v.7.7h.7.7zm-18.7-2.7v-.7h-.7-.7v.7.7h.7.7zm5.3 0v-.7h-.7-.7v.7.7h.7.7zm2.7 0v-.7h-.7-.7v.7.7h.7.7zm-16-2.7v-.7h-.7-.7v.7.7h.7.7zm2.7 0v-.7h-.7-.7v.7.7h.7.7zm5.3 0v-.7h-.7-.7v.7.7h.7.7zm2.7 0v-.7h-.7-.7v.7.7h.7.7zm2.7 0v-.7h-.7-.7v.7.7h.7.7zm2.7 0v-.7h-.7-.7v.7.7h.7.7zm2.7 0v-.7h-.7-.7v.7.7h.7.7zm-18.7-2.7v-.7h-.7-.7v.7.7h.7.7zm2.7 0v-.7h-.7-.7v.7.7h.7.7zm2.7 0v-.7h-.7-.7v.7.7h.7.7zm2.7 0v-.7h-.7-.7v.7.7h.7.7zm2.7 0v-.7h-.7-.7v.7.7h.7.7zm2.7 0v-.7h-.7-.7v.7.7h.7.7zm2.7 0v-.7h-.7-.7v.7.7h.7.7zm2.7 0v-.7h-.7-.7v.7.7h.7.7zm-43-3.8v-1.8l-2.8.1-2.8.1.2-1.4.2-1.4H156h-12.2l.3-1.5.3-1.5-2.3.4-2.3.4-.5.1h-.5l1.6 2 1.6 2 1-.6 1-.6 1.4 1.7 1.4 1.7H159h12.2l.7 1 .7 1h.4.4v-1.8zm-27-2.2l-.5-.7 9.8.1 9.8.1.7.7.7.7h-10-10l-.5-.7zm-5.4-3l-1-1.5 1.5 1 1.5 1v.6.6h-.6-.6zm38 6.2v-.7h-.7-.7v.7.7h.7.7zm2.7 0v-.7h-.7-.7v.7.7h.7.7zm10.7 0v-.7h-.7-.7v.7.7h.7.7zm2.7 0v-.7h-.7-.7v.7.7h.7.7zm2.7 0v-.7h-.7-.7v.7.7h.7.7zm2.7 0v-.7h-.7-.7v.7.7h.7.7zm2.7 0v-.7h-.7-.7v.7.7h.7.7zm2.7 0v-.7h-.7-.7v.7.7h.7.7zm2.7 0v-.7h-.7-.7v.7.7h.7.7zm2.7 0v-.7h-.7-.7v.7.7h.7.7zm2.7 0v-.7h-.7-.7v.7.7h.7.7zm2.7 0v-.7h-.7-.7v.7.7h.7.7zm-40-2.7v-.7h-.7-.7v.7.7h.7.7zM171 414v-.7h-.7-.7v.7.7h.7.7zm2.7 0v-.7h-.7-.7v.7.7h.7.7zm-34.7-5.3v-.7h-.7-.7v.7.7h.7.7zm0-2.7v-.7h-.7-.7v.7.7h.7.7zm-8-5.3v-.7h-.7-.7v.7.7h.7.7zm-5.3-2.7v-.7h-.7-.7v.7.7h.7.7zM591 108.7v-.7h-.7-.7v.7.7h.7.7zm2.7 0v-.7h-.7-.7v.7.7h.7.7zm2.7 0v-.7h-.7-.7v.7.7h.7.7zm2.7 0v-.7h-.7-.7v.7.7h.7.7zm2.7 0v-.7h-.7-.7v.7.7h.7.7zm2.7 0v-.7h-.7-.7v.7.7h.7.7zm2.7 0v-.7h-.7-.7v.7.7h.7.7zm19-.3l-5.6-.5-6.4.5-6.4.5h12 12l-5.6-.5zm10.3.3v-.7h-.7-.7v.7.7h.7.7zm49-9.6l-1-1v1.8 1.8l1-1 1-1zm5.8.2v-.7h-.7-.7v.7.7h.7.7zm184-16v-.7h-.7-.7v.7.7h.7.7zm16 0v-.7h-.7-.7v.7.7h.7.7zm-19-4v-1.6h-1.6-1.6v1.6V81h1.6 1.6zm5.3 0v-1.6h-1.6-1.6v1.6V81h1.6 1.6zm-45-1.3v-.7h-.7-.7v.7.7h.7.7zm5.6-1.3h1l1-1 1-1-2 .3-2 .3-1.7 1.8L833 79l2-1.2 2-1.2h1zm29 1.3v-.7h-.7-.7v.7.7h.7.7zm42.7 0v-.7h-.7-.7v.7.7h.7.7zM843 75.3v-.7h-.7-.7v.7.7h.7.7zm2.7 0v-.7h-.7-.7v.7.7h.7.7zm18.7 0v-.7h-.7-.7v.7.7h.7.7zm2.7 0v-.7h-.7-.7v.7.7h.7.7zm14-.7l.8-1.3h-.7-.7l-.8 1.3-.8 1.3h.7.7zm34 .7v-.7h-.7-.7v.7.7h.7.7zm-64.7-2l.8-1.3h-.7-.7l-.8 1.3-.8 1.3h.7.7zm22-.7V72h-.7-.7v.7.7h.7.7zm5.3 0V72h-.7-.7v.7.7h.7.7zm-22-2l.8-1.3h-.7-.7l-.8 1.3-.8 1.3h.7.7zm64.7-.7v-.7h-.7-.7v.7.7h.7.7zm-60-1.3V68h-.7-.7v.7.7h.7.7zm2.7 0V68h-.7-.7v.7.7h.7.7zm2.7 0V68h-.7-.7v.7.7h.7.7zm62.7-1.3v-.7h-.7-.7v.7.7h.7.7zm2.7 0v-.7h-.7-.7v.7.7h.7.7zm-5.3-2.7V64h-.7-.7v.7.7h.7.7zM939 62v-.7h-.7-.7v.7.7h.7.7zm2.7 0v-.7h-.7-.7v.7.7h.7.7zm-2.7-2.7v-.7h-.7-.7v.7.7h.7.7zm10.7-2.7V56h-.7-.7v.7.7h.7.7zm2.7 0V56h-.7-.7v.7.7h.7.7zm-2.7-2.7v-.7h-.7-.7v.7.7h.7.7zm8-5.3V48h-.7-.7v.7.7h.7.7zm8-2.7v-.7h-.7-.7v.7.7h.7.7zm2.7 0v-.7h-.7-.7v.7.7h.7.7zm-5.3-2.7v-.7h-.7-.7v.7.7h.7.7zm13.3-2.7V40h-.7-.7v.7.7h.7.7zm2.7 0V40h-.7-.7v.7.7h.7.7zm-2.7-2.7v-.7h-.7-.7v.7.7h.7.7zm10.7-2.7v-.7h-.7-.7v.7.7h.7.7zm2.7 0v-.7h-.7-.7v.7.7h.7.7zM1019 34v-.7h-.7-.7v.7.7h.7.7zm-32-1.3V32h-.7-.7v.7.7h.7.7zm16-8V24h-.7-.7v.7.7h.7.7zm2.7 0V24h-.7-.7v.7.7h.7.7zM1003 22v-.7h-.7-.7v.7.7h.7.7zM1.7 591.3v-.7h.7.7v.7.7h-.7-.7zm0-2.7v-.7h.7.7v.7.7h-.7-.7zm.4-4v-2l1 .7 1 .7-.8 1.2-.8 1.2h-.4H2zm0-5.3v-2l1 .7 1 .7-.8 1.2-.8 1.2h-.4H2zm0-5.6V572l1.8 1.5 1.8 1.5v.3.3H4 2zm34.2 1.5v-.7h.7.7v.7.7H37h-.7zM2 568.7v-2l1 .7 1 .7-.8 1.2-.8 1.2h-.4H2zm45 1.3v-.7h.7.7v.7.7h-.7-.7zm-45-6.6v-2l1 .7 1 .7-.8 1.2-.8 1.2h-.4H2zm5 1.3v-.7h.7.7v.7.7h-.7H7zm5.3 0v-.7h.7.7v.7.7H13h-.7zm-10.7-5.3v-.7h.7.7v.7.7h-.7-.7zm10.7 0v-.7h.7.7v.7.7H13h-.7zm5.3 0v-.7h.7.7v.7.7h-.7-.7zm10.7-5.3v-.7h.7.7v.7.7H29h-.7zm5.3-5.3v-.7h.7.7v.7.7h-.7-.7zm5.3 0v-.7h.7.7v.7.7h-.7-.7zm5.3-5.3v-.7h.7.7v.7.7H45h-.7zm5.3 0v-.7h.7.7v.7.7h-.7-.7zm16-10.7v-.7h.7.7v.7.7h-.7-.7zm36-1.3v-.7h.7.7v.7.7h-.7-.7zm-30.7-4v-.7h.7.7v.7.7h-.7-.7zm5.3 0v-.7h.7.7v.7.7H77h-.7zm5.3-5.3v-.7h.7.7v.7.7h-.7-.7zm44.7-68.7l.8-1.3h.7.7l-.8 1.3-.8 1.3h-.7-.7zm-14-326v-2l1.2-.7 1.2-.7-.7 2.7-.7 2.7h-.5-.5zm63-17.7l2.4-.6 1.6.7 1.6.7h-4-4l2.4-.6zm378.3-2.4v-.7h.7.7v.7.7h-.7-.7zm2.7 0v-.7h.7.7v.7.7h-.7-.7zm2.7 0v-.7h.7.7v.7.7h-.7-.7zm2.7 0v-.7h.7.7v.7.7h-.7-.7zm2.7 0v-.7h.7.7v.7.7h-.7-.7zm2.7 0v-.7h.7.7v.7.7h-.7-.7zm102.7-5.3v-.7h.7.7v.7.7h-.7-.7zm5.3 0v-.7h.7.7v.7.7h-.7-.7zm2.7 0v-.7h.7.7v.7.7h-.7-.7zm-12-4v-.7h.7.7v.7.7h-.7-.7zm2.7 0v-.7h.7.7v.7.7h-.7-.7zm2.7 0v-.7h.7.7v.7.7h-.7-.7zm5.3 0v-.7h.7.7v.7.7h-.7-.7zm121.3-9.3V88h.7.7v.7.7h-.7-.7zm-8-2.7v-.7h.7.7v.7.7h-.7-.7zm43.5-4.4l-.7-1h2 2l-.7 1-.7 1h-.5-.5zm5.3-1.8l.8-1.3.7.7.7.7 2-1.6 2-1.6-1.7 2-1.7 2-2 .3-2 .3zm43.2-.5v-.7h.7.7v.7.7h-.7-.7zm8 0v-.7h.7.7v.7.7h-.7-.7zm13.3 0v-.7h.7.7v.7.7h-.7-.7zm-56-2.7V76h.7.7v.7.7h-.7-.7zm4-1.3v-.7h.7.7v.7.7h-.7-.7zm3.3-.7l.8-1.3h.7.7l-.8 1.3-.8 1.3h-.7-.7zM887 74v-.7h.7.7v.7.7h-.7-.7zm6-.7l.8-1.3h.7.7l-.8 1.3-.8 1.3h-.7-.7zm-32.7-2v-.7h.7.7v.7.7h-.7-.7zm2.7 0v-.7h.7.7v.7.7h-.7-.7zm5.3-2.7V68h.7.7v.7.7h-.7-.7zm2.7 0V68h.7.7v.7.7h-.7-.7zm5.3-5.3v-.7h.7.7v.7.7h-.7-.7zm5.3 0v-.7h.7.7v.7.7h-.7-.7zM887 58v-.7h.7.7v.7.7h-.7-.7zm45.3 0v-.7h.7.7v.7.7h-.7-.7zm-40-5.3V52h.7.7v.7.7h-.7-.7zm5.3 0V52h.7.7v.7.7h-.7-.7zm45.3 0V52h.7.7v.7.7h-.7-.7zm-40-5.3v-.7h.7.7v.7.7h-.7-.7zm5.3 0v-.7h.7.7v.7.7h-.7-.7zm16-10.7V36h.7.7v.7.7h-.7-.7zm45.3 0V36h.7.7v.7.7h-.7-.7zm-40-5.3v-.7h.7.7v.7.7h-.7-.7zm5.3 0v-.7h.7.7v.7.7h-.7-.7zm45.3 0v-.7h.7.7v.7.7h-.7-.7zm-40-5.3v-.7h.7.7v.7.7h-.7-.7zm5.3 0v-.7h.7.7v.7.7h-.7-.7zm0-10.7v-.7h.7.7v.7.7h-.7-.7zm16 0v-.7h.7.7v.7.7h-.7-.7zM948.4 10v-.7h.7.7v.7.7h-.7-.7zm2.7 0v-.7h.7.7v.7.7h-.7-.7zm5.3 0v-.7h.7.7v.7.7h-.7-.7zm10.7 0v-.7h.7.7v.7.7h-.7-.7zm5.3 0v-.7h.7.7v.7.7h-.7-.7zm10.7 0v-.7h.7.7v.7.7h-.7-.7z" fill="#7a838c"/><path d="M45.2 1363.3l-.8-2H41h-3.6l-5.5-1.6-5.5-1.6-8.8-8.7-8.8-8.7-2.8-6-2.8-6-1.5-7.8-1.5-7.8.8-133.7.8-133.7.4-5.3.4-5.3 3 .2 3 .2-.3-.8-.3-.8 1.2-.2 1.2-.2.8-1.3.8-1.3 2-.4 2-.4 1.8-1.7 1.8-1.7 1.2.8 1.2.8v-2-2l2.3-1 2.3-1 .7-1 .7-1 3.5-.3 3.5-.3-.2-1.4-.2-1.4 3 .2 3 .2-.3-1.5-.3-1.5 3 .2 3 .2-.3-1-.3-1h1.2 1.2l.8-1.3.8-1.3 2-.4 2-.4 1.8-1.7 1.8-1.7 1.2.8 1.2.8v-2-2l2.3-1 2.3-1 .7-1 .7-1 3.5-.3 3.5-.3-.2-.7-.2-.7 1.3-.6 1.3-.6 1.8-1.8L78 992l1 .7 1 .7.4-1.2.4-1.2 2-.4 2-.4.7-1 .7-1 2-.4 2-.4 1.8-1.7L94 984l1.2.8 1.2.8v-2-2l2.3-1 2.3-1 4-4 4-4 .1-1 .1-1 .6-.6.6-.6 1.6 2 1.6 2 .2 2.6.2 2.6 2.7-.1 2.7-.1.8-2 .8-2-2.6-1.4-2.6-1.4.3-1.2.3-1.2-1.3-.8-1.3-.8-3.5-7.3-3.5-7.3v-84.7l.1-84.7 1.8-8 1.8-8 .1 92v92l2.7 5 2.7 5-.3 1-.3 1h1 1l3 3 3 3 5 2 5 2h93.2H320l6-2.6 6-2.6 2.8-3 2.8-3 2.5-4.7 2.5-4.7V855v-96.3l1.5 3 1.5 3 1 7.3 1 7.3.4 13.3.4 13.3 1 26.7 1 26.7.3 1 .3 1 .2 4.7v4.7l1.2-.8 1.2-.8 1 1.4 1 1.4 1-.6 1-.6.3-13 .3-13 .7-4 .7-4 .3-1.5.3-1.5 1.8-2 1.8-2h-1-1l2.4-2.6 2.4-2.6 1.2.7 1.2.7V824v-1.4h1.4 1.4l-.7 1-.7 1h2 2l-.6-1-.6-1 3.4-3.4 3.4-3.4 1.3.8 1.3.8-1 1.6-1 1.6 1.7-1.6 1.7-1.6 1.6-3 1.6-3 1.6.3 1.6.3v-3-3l2-2.6 2-2.6v-7-7l-1.3-3.5-1.3-3.5-.6-3.5-.6-3.5.8.8.8.8 3-3 3-3 .4-6.8.4-6.8 4-4 4-4-1.4 2-1.4 2-2.2 7.5-2.2 7.5.4 93 .4 93 3.5 5.3 3.5 5.3 2.5 2.2 2.5 2.2 6.4 2 6.4 2h90.3H605l4.8-1.3 4.8-1.3 4.5-3 4.5-3 3.3-6 3.3-6V856v-95.3l-3.3-6-3.3-6-4.7-3-4.7-3-2.3-2-2.3-2-.6 1-.6 1-95.8-.4-95.8-.4 2-1 2-1 14-1 14-1 40-.4 40-.4 2.7-1.5 2.7-1.5h16.6l16.6-.2V730v-1.6l-14-.1-14-.1-2-.1h-2l2-1.2 2-1.2 1 .7 1 .7-.4-1-.4-1 1.3-.4 1.3-.4 4-4 4-4 1 1 1 1h3.2l3.2.2-.6-1-.6-1-2.7.5-2.7.5.7-1 .7-1 4 .3 4 .3-.3-.8-.3-.8 1-.3 1-.3 2-2 2-2 1.2.8 1.2.8v-2-2l1.5-1 1.5-1 8 .2 8 .2-1-1.7-1-1.7 2.5 2 2.5 2-1-1.7-1-1.7h3.3 3.3l.8-1.4.8-1.4 1.6 1 1.6 1 1.6.2 1.6.2-.3-1.5-.3-1.5 3 .2 3 .2-1-1.5-1-1.5v-1.3-1.3l1.2-2 1.2-2-1.4 1-1.4 1-.7-1.2-.7-1.2-12.4-.3-12.4-.3-32.7-.6-32.7-.6-44.2-1-44.2-1-1-1-1-1h91.6 91.6l4.3-2.2 4.3-2.2 3.7-3.4 3.7-3.4v2.8 2.8l1.2.7 1.2.7-.8-3-.8-3 2 1 2 1-2.4-2-2.4-2 2.4-4.5 2.4-4.5.7-94.7.7-94.7 1 8.7 1 8.7.8 60 .8 60 .3 18 .3 18-1.2 6-1.2 6-1.2 1.3-1.2 1.3v3 3h1.7 1.7l-2.3 1.3-2.3 1.3.8 2 .8 2h1.3 1.3l-1-1.4-1-1.4 4.2.7 4.2.7-1.5-1.8-1.5-1.8 2.7.5 2.7.5 1.6-2 1.6-2 1.5 1 1.5 1-1-1-1-1 3-3 3-3 2 1.5 2 1.5-.2-1.2-.2-1.2.2-1.7.2-1.7h1.4 1.4l-.7 1-.7 1h2 2l-.6-1-.6-1 4-4.3 4-4.3v1.3 1.3h2 2l-.1-.8v-.8l.2-1.7.2-1.7h2.7 2.7v-4.5-4.5l2-1.5 2-1.5.3-15.6.3-15.6 1-58 1-58 1.4-4.7 1.4-4.7.1 92v92l2.8 5.3 2.8 5.3 3 3.2 3 3.2 5.3 2.5 5.3 2.5h94 94l6.6-3.6 6.6-3.6 3-4.5 3-4.5 1.4-5 1.4-5-.4-93-.4-93-2.5-3.7-2.5-3.7h1.4 1.4l1 1.4 1 1.4 2-1.7 2-1.7-1 4.2-1 4.2 1.4 1 1.4 1-.5 1-.5 1 1 6.3 1 6.3h-1.5-1.5l1.8 1 1.8 1-.2 1.2-.2 1.2.8 10.7.8 10.7.5 8.3.5 8.3 1.7 2 1.7 2-1.4-.4-1.4-.4-.1 1-.1 1v.8.8l2.2-1.8 2.2-1.8.7.7.7.7.3-4.7.3-4.7.6-9.3.6-9.3.8-4 .8-4 2-2 2-2-.8-.8-.8-.8 2.5.4 2.5.4.7-1 .7-1 2-.4 2-.4 1.8-1.7 1.8-1.7 1.2.8 1.2.8v-2-2l2.3-1 2.3-1 .7-1 .7-1 3.5-.3 3.5-.3-.2-.7-.2-.7 1.2-.2h1.2l.8-1.3.8-1.3 2-.4 2-.4 1.8-1.7 1.8-1.7 1 .7 1 .7.4-1.2.4-1.2 2-.4 2-.4 1.8-1.7 1.8-1.7 1.2.8 1.2.8v-2-2l2.3-1 2.3-1 1.7-1.7 1.7-1.7 2.6.5 2.6.5-.3-1-.3-1 1.2-.2 1.2-.2.8-1.3.8-1.3 2-.4 2-.4 1.8-1.7 1.8-1.7 1 .7 1 .7.7-2.7.7-2.7h2 2v435.7V1318l-1.8 6.7-1.8 6.7-2.4 4.7-2.4 4.7-8.2 8.2-8.2 8.2-4.6 2-4.6 2-5 1-5 1v1.3 1.3H513.2 46zm282.5-107l5.3-3 2.2-2.5 2.2-2.5 2.5-4.7 2.5-4.7V1144v-95.3l-2.5-4.7-2.5-4.7-2.2-2.5-2.2-2.5-5.3-3-5.3-3-94-.4-94-.4-5.6 2-5.6 2-4.7 5.2-4.7 5.2-1 5-1 5v93.3 93.3l2.5 4.7 2.5 4.7 2.2 2.5 2.2 2.5 4 2 4 2 4.7 1 4.7 1 92-.2 92-.2zm288.3-.3l5.7-3 3.3-5 3.3-5 1.5-6 1.5-6-.4-91.3-.4-91.3-2.5-4.7-2.5-4.7-2.2-2.5-2.2-2.5-5.3-3-5.3-3H514 418l-5.8 4-5.8 4-3.3 6-3.3 6v95.3 95.3l2.5 4.7 2.5 4.7 2.2 2.5 2.2 2.5 4 2.2 4 2.2 11.3.8 11.3.8 85.3-.3 85.3-.3zm-610.3-213v-.7H5h-.7v.7.7H5h.7zm0-2.7v-.7H5h-.7v.7.7H5h.7zm2.7 0v-.7h-.7H7v.7.7h.7.7zm2.7 0v-.7h-.7-.7v.7.7h.7.7zm-5.3-2.7v-.7H5h-.7v.7.7H5h.7zm2.7 0v-.7h-.7H7v.7.7h.7.7zm2.7 0v-.7h-.7-.7v.7.7h.7.7zm2.7 0v-.7H13h-.7v.7.7h.7.7zm2.7 0v-.7h-.7-.7v.7.7h.7.7zm-5.3-2.7v-.7h-.7-.7v.7.7h.7.7zm2.7 0v-.7H13h-.7v.7.7h.7.7zm2.7 0v-.7h-.7-.7v.7.7h.7.7zm2.7 0v-.7h-.7-.7v.7.7h.7.7zm-5.3-2.7v-.7H13h-.7v.7.7h.7.7zm2.7 0v-.7h-.7-.7v.7.7h.7.7zm2.7 0v-.7h-.7-.7v.7.7h.7.7zm2.7 0v-.7H21h-.7v.7.7h.7.7zM19 1030v-.7h-.7-.7v.7.7h.7.7zm2.7 0v-.7H21h-.7v.7.7h.7.7zm2.7 0v-.7h-.7-.7v.7.7h.7.7zm0-2.7v-.7h-.7-.7v.7.7h.7.7zm5.3 0v-.7H29h-.7v.7.7h.7.7zm2.7 0v-.7h-.7-.7v.7.7h.7.7zm-8-2.7v-.7h-.7-.7v.7.7h.7.7zm2.7 0v-.7h-.7-.7v.7.7h.7.7zm2.7 0v-.7H29h-.7v.7.7h.7.7zm2.7 0v-.7h-.7-.7v.7.7h.7.7zm2.7 0v-.7h-.7-.7v.7.7h.7.7zm-5.3-2.7v-.7H29h-.7v.7.7h.7.7zm2.7 0v-.7h-.7-.7v.7.7h.7.7zm2.7 0v-.7h-.7-.7v.7.7h.7.7zm5.3 0v-.7h-.7-.7v.7.7h.7.7zm2.7 0v-.7h-.7-.7v.7.7h.7.7zm-5.3-2.7v-.7H37h-.7v.7.7h.7.7zm5.3 0v-.7h-.7-.7v.7.7h.7.7zm2.7 0v-.7H45h-.7v.7.7h.7.7zm-2.7-2.7v-.7h-.7-.7v.7.7h.7.7zm2.7 0v-.7H45h-.7v.7.7h.7.7zm5.3 0v-.7h-.7-.7v.7.7h.7.7zm2.7 0v-.7H53h-.7v.7.7h.7.7zm-5.3-2.7v-.7h-.7-.7v.7.7h.7.7zm2.7 0v-.7h-.7-.7v.7.7h.7.7zm2.7 0v-.7H53h-.7v.7.7h.7.7zm2.7 0v-.7h-.7-.7v.7.7h.7.7zm-5.3-2.7v-.7h-.7-.7v.7.7h.7.7zm2.7 0v-.7H53h-.7v.7.7h.7.7zm2.7 0v-.7h-.7-.7v.7.7h.7.7zm2.7 0v-.7h-.7-.7v.7.7h.7.7zm-2.7-2.7v-.7h-.7-.7v.7.7h.7.7zm2.7 0v-.7h-.7-.7v.7.7h.7.7zm2.7 0v-.7H61h-.7v.7.7h.7.7zm0-2.7v-.7H61h-.7v.7.7h.7.7zm5.3 0v-.7h-.7-.7v.7.7h.7.7zm2.7 0v-.7H69h-.7v.7.7h.7.7zm-8-2.7v-.7H61h-.7v.7.7h.7.7zm2.7 0v-.7h-.7-.7v.7.7h.7.7zm2.7 0v-.7h-.7-.7v.7.7h.7.7zm2.7 0v-.7H69h-.7v.7.7h.7.7zm2.7 0v-.7h-.7-.7v.7.7h.7.7zm-5.3-2.7v-.7h-.7-.7v.7.7h.7.7zm2.7 0v-.7H69h-.7v.7.7h.7.7zm2.7 0v-.7h-.7-.7v.7.7h.7.7zM75 998v-.7h-.7-.7v.7.7h.7.7zm2.7-2.7v-.7H77h-.7v.7.7h.7.7zm2.7 0v-.7h-.7-.7v.7.7h.7.7zm2.7 0v-.7h-.7-.7v.7.7h.7.7zm5.3 0v-.7h-.7-.7v.7.7h.7.7zm-5.3-2.7v-.7h-.7-.7v.7.7h.7.7zm2.7 0v-.7H85h-.7v.7.7h.7.7zm2.7-2.7v-.7h-.7-.7v.7.7h.7.7zm5.3-2.7v-.7H93h-.7v.7.7h.7.7zm2.7 0v-.7h-.7-.7v.7.7h.7.7zm26.7 0v-.7h-.7-.7v.7.7h.7.7zm2.7 0v-.7h-.7-.7v.7.7h.7.7zm2.7 0v-.7h-.7-.7v.7.7h.7.7zm2.7 0v-.7h-.7-.7v.7.7h.7.7zm2.7 0v-.7h-.7-.7v.7.7h.7.7zm2.7 0v-.7h-.7-.7v.7.7h.7.7zm2.7 0v-.7h-.7-.7v.7.7h.7.7zm11.7-.7l.3-.3 13-.2h13l1.3-.8 1.3-.8 6.2.2 6.2.2-.2-1.7-.2-1.7-1-1-1-1-21-.3-21-.3-3.5-1.4-3.5-1.4-1 1-1 1 1-1.5 1-1.5-2-.8-2-.8h-1.4-1.4l.8 2.2.8 2.2-2.5-.7-2.5-.7-1.7 1-1.7 1 1.7 2 1.7 2 1.5-1 1.5-1-1.7 2-1.7 2h2.4 2.4l5 .2 5 .2-.7 1-.7 1 3.6-.3 3.6-.3.3-.3zm-3-1.4l-1-1.6 1.4 1 1.4 1 1.5-1.8 1.5-1.8 4 .3 4 .3.8-1.2.8-1.2 1.5 1.2 1.5 1.2 10.2-.1h10.2l-.6 1-.6 1-2.6-.5-2.6-.5-.6 1-.6 1-13-.1-13-.1-1.5 1.2-1.5 1.2-1-1.6zm6-2v-.7h-.7-.7v.7.7h.7.7zm2.7 0v-.7h-.7-.7v.7.7h.7.7zm2.7 0v-.7h-.7-.7v.7.7h.7.7zm5.3-.1v-.4l-1.2-.8-1.2-.8-.7 1-.7 1h2 2zm2.7.1v-.7h-.7-.7v.7.7h.7.7zm2.7 0v-.7h-.7-.7v.7.7h.7.7zm2.7 0v-.7h-.7-.7v.7.7h.7.7zm2.7 0v-.7h-.7-.7v.7.7h.7.7zm2.7 0v-.7h-.7-.7v.7.7h.7.7zm10-.4l-.7-1h2 2l-.7 1-.7 1h-.5-.5zm-51.5-6.2v-.7h.7.7v.7.7h-.7-.7zm-16 8v-.7h-.7-.7v.7.7h.7.7zm2.7 0v-.7h-.7-.7v.7.7h.7.7zm5-1.3v-1.6h-1.6-1.6v1.6 1.6h1.6 1.6zm-26.2-1.3v-.7h-.7-.7v.7.7h.7.7zm2.7 0v-.7h-.7-.7v.7.7h.7.7zm16 0v-.7h-.7-.7v.7.7h.7.7zm2.7 0v-.7h-.7-.7v.7.7h.7.7zm-16.4-4.2V976l-1.8 1.5-1.8 1.5v.3.3h1.8 1.8zm3 1.5v-.7h-.7-.7v.7.7h.7.7zm5.3 0v-.7h-.7-.7v.7.7h.7.7zm2.7 0v-.7h-.7-.7v.7.7h.7.7zm8 0v-.7h-.7-.7v.7.7h.7.7zm-16-2.7v-.7h-.7-.7v.7.7h.7.7zm16 .1v-.5l-2-.8-2-.8v1.3 1.3h2 2zm-16-2.8v-.7h-.7-.7v.7.7h.7.7zm2.7-2.7v-.7h-.7-.7v.7.7h.7.7zm-1.3-18.7v-.7h-.7-.7v.7.7h.7.7zm240.8-73.4l.3-2-1-.6-1-.6v3.2 3.2l.7-.7.7-.7zm4.5 2.7v-.7h-.7-.7v.7.7h.7.7zm0-2.7v-.7h-.7-.7v.7.7h.7.7zm0-5.3v-.7h-.7-.7v.7.7h.7.7zm-4-1.3v-.7h-.7-.7v.7.7h.7.7zm16-45.3v-.7h-.7-.7v.7.7h.7.7zm5.3 0v-.7h-.7-.7v.7.7h.7.7zm2.7-5.3v-.7h-.7-.7v.7.7h.7.7zm2.7-2.7v-.7h-.7-.7v.7.7h.7.7zm10.7-2.7v-.7h-.7-.7v.7.7h.7.7zM387 814v-.7h-.7-.7v.7.7h.7.7zm2.7 0v-.7h-.7-.7v.7.7h.7.7zM687 794v-.7h-.7-.7v.7.7h.7.7zm0-5.3v-.7h-.7-.7v.7.7h.7.7zm0-5.3v-.7h-.7-.7v.7.7h.7.7zm2.7-26.7v-.7h-.7-.7v.7.7h.7.7zm2.7-5.3v-.7h-.7-.7v.7.7h.7.7zm2.7-4v-.7h-.7-.7v.7.7h.7.7zm2.7-2.7v-.7h-.7-.7v.7.7h.7.7zm5.3-3.4v-1.4l2.6.8 2.6.8 1-1.4 1-1.4h-3-3l-2.6 2-2.6 2h2.3 2.3v-1.4zm33.7-2.2l-8.3-.5-8.3.5-8.3.5h16.7H745zm12.6.1l-1-1-1 1-1 1h1.8 1.8l-1-1zm4.4.2v-.7h-.7-.7v.7.7h.7.7zm21.3 0v-.7h-.7-.7v.7.7h.7.7zm-201.3-8v-.7h-.7-.7v.7.7h.7.7zm-29.3-5.3v-.7h-.7-.7v.7.7h.7.7zm2.7 0v-.7h-.7-.7v.7.7h.7.7zm2.7 0v-.7h-.7-.7v.7.7h.7.7zm2.7 0v-.7h-.7-.7v.7.7h.7.7zm2.7 0v-.7h-.7-.7v.7.7h.7.7zm2.7 0v-.7h-.7-.7v.7.7h.7.7zm2.7 0v-.7h-.7-.7v.7.7h.7.7zm2.7 0v-.7h-.7-.7v.7.7h.7.7zm2.7 0v-.7h-.7-.7v.7.7h.7.7zm-16.4-4.2V720l-1.8 1.5-1.8 1.5v.3.3h1.8 1.8zm3 1.5v-.7h-.7-.7v.7.7h.7.7zm2.7 0v-.7h-.7-.7v.7.7h.7.7zm2.7 0v-.7h-.7-.7v.7.7h.7.7zm2.7 0v-.7h-.7-.7v.7.7h.7.7zm2.7 0v-.7h-.7-.7v.7.7h.7.7zm2.7 0v-.7h-.7-.7v.7.7h.7.7zm-13.3-2.7v-.7h-.7-.7v.7.7h.7.7zm8 0v-.7h-.7-.7v.7.7h.7.7zm2.7 0v-.7h-.7-.7v.7.7h.7.7zm2.7 0v-.7h-.7-.7v.7.7h.7.7zm-13.3-2.7v-.7h-.7-.7v.7.7h.7.7zm10.7 0v-.7h-.7-.7v.7.7h.7.7zm5.3 0v-.7h-.7-.7v.7.7h.7.7zm-2.7-2.7v-.7h-.7-.7v.7.7h.7.7zm2.7-2.7v-.7h-.7-.7v.7.7h.7.7zm2.7 0v-.7h-.7-.7v.7.7h.7.7zm2.7-2.7v-.7h-.7-.7v.7.7h.7.7zm2.7 0v-.7h-.7-.7v.7.7h.7.7zm2.7 0v-.7h-.7-.7v.7.7h.7.7zm2.7 0v-.7h-.7-.7v.7.7h.7.7zm2.7 0v-.7h-.7-.7v.7.7h.7.7zm-10.7-2.7v-.7h-.7-.7v.7.7h.7.7zm2.7 0v-.7h-.7-.7v.7.7h.7.7zm2.7 0v-.7h-.7-.7v.7.7h.7.7zm2.7 0v-.7h-.7-.7v.7.7h.7.7zm2.7 0v-.7h-.7-.7v.7.7h.7.7zm2.7 0v-.7h-.7-.7v.7.7h.7.7zm2.7 0v-.7h-.7-.7v.7.7h.7.7zm2.7 0v-.7h-.7-.7v.7.7h.7.7zm5.3-2.7v-.7h-.7-.7v.7.7h.7.7zm2.7-2.7v-.7h-.7-.7v.7.7h.7.7zm8 0v-.7h-.7-.7v.7.7h.7.7zm5-6.7v-1.6h-1.6-1.6v1.6 1.6h1.6 1.6zm5.8-1.3v-.7h-.7-.7v.7.7h.7.7zm-8-8v-.7h-.7-.7v.7.7h.7.7zm24-8v-.7h-.7-.7v.7.7h.7.7zm24-8v-.7h-.7-.7v.7.7h.7.7zm-8-2.7v-.7h-.7-.7v.7.7h.7.7zm2.7 0v-.7h-.7-.7v.7.7h.7.7zm2.7 0v-.7h-.7-.7v.7.7h.7.7zm2.7 0v-.7h-.7-.7v.7.7h.7.7zm2.7 0v-.7h-.7-.7v.7.7h.7.7zm2.7 0v-.7h-.7-.7v.7.7h.7.7zm2.7 0v-.7h-.7-.7v.7.7h.7.7zm2.7 0v-.7h-.7-.7v.7.7h.7.7zm8 0v-.7h-.7-.7v.7.7h.7.7zm-24.4-4.2v-1.8l-1.8 1.5-1.8 1.5v.3.3h1.8 1.8zm5.8 1.5v-.7h-.7-.7v.7.7h.7.7zm2.7 0v-.7h-.7-.7v.7.7h.7.7zm2.7 0v-.7h-.7-.7v.7.7h.7.7zm2.7 0v-.7h-.7-.7v.7.7h.7.7zm2.7 0v-.7h-.7-.7v.7.7h.7.7zm2.7 0v-.7h-.7-.7v.7.7h.7.7zm2.7 0v-.7h-.7-.7v.7.7h.7.7zm2.7 0v-.7h-.7-.7v.7.7h.7.7zm-16-2.7v-.7h-.7-.7v.7.7h.7.7zm2.7 0v-.7h-.7-.7v.7.7h.7.7zm2.7 0v-.7h-.7-.7v.7.7h.7.7zm2.7 0v-.7h-.7-.7v.7.7h.7.7zm2.7 0v-.7h-.7-.7v.7.7h.7.7zm2.7 0v-.7h-.7-.7v.7.7h.7.7zm2.7 0v-.7h-.7-.7v.7.7h.7.7zm-13.3-2.7v-.7h-.7-.7v.7.7h.7.7zm2.7 0v-.7h-.7-.7v.7.7h.7.7zm2.7 0v-.7h-.7-.7v.7.7h.7.7zm2.7 0v-.7h-.7-.7v.7.7h.7.7zm2.7 0v-.7h-.7-.7v.7.7h.7.7zm2.7 0v-.7h-.7-.7v.7.7h.7.7zm-13.3-2.7v-.7h-.7-.7v.7.7h.7.7zm2.7 0v-.7h-.7-.7v.7.7h.7.7zm2.7 0v-.7h-.7-.7v.7.7h.7.7zm2.7 0v-.7h-.7-.7v.7.7h.7.7zm2.7 0v-.7h-.7-.7v.7.7h.7.7zm2.7 0v-.7h-.7-.7v.7.7h.7.7zM667 654v-.7h-.7-.7v.7.7h.7.7zm2.7 0v-.7h-.7-.7v.7.7h.7.7zm2.7 0v-.7h-.7-.7v.7.7h.7.7zm2.7 0v-.7h-.7-.7v.7.7h.7.7zm2.7 0v-.7h-.7-.7v.7.7h.7.7zm0-2.7v-.7h-.7-.7v.7.7h.7.7zm5.3-10.7v-.7h-.7-.7v.7.7h.7.7zm0-2.7v-.7h-.7-.7v.7.7h.7.7zm244.8-89.4l.3-2-1-.6-1-.6v3.2 3.2l.7-.7.7-.7zm4.5 2.7v-.7h-.7-.7v.7.7h.7.7zm0-2.7v-.7h-.7-.7v.7.7h.7.7zm-4.7-6l.8-1.2-1-.7-1-.7v2 2h.4.4zm4.7-4.8v-.7h-.7-.7v.7.7h.7.7zm6.7-38.7v-.7h-.7-.7v.7.7h.7.7zm8 0v-.7h-.7-.7v.7.7h.7.7zm2.7 0v-.7h-.7-.7v.7.7h.7.7zm-5.3-2.7v-.7h-.7-.7v.7.7h.7.7zm2.7 0v-.7h-.7-.7v.7.7h.7.7zm2.7 0v-.7h-.7-.7v.7.7h.7.7zm2.7 0v-.7h-.7-.7v.7.7h.7.7zM947 494v-.7h-.7-.7v.7.7h.7.7zm2.7 0v-.7h-.7-.7v.7.7h.7.7zm2.7 0v-.7h-.7-.7v.7.7h.7.7zm2.7 0v-.7h-.7-.7v.7.7h.7.7zm-2.7-2.7v-.7h-.7-.7v.7.7h.7.7zm2.7 0v-.7h-.7-.7v.7.7h.7.7zm2.7 0v-.7h-.7-.7v.7.7h.7.7zm0-2.7v-.7h-.7-.7v.7.7h.7.7zm5.3 0v-.7h-.7-.7v.7.7h.7.7zm2.7 0v-.7h-.7-.7v.7.7h.7.7zm-8-2.7v-.7h-.7-.7v.7.7h.7.7zm2.7 0v-.7h-.7-.7v.7.7h.7.7zm2.7 0v-.7h-.7-.7v.7.7h.7.7zm2.7 0v-.7h-.7-.7v.7.7h.7.7zm2.7 0v-.7h-.7-.7v.7.7h.7.7zm-5.3-2.7v-.7h-.7-.7v.7.7h.7.7zm2.7 0v-.7h-.7-.7v.7.7h.7.7zm2.7 0v-.7h-.7-.7v.7.7h.7.7zm2.7-2.7v-.7h-.7-.7v.7.7h.7.7zm2.7-2.7v-.7h-.7-.7v.7.7h.7.7zm2.7 0v-.7h-.7-.7v.7.7h.7.7zm2.7 0v-.7h-.7-.7v.7.7h.7.7zm5.3 0v-.7h-.7-.7v.7.7h.7.7zm-5.3-2.7v-.7h-.7-.7v.7.7h.7.7zm2.7 0v-.7h-.7-.7v.7.7h.7.7zm2.7-2.7v-.7h-.7-.7v.7.7h.7.7zm5.3 0v-.7h-.7-.7v.7.7h.7.7zm0-2.7v-.7h-.7-.7v.7.7h.7.7zm2.7 0v-.7h-.7-.7v.7.7h.7.7zm2.7 0v-.7h-.7-.7v.7.7h.7.7zm0-2.7v-.7h-.7-.7v.7.7h.7.7zm5.3 0v-.7h-.7-.7v.7.7h.7.7zm2.7 0v-.7h-.7-.7v.7.7h.7.7zm-8-2.7v-.7h-.7-.7v.7.7h.7.7zm2.7 0v-.7h-.7-.7v.7.7h.7.7zm2.7 0v-.7h-.7-.7v.7.7h.7.7zm2.7 0v-.7h-.7-.7v.7.7h.7.7zm2.7 0v-.7h-.7-.7v.7.7h.7.7zm-5.3-2.7v-.7h-.7-.7v.7.7h.7.7zm2.7 0v-.7h-.7-.7v.7.7h.7.7zm2.7 0v-.7h-.7-.7v.7.7h.7.7zm5.3 0v-.7h-.7-.7v.7.7h.7.7zm2.7 0v-.7h-.7-.7v.7.7h.7.7zm-5.3-2.7v-.7h-.7-.7v.7.7h.7.7zm2.7 0v-.7h-.7-.7v.7.7h.7.7zm2.7 0v-.7h-.7-.7v.7.7h.7.7zm2.7 0v-.7h-.7-.7v.7.7h.7.7zm2.7 0v-.7h-.7-.7v.7.7h.7.7zm2.7 0v-.7h-.7-.7v.7.7h.7.7zm-10.7-2.7v-.7h-.7-.7v.7.7h.7.7zm2.7 0v-.7h-.7-.7v.7.7h.7.7zm2.7 0v-.7h-.7-.7v.7.7h.7.7zm2.7 0v-.7h-.7-.7v.7.7h.7.7zm2.7 0v-.7h-.7-.7v.7.7h.7.7zm-5.3-2.7v-.7h-.7-.7v.7.7h.7.7zm2.7 0v-.7h-.7-.7v.7.7h.7.7zm2.7 0v-.7h-.7-.7v.7.7h.7.7zm0-2.7v-.7h-.7-.7v.7.7h.7.7zm0-2.7v-.7h-.7-.7v.7.7h.7.7zm-906 525.8l-1-1.5 1.5 1 1.5 1v.6.6h-.6-.6zm.8-12.5v-.7h.7.7v.7.7h-.7-.7zM355 870v-.7h.7.7v.7.7h-.7-.7zM111 762l.1-2.6.7 1.8.7 1.8-.8.8-.8.8V762zm228.7-6.6l-.8-2h1.3 1.3v2 2h-.5-.5zm-10.2-12v-.7h.7.7v.7.7h-.7-.7zm81.3 0v-.7h.7.7v.7.7h-.7-.7zm-85.3-1.3v-.7h.7.7v.7.7h-.7-.7zm88.7-.7l.8-1.3h.7.7l-.8 1.3-.8 1.3h-.7-.7zM147 738.6l6-1h74 74l6.7 1 6.7 1h-86.7H141l6-1zm168 .7v-.7h.7.7v.7.7h-.7-.7zm249.3-9.3v-.7h.7.7v.7.7h-.7-.7zm41.3-38.7v-.7h.7.7v.7.7h-.7-.7zm-398-6l-16-.7 60.6-.3 60.6-.3-.8.8-.8.8-43.8.2-43.8.2zm106 .7v-.7h.7.7v.7.7h-.7-.7zm-162.3-1.6l6.3-.5 6.3.5 6.3.5h-12.7H145zm22.3.3v-.7h.7.7v.7.7h-.7-.7zm2.7 0v-.7h.7.7v.7.7h-.7-.7zm2.7 0v-.7h.7.7v.7.7h-.7-.7zm10.7 0v-.7h.7.7v.7.7h-.7-.7zm228-1.3v-.7h.7.7v.7.7h-.7-.7zm-92-1.2v-.5l2-.8 2-.8v1.3 1.3h-2-2zm85.2-1.7l-1.8-2.2 3.3 1.7 3.3 1.7.6.5.6.5h-2-2zm-73-9l3-5.3.4-.6.4-.6v2 2l-3.4 4-3.4 4 3-5.3zm62.4-1.4l-1.3-3.4v-1-1l2.6 3.3 2.6 3.3v1 1H403h-1.4l-1.3-3.4zm-287 0l-.8-2.2v-1-1l1.4 2.4 1.4 2.4-.6.6-.6.6-.8-2.2zm228.5-7.3V661l1 1 1 1-1 1-1 1zm55-7.7l-1-6.3v-78-78l1.5-5.3 1.5-5.3.1 89.7v89.7h-.6-.6zm-287.6-4.5l-1-8.2.2-74.8.2-74.8 1-4 1-4 .2 87v87h-.5-.5zM343.4 570l.1-89.3.7 14.7.7 14.7.3 70 .3 70-1.2 4.7-1.2 4.7.1-89.3zM927 535.3v-.7h.7.7v.7.7h-.7-.7zm4-1.3v-.7h.7.7v.7.7h-.7-.7zm-244-60l.1-2.6.7 1.8.7 1.8-.8.8-.8.8V474zm-57.4-1.2v-.7h.7.7v.7.7h-.7-.7zm-2-5.6l-1-2.4 1.7 1.6 1.7 1.6-.7.7-.7.7zm290-2.4v-.7h.7.7v.7.7h-.7-.7zm-6-3.5l-1-1.5 1.5 1 1.5 1v.6.6h-.6-.6zm3.5 1v-.7h.7.7v.7.7h-.7-.7zm-10-7.3l.8-1.3h.6.6v1.3 1.3h-1.4-1.4zm-3.3-.7v-.7h.7.7v.7.7h-.7-.7zm-715-3l41.8-.4 41 .4 41 .4h-82.7H145zm244.6.2l.8-.8 73-.5 73-.5 10.7 1 10.7 1-84.6.2-84.6.2zm288.3-.7l10.7-1 75.3-.3 75.3-.3 6.5.8 6.5.8.8.8.8.8-93.2-.2-93.2-.2zm92-45l-2.7-.4-2-.8-2-.8-6.7-.4-6.7-.4-14.7-.7-14.7-.7-21.3-.4-21.3-.4-14.7-.4-14.7-.4-1.3-.8-1.3-.8H662l-25.8-.2-1-1.6-1-1.6h-36.6H561l-6.7-2.3-6.7-2.3-49.3-1-49.3-1-22-.7-22-.7-64-1.4-64-1.4-38-.5-38-.5-9.3-1.4-9.3-1.4-10-1-10-1-8.2-2.8-8.2-2.8-6-2.7-6-2.7-6.2-6.7-6.2-6.7-3.4-7.5-3.4-7.5.7-1.8.7-1.8-3-3.7-3-3.7v-56.7V214l.7-24 .7-24 .3 79 .3 79 4.3 6 4.3 6 5 2.5 5 2.5h378.6H888l6.5-4.3 6.5-4.3 3-6 3-6V226l.1-94.7-1.4-3.8-1.4-3.8v-.8-.8l2 2.6 2 2.6v2.5 2.5l4.6 4.2 4.6 4.2 3.3 6.7 3.3 6.7 2.3 8 2.3 8 3 6.7 3 6.7.8 6 .8 6 .6 4.7.6 4.7.7 5.3.7 5.3 1.8 6.7 1.8 6.7.8 14.7.8 14.7 1 16.3 1 16.3-1.3 1.7-1.3 1.7.2 1.7.2 1.7.3.3.3.3.6 17.8.6 17.8-1.7 2-1.7 2 1.7-1 1.7-1v2 2l-1 1-1 1-.4 2.3-.4 2.3-.5 4-.5 4-.3.3-.3.3-.3 1.3-.3 1.3-.3.7-.3.7-.3 1.3-.3 1.3-.3.7-.3.7-.2 1-.2 1-3.3 4.5-3.3 4.5-9 9.6-9 9.6-3.5 1-3.5 1-1.8 1.5-1.8 1.5-1.5.3-1.5.3-4.3.8-4.3.8-4.4 2.6-4.4 2.6h-13-13l-4.7-1-4.7-1-.7.7-.7.7-7 .5-7 .5-8.7.3-8.7.3-2.7-.4zm132.7-66.3v-.7h-.7-.7v.7.7h.7.7zM111 164.7v-.7h.7.7v.7.7h-.7-.7zm.3-5.3v-4l.6 2.4.6 2.4-.7 1.6-.7 1.6v-4zm0-22.7v-4l.6 2.4.6 2.4-.7 1.6-.7 1.6v-4z" fill="#707a84"/><path d="M966.3 1363.8l-.6-1 1.7-1 1.7-1h2 2l2-1.6 2-1.6 1.3-.4 1.3-.4-.3-1-.3-1 2.6.5 2.6.5 1.6-2 1.6-2 1 .7 1 .7 1-1.4 1-1.4 1.6 1 1.6 1 1.5.2 1.5.2 5.6-5.7 5.6-5.7-1.7-1-1.7-1 1 1.7 1 1.7-1.7-1-1.7-1 1 1.7 1 1.7-1.7-1-1.7-1 1 1.7 1 1.7-1.7-1-1.7-1 1 1.7 1 1.7-1.7-1-1.7-1 1 1.7 1 1.7-1.7-1-1.7-1 1 1.7 1 1.7-1.7-1-1.7-1 1 1.7 1 1.7-1.7-1-1.7-1 .8 1.3.8 1.3h-2-2l6.3-6.4 6.3-6.4 1 .6 1 .6 1.5-2 1.5-2 2.3.4 2.3.4 2-1.5 2-1.5-3.2 5-3.2 5-1.6-.6-1.6-.6.7 1.8.7 1.8-7 6-7 6-4.8 1.6-4.8 1.6-2-.8-2-.8-2.8 2.8-2.8 2.8-5.4-.3-5.4-.3zm5.5-1.5l.8-.8-2 .3-2 .3-.8.8-.8.8 2-.3 2-.3zm9.6-4.2l2.3-2.8-2.8 2.3-2.8 2.3-.8-.8-.8-.8-.7 1.2-.7 1.2h2 2zm5.3-1l-.3-1.7 1.5.3 1.5.3 1.8-2.3 1.8-2.3-2.3 1.8-2.3 1.8v-1-1l-2 1.7-2 1.7v1.2 1.2h1.3 1.3zm26.2-16.5l2-.8v-1-1l-2 .3-2 .3-1.6 1.6-1.6 1.6h1.5 1.5zm-2-1.2v-.7h.7.7v.7.7h-.7-.7zm-565.6-79l1.8-.7.8.8.8.8-2.6-.1-2.6-.1 1.7-.7zm4.7 0l1-1 1 1 1 1H451h-1.8zm5.3 0l1-1 1 1 1 1h-1.8-1.8zm54.2.2v-.7h.7.7v.7.7h-.7-.7zm5-.2l1.8-.7.8.8.8.8-2.6-.1-2.6-.1 1.8-.7zm5.3 0l1.8-.7.8.8.8.8-2.6-.1-2.6-.1 1.8-.7zm12-.1l8.4-.5 7.6.5 7.6.5h-16-16l8.4-.5zm24.7.1l1-1 1 1 1 1h-1.8-1.8zm6.2.2v-.7h.7.7v.7.7h-.7-.7zm26.7 0v-.7h.7.7v.7.7h-.7-.7zm4.3-.3l2.3-.6 2.3.6 2.3.6h-4.7-4.7zm115.5-1.8l-4.5-.8-4.4-2.3-4.4-2.3-4-6.2-4-6.2v-240-240l3.4-6.2 3.4-6.2 5-3.3 5-3.3 96.4-.4 96.4-.4 5.2 2.6 5.2 2.6 3.6 4.3 3.6 4.3 1.2 3 1.2 3 .1 239.4.1 239.4-3.3 5.7-3.3 5.7-5.3 3.5-5.3 3.5-93.2.4-93.2.4-4.5-.8zm-95.4-.8l1-1 1 1 1 1H615h-1.8zm10.2-7.8v-.7h.7.7v.7.7h-.7-.7zm-222.7-4v-.7h.7.7v.7.7h-.7-.7zm225.3 0v-.7h.7.7v.7.7h-.7-.7zm1.3-2.7v-.7h.7.7v.7.7h-.7-.7zm2.7-9.3v-.7h.7.7v.7.7h-.7-.7zm.1-88.6l-.1-87.2.6.6.6.6.8 82 .8 82-1.2 4.7-1.2 4.7zm-287.5-.1v-86l.4 43 .4 43-.4 43-.4 43zm53.6 75l-.8-5 .1-72 .1-72 1-2.7 1-2.7.1 79.7v79.7h-.5-.5zm-287.5 1.7v-.7h.7.7v.7.7h-.7-.7zm0-2.7v-.7h.7.7v.7.7h-.7-.7zm0-2.7v-.7h.7.7v.7.7h-.7-.7zm-.4-3l-1-1v-64.5-64.5l1.4.8 1.4.8v64.6 64.6h-.4-.4l-1-1zm47-186.7l1.8-.7.8.8.8.8H157l-2.6-.1 1.8-.7zm61.6.2v-.7h.7.7v.7.7h-.7-.7zm10.7 0v-.7h.7.7v.7.7h-.7-.7zm13-.3l11-.5 10.3.5 10.3.5h-21.3-21.3l11-.5zm35 .3v-.7h.7.7v.7.7h-.7-.7zm8.3-.3l3.7-.6 3.7.6 3.7.6h-7.3-7.3zm12 .1l1-1 1 1 1 1h-1.8-1.8zm178.7-.1l41-.4 40.2.4 40.2.4h-81.3-81.3zm156.2-169.7v-84.7l.4 42.3.4 42.3-.4 42.3-.4 42.3zm-288 1.3v-82l.4 41 .4 41-.4 41-.4 41zm53.4 64l-.8-1.3.3-21 .3-21 1-2.7 1-2.7-.2 25-.2 25h-.3-.3zm.7-50v-.7h.7.7v.7.7h-.7-.7zm0-2.7v-.7h.7.7v.7.7h-.7-.7zm0-13.3v-.7h.7.7v.7.7h-.7-.7zm0-2.7v-.7h.7.7v.7.7h-.7-.7zm0-10.7v-.7h.7.7v.7.7h-.7-.7zm0-2.7v-.7h.7.7v.7.7h-.7-.7zm0-2.7v-.7h.7.7v.7.7h-.7-.7zm0-2.7v-.7h.7.7v.7.7h-.7-.7zm0-2.7v-.7h.7.7v.7.7h-.7-.7zm0-2.7v-.7h.7.7v.7.7h-.7-.7zm0-2.7v-.7h.7.7v.7.7h-.7-.7zm0-2.7v-.7h.7.7v.7.7h-.7-.7zm0-10.7v-.7h.7.7v.7.7h-.7-.7zm522-244.7V486l.4 41.7.4 41.7-.4 41.7-.4 41.7zm-288 1.3v-79.3l.4 39.7.4 39.7-.4 39.7-.4 39.7zm-288.3 64.7V630l.6 3 .6 3-.6 2.3-.6 2.3v-5.3zm.2-22.7v-13.3l.5 7 .5 7-.5 6.3-.5 6.3v-13.3zm454-256l-.5-.5-88.7-1-88.7-1-.7-.4-.7-.4-140-.8-140-.8-54.7-.7-54.7-.7-23.3-.7-23.3-.7L163 348l-19.3-1.4-5.3-2-5.3-2-2.7-.6-2.7-.6 380.4-.2 380.4-.2 3.6-2.2 3.6-2.2 3-2.8 3-2.8 2.6-5 2.6-5 .5-42.3.5-42.3.1-49.2.1-49.2.5.6.5.6 1 6 1 6 1.2 70 1.2 70-.6 17.3-.6 17.3v2.8 2.8l-3.7 5.5-3.7 5.5-5.3 3.8-5.3 3.8-12.7 3-12.7 3-35.5.5-35.5.5-.5-.5zm-672-16v-.7h.7.7v.7.7h-.7-.7z" fill="#50627b"/><path d="M703 1255l-7.3-3.7-3.7-7.2-3.7-7.2.3-238.2.3-238.2 3.3-6 3.3-6 7.2-3.7 7.2-3.7h93 93l7.2 3.7 7.2 3.7 3.7 7.2 3.7 7.2V1000v236.8l-3.2 7-3.2 7-5.8 3.7-5.8 3.7-94.7.4-94.7.4z" fill="#134585"/></svg>