<svg xmlns="http://www.w3.org/2000/svg" width="329.1" height="352" xmlns:v="https://vecta.io/nano"><path d="M85.5 136.5h203.8V184H85.5zM35.2 192h246v48h-246zM29 264h190v40H29z" fill="#fff"/><path d="M9.5 350.6l-3-1.3-2.7-3.2L1 343l-.6-3.2-.6-3.2L.2 185 .5 33.5l2.3-3.3L5 27l2.2-1.2 2.2-1.2L32 24l22.5-.5.5-6.5.5-6.5 2-3.3 2-3.3 4-2 4-2h2.7H73l3.2 1.4 3.2 1.4 2.8 3 2.8 3 .7 7.3.7 7.3h78 78l.2-6 .2-6 2-3.3 2-3.3 2.8-2 2.8-2h6 6l2.8 2 2.8 2 2 2.6 2 2.6.5 7 .5 7h22 22l2.7 1.8 2.7 1.8 2.3 3 2.3 3 .3 154 .3 154-1 3.3-1 3.3-2.6 2-2.6 2H167 12.5zM75 296.4l3-.6 3-3 3-3 1-3.7 1-3.7-.7-3.8-.7-3.8-3.2-3.2-3.2-3.2L74 267l-4.3-1.3-3.7 1.3-3.7 1.3-2.4 2-2.4 2-1.4 3.2L55 279v3.3 3.3l2.2 4 2.2 4 3.5 1.7 3.5 1.7H69h2.6l3-.6zM144 292l4-4 .2-2.7.2-2.7-.2-2.5-.2-2.5-1-2.8-1-2.8-4.6-3-4.6-3H133h-3.6l-2 1.2-2 1.2-2.5 2-2.5 2-1.2 2.2-1.2 2.2v5.2 5.2l3.5 4.3 3.5 4.3 2.2.5 2.2.5 5.4-.4 5.4-.4 4-4zm61 1.4l3-3 1.4-2.7 1.4-2.7v-3-3l-1-2.8-1-2.8-2.2-2.3-2.2-2.3-3.4-1.4-3.4-1.4h-2.4-2.4l-3.7 2-3.7 2-1.7 2-1.7 2-1 3-1 3 .6 4.3.6 4.3 3 3.6 3 3.6 2 1 2 1 5.3-.3 5.3-.3zM80.8 229.8l4.2-4.2.6-2.4.6-2.4-.5-4-.5-4-2-2.7-2-2.7-3-2-3-2h-4l-4-.1-3.2 1.6-3.2 1.6L58 210l-2.3 3.2-.4 5-.4 5 2 3.3 2 3.3 3.3 2 3.3 2H71h5.6l4.2-4.2zm62.5.3l3.3-3.2 1-3.8 1-3.8-1-3.3-1-3.3-2.5-3.3-2.5-3.3-4.5-1.5-4.5-1.5-4.4 1.5-4.4 1.5-2.8 3-2.8 3-.4 6.3-.4 6.3 3.3 3.8 3.3 3.8 2 1 2 1 5.8-.3 5.8-.3zm61.6 1.3l3-2.6 1.5-2.8 1.5-2.8v-4-4l-2.6-4-2.6-4-3.7-1.6-3.7-1.6-3.8.1-3.8.1-3.3 2-3.3 2-1.5 2.2-1.5 2.2-.7 3.2-.7 3.2.7 3.7.7 3.7 4 4 4 4h6.4 6.4zm63-1l4-3.6v-1.4-1.4h1 1v-3.5-3.5l-2.4-4.7-2.4-4.7-3.6-1.7-3.6-1.7h-4.6-4.6l-3.3 2.6-3.3 2.6-1.5 3-1.5 3v4 4l1.4 2.7 1.4 2.7 2.3 2 2.3 2 1.5.5 1.5.5 5.2.1h5.2l4-3.6zM141.8 169l2.8-2 1.6-2.7 1.6-2.7.6-3.5.6-3.5-2.3-4.5-2.3-4.5-4-2.2-4-2.2h-3.3-3.3l-4 2-4 2-2 3.2-2 3.2v5 5l2 3.3 2 3.3 2.3 1.5 2.3 1.5 2 .5 2 .5 4.3-.4 4.3-.4 2.8-2zm59.3 2l3.4-1.2 1.2-1.2 1.2-1.2 2-3.4 2-3.4v-4.3-4.3l-2.7-4-2.7-4-2.4-1-2.4-1-4.4-.6-4.4-.6-3.3 1.8-3.3 1.8-2 3-2 3-.7 3.7-.7 3.7 1 3.5 1 3.5 2.6 2.6 2.6 2.6 3 1 3 1 2 .1h2l3.4-1.2zM267 169l3-2.2 2-4 2-4V156v-3.2l-2.6-4-2.6-4-3.4-1.7-3.4-1.7h-4-4l-2.7 1.8-2.7 1.8-2.2 2.4-2.2 2.4-.6 3.4-.6 3.4.6 3.5.6 3.5 1.6 2.5 1.6 2.5 4.2 2 4.2 2 4.2-.4 4.2-.4z" fill="#a1d5eb"/><path d="M16 351l-6.5-.6-1.7-.8-1.7-.8-2.5-3.7-2.5-3.7-.3-153.7L.5 34l2-2.8 2-2.8L8 26.3l3.3-2.2h22 22v-2.2-2.2l.5-4.5.5-4.5 2-3.4 2-3.4 3.3-1.4L67 1h3.8 3.8L78 3l3.5 2 1.7 3 1.7 3 .3 6.5.3 6.5 78.6.3 78.6.3.5-7 .5-7 1.7-2.6L247 5l3.2-2 3.2-2h4.3 4.3l3.2 1.5 3.2 1.5 2 2.7 2 2.7.5 7 .5 7 22.5.5 22.5.5 2.2 1.3L323 27l2.5 3.3 2.5 3.3V189v155.3l-1.7 2.8-1.7 2.8-2.6.8-2.6.8H171 22.5zm60.6-54.5l4-1.6 1.8-2.2 1.8-2.2 1.6-3.5 1.6-3.5-1-5.2-1-5.2-3.4-3-3.4-3-3.7-1.2-3.7-1.2-3.7 1-3.7 1-2.7 2-2.7 2-2 4-2 4v3.2 3.2l2.6 4.4 2.6 4.4 4.2 2 4.2 2H70h2.6l4-1.6zm66-2l3.6-2.8 1.4-3.3 1.4-3.3v-3.6-3.6l-1.4-3.4-1.4-3.4-3.8-2.5-3.8-2.5-3.5-.6-3.5-.6-4.2 1.7-4.2 1.7-3 4-3 4v5 5l1.4 2.7 1.4 2.7 2.2 2 2.2 2 2.7 1.2 2.7 1.2 4.7-.3 4.7-.3zm59.3 2l2.8-1.4 3-3.6 3-3.6v-6.2-6.2l-3-3.6-3-3.6-4.5-1.7-4.5-1.7-4 1.2-4 1.2-3 2.5-3 2.5-1.7 4.2-1.7 4.2.7 4 .7 4 2.6 3 2.6 3 3 2 3 2h3.8 3.8l2.8-1.4zm-121-65.3l4-3.7L86 223l1.2-4.4-.6-2.6-.6-2.6-2.4-3.7-2.4-3.7-5.5-2-5.5-2-4.6 1.7-4.6 1.7-3 3.7-3 3.7-.4 5.3-.4 5.3 2.4 3.5 2.4 3.5 3.4 2.3 3.4 2.3H71h5.8zm59.8 2l3.2-1.7 2-2.7 2-2.7.6-5 .6-5-1.7-3.7-1.7-3.7-3-2.5-3-2.5h-6.8-6.8l-4.2 4.2-4.2 4.2-.4 6.5-.4 6.5 5 5 5 5h5.3 5.3l3.2-1.7zm62.3.3l3-1.5 2.5-3.3 2.5-3.3V220l.2-5.6-2-3.3-2-3.3-2.8-2-2.8-2h-6.3-6.3l-3.6 2.7-3.6 2.7-1.8 4.6-1.8 4.6 1.2 4.6 1.2 4.6 3.2 2.8 3.2 2.8 1 1 1 1h5.3 5.3l3-1.5zm62.4-.1l3.2-1.6 2.3-3 2.3-3 .5-4 .5-4-.6-3.4-.6-3.4-3-3-3-3-3.7-1.2-3.7-1.2-4 .5-4 .5-2.6 2-2.6 2-2.2 3.3-2.2 3.3v4.7 4.7l2.3 3.4 2.3 3.4 3.4 2.3 3.4 2.3h4.5 4.5zM140 171l4-2 2-2.8 2-2.8 1.2-3.6 1.2-3.6-1.6-4.8-1.6-4.8-4-3-4-3h-6.3-6.3l-3 2.6-3 2.6-1.5 2.8-1.5 2.8v4.6 4.6l1.4 2.7 1.4 2.7 2.2 2 2.2 2 2.7 1.2 2.7 1.2 3.3.1h3.3l4-2zm64.5-1l3.3-2.3 1.6-2.7 1.6-2.7v-5.8-5.8l-2.2-3.2-2.2-3.2-2.7-1.6-2.7-1.6h-6-6l-4 3.6-4 3.6-1 3.8-1 3.8.7 3.7.7 3.7 3.6 4 3.6 4 3 1 3 1 3.8-.4 3.8-.4zm63.2-.4l3.3-2.5 1.5-3 1.5-3v-4.6-4.6l-1.5-3-1.5-3-3.3-2.6-3.3-2.6h-6-6l-3.6 2.4-3.6 2.4-1.6 3.5-1.6 3.5v3.8 3.8l2.2 4 2.2 4 4.5 2.3 4.5 2.3 4.4-.6 4.4-.6z" fill="#38c3ee"/><path d="M16 351l-6.5-.5-1.7-1-1.7-1-2.5-3.4-2.5-3.4.2-123 .2-123 .6 17 .6 17 .4-17 .4-17L4 111l.6 15.5.2-6.2.2-6.2h1.3 1.3l1.2-2.5L10 109V107v-1.8l2.3-.6 2.3-.6h3.3H21v-4-4l44.3-.3 44.3-.3-54-.2-54-.2-.5-5.7-.5-5.7.2-24.7L.5 34l2-2.8 2-2.8L8 26.3l3.3-2.2h22 22v-3-3l1-.6 1-.6-.4 9.3-.4 9.3.5-3.4.5-3.4 1.5-2 1.5-2-.7 2.8-.7 2.8h1 1v-1-1h4 4v-2-2h4 4v-1.5V21h1.4 1.4l1.2-3.5 1.2-3.5h1.4H85v3.3l.1 3.3.1 1.5.1 1.5h79.3H244l.2 8 .2 8 .4-5.8.4-5.8 2.4.6 2.4.6 2.5-.6 2.5-.6v-1.4V25l2-.6 2-.6h3.8 3.8H292h25.4l2.8 1.4L323 27l2.6 3.3 2.6 3.3V189v155.3l-1.7 2.8-1.7 2.8-2.6.8-2.6.8H171 22.5zm60.6-54.6l4-1.6 1.8-2.2 1.8-2.2 1.6-3.5 1.6-3.5-1-5.2-1-5.2-3.4-3-3.4-3-3.7-1.2-3.7-1.2-3.7 1-3.7 1-2.7 2-2.7 2-2 4-2 4v3.2 3.2l2.6 4.4 2.6 4.4 4.2 2 4.2 2H70h2.6l4-1.6zm66-2l3.6-2.8 1.4-3.3 1.4-3.3v-3.6-3.6l-1.4-3.4-1.4-3.4-3.8-2.5-3.8-2.5-3.5-.6-3.5-.6-4.2 1.7-4.2 1.7-3 4-3 4v5 5l1.4 2.7 1.4 2.7 2.2 2 2.2 2 2.7 1.2 2.7 1.2 4.7-.3 4.7-.3zm59.3 2l2.8-1.4 3-3.6 3-3.6v-6.2-6.2l-3-3.6-3-3.6-4.5-1.7-4.5-1.7-4 1.2-4 1.2-3 2.5-3 2.5-1.7 4.2-1.7 4.2.7 4 .7 4 2.6 3 2.6 3 3 2 3 2h3.8 3.8l2.8-1.4zm-121-65.3l4-3.7L86 223l1.2-4.4-.6-2.6-.6-2.6-2.4-3.7-2.4-3.7-5.5-2-5.5-2-4.6 1.7-4.6 1.7-3 3.7-3 3.7-.4 5.3-.4 5.3 2.4 3.5 2.4 3.5 3.4 2.3 3.4 2.3H71h5.8zm59.8 2l3.2-1.7 2-2.7 2-2.7.6-5 .6-5-1.7-3.7-1.7-3.7-3-2.5-3-2.5h-6.8-6.8l-4.2 4.2-4.2 4.2-.4 6.5-.4 6.5 5 5 5 5h5.3 5.3l3.2-1.7zm62.3.3l3-1.5 2.5-3.3 2.5-3.3V220l.2-5.6-2-3.3-2-3.3-2.8-2-2.8-2h-6.3-6.3l-3.6 2.7-3.6 2.7-1.8 4.6-1.8 4.6 1.2 4.6 1.2 4.6 3.2 2.8 3.2 2.8 1 1 1 1h5.3 5.3l3-1.5zm62.4-.1l3.2-1.6 2.3-3 2.3-3 .5-4 .5-4-.6-3.4-.6-3.4-3-3-3-3-3.7-1.2-3.7-1.2-4 .5-4 .5-2.6 2-2.6 2-2.2 3.3-2.2 3.3v4.7 4.7l2.3 3.4 2.3 3.4 3.4 2.3 3.4 2.3h4.5 4.5zM140 171l4-2 2-2.8 2-2.8 1.2-3.6 1.2-3.6-1.6-4.8-1.6-4.8-4-3-4-3h-6.3-6.3l-3 2.6-3 2.6-1.5 2.8-1.5 2.8v4.6 4.6l1.4 2.7 1.4 2.7 2.2 2 2.2 2 2.7 1.2 2.7 1.2 3.3.1h3.3l4-2zm64.5-1l3.3-2.3 1.6-2.7 1.6-2.7v-5.8-5.8l-2.2-3.2-2.2-3.2-2.7-1.6-2.7-1.6h-6-6l-4 3.6-4 3.6-1 3.8-1 3.8.7 3.7.7 3.7 3.6 4 3.6 4 3 1 3 1 3.8-.4 3.8-.4zm63.2-.4l3.3-2.5 1.5-3 1.5-3v-4.6-4.6l-1.5-3-1.5-3-3.3-2.6-3.3-2.6h-6-6l-3.6 2.4-3.6 2.4-1.6 3.5-1.6 3.5v3.8 3.8l2.2 4 2.2 4 4.5 2.3 4.5 2.3 4.4-.6 4.4-.6zm-265-15.7l-.4-2.3v4 4l.5-1.7.5-1.7-.4-2.3zm1-18l-.4-5.3v10 10l.4-4.7.4-4.7-.4-5.3zm127-40.5L129 95l-2.3.4-2.3.4h4 4l-1.7-.5zm195.2.2V95h-.5-.5v.5.5h.5.5zm-265-39V56h-.5-.5v.5.5h.5.5zm184-4V52h-.5-.5v.5.5h.5.5zm6-19V32h-1-1v1.5V35h1 1zm-194-8V25h.5.5v.5.5h-.5-.5zM268.4 22l-.6-1h1 1l1.6-.6 1.6-.6v1 1l-2 .5-2 .5zM244 21v-1.3l.7.7.7.7-.7.7-.7.7zm24-2v-1h2.8 2.8l-2 1-2 1h-.7-.7zm2.3-3.4l.5-1.4-1-1-1-1 1-2 1-2h-1-1V6.8 5.6l1.2 1.2 1.2 1.2.2 2.8.2 2.8.8 1.8.8 1.8h-1.7-1.7zM55 15.5V15h.5.5v.5.5h-.5-.5zm188.6-1L243 13h1 1v1.5V16h-.4-.4zM56 11V9.7l.7.7.7.7-.7.7-.7.7zm26 .5V11h.5.5v.5.5h-.5-.5zm190 0V11h.5.5v.5.5h-.5-.5zm-188-1V10h.5.5v.5.5h-.5-.5zm-25-3V7h.5.5v.5.5h-.5-.5zm186.3-.2l.7-.7.7.7.7.7H246h-1.3zm-164.7-2L80 3.7 81.5 5 83 6.2v.4.4h-1-1zm168-1.4l.6-1h.5.5l-.6 1-.6 1h-.5-.5zm19.5.5V4h.5.5v.5.5h-.5-.5zm-207-1V3h.5.5v.5.5h-.5-.5zM77 3V1.7l.7.7.7.7-.7.7-.7.7zm-14-.5V2h.5.5v.5.5h-.5-.5zm202 0V2h.5.5v.5.5h-.5-.5zm-191-1V1h.5.5v.5.5h-.5-.5zm182.8-.2l1.3-.5 1.3.5 1.3.5H258h-2.5z" fill="#5babd2"/><path d="M122.3 351L10 350.5l-2.8-2-2.8-2-1.7-3.4-1.7-3.4.2-122 .2-122 .6 17 .6 17 .4-17 .4-17L4 111l.6 15.5.2-6.2.2-6.2h1.3 1.3l1.2-2.5L10 109V107v-1.8l2.3-.6 2.3-.6h3.3H21v-4-4l44.3-.3 44.3-.3-54.2-.2L1 95V65v-30l2-3.4 2-3.4 3.2-1.7 3.2-1.7 22.3-.5 22.3-.5.2 6 .2 6 .4-3.4.4-3.4 1.5-2 1.5-2-.7 2.8-.7 2.8h1 1v-1-1h4 4v-2-2h4 4v-1.5V21h1.4 1.4l1.2-3.5 1.2-3.5h1.4H85l.3 4.8.3 4.8h79.3H244l.2 8 .2 8 .4-5.8.4-5.8 2.4.6 2.4.6 2.5-.6 2.5-.6v-1.4V25l2-.6 2-.6h3.8 3.8 25 25l3.8 2.2 3.8 2.2 2 3.2 2 3.2V189v154.4l-2 3.2-2 3.2-3.3.6-3.3.6-41.5.2-41.5.2zm-43.5-54.7l2.7-1.7 1.5-2 1.5-2 1.3-2.4 1.3-2.4v-4.4-4.4l-1.5-3-1.5-3-3.6-2.7-3.6-2.7-5.7-.4-5.7-.4-3.5 2.4-3.5 2.4-2.3 3.4-2.3 3.4v5.5 5.5l2.7 4 2.7 4 3 1.3 3 1.3h5.3H76l2.7-1.7zm62.2.2l3-1.5 2.5-3.3 2.5-3.3.7-4.2.7-4.2-1.7-4.5-1.7-4.5-3.5-2.7-3.5-2.7-5.7-.4-5.7-.4-3.2 1.6-3.2 1.6-2.6 4-2.6 4 .4 7 .4 7 2 2.2 2 2.2 3 2 3 2h5.3 5.3l3-1.5zm62 .1l2.8-1.4 3-3.6 3-3.6V282v-5.8l-2.3-3.4-2.3-3.4-3.4-2.3-3.4-2.3h-5.2-5.2l-4 3-4 3-1.7 3.5-1.7 3.5v3.8 3.8l2 4 2 4 3.3 2.2 3.3 2.2h5.3 5.3zM79.7 233l3.2-2 2-4 2-4v-4.6-4.6l-2.6-4-2.6-4-4.2-2-4.2-2h-3-3l-4 1.8-4 1.8-2.4 2.6-2.4 2.6-.4 6-.4 6 1.2 3 1.2 3 2.8 2.5 2.8 2.5 1.4.6 1.4.6 6 .1h6l3.2-2zm62.2.4l2.7-1.6 2.4-3.5 2.4-3.5v-5l.1-5-1.3-3-1.3-3-4.2-3-4.2-3h-6.3-6.3l-4.4 4.7-4.4 4.7v6.6 6.6l1.2 2.2 1.2 2.2 1 1 1 1 2.5 1.7 2.5 1.7h6.4 6.4l2.7-1.6zm64-1l3.3-2.7 1.4-2.7 1.4-2.7v-5.3-5.3l-2.5-3.6-2.5-3.6-4.4-2-4.4-2h-2.7-2.7l-3.7 1.5-3.7 1.5-2.3 2.2-2.3 2.2-1.5 5-1.5 5 1.6 4.4 1.6 4.4 2.2 2.4 2.2 2.4 2 .8 2 .8h6.6 6.6l3.3-2.7zm62.6-.4l3.6-3 1.4-2.8 1.4-2.8v-4-4l-1.6-3-1.6-3-2-2-2-2-3.6-1.5-3.6-1.5h-3-3l-3.2 1.6-3.2 1.6-2 1.6-2 1.6-2 3.7-2 3.7v3 3l1.5 3.5 1.5 3.5 3.8 3 3.8 3h6.7 6.7l3.6-3zm-126.3-61.4l4-2.6 2-4.2 2-4.2V156v-3.5l-2.2-4-2.2-4-3.4-2.3-3.4-2.3h-5.4-5.4l-2.8 1.5-2.8 1.5-2.6 3-2.6 3v7.4 7.4l3.3 3.5 3.3 3.5 4 1.5 4 1.5 3.4-.5 3.4-.5 4-2.6zm58.3 2l4-1.4 3.8-4.2 3.8-4.2V157v-5.8l-1.6-2.8-1.6-2.8-3.5-2.7-3.5-2.7h-6-6l-2.2 1.3-2.2 1.3-2.6 3-2.6 3-1 4.3-1 4.3 1 3.8 1 3.8 2.4 2.8 2.4 2.8 4.3 2 4.3 2h1.5 1.5l4-1.4zm62.5-.1l4.2-1.5 2.4-2.3 2.4-2.3 1.5-3.4 1.5-3.4V156v-3.8l-1.5-3-1.5-3-3.8-3.2-3.8-3.2h-6-6l-2.8 1.8-2.8 1.8-1.8 2-1.8 2-1.3 3.3-1.3 3.3.5 4 .5 4 2.7 4 2.7 4 4.2 2 4.2 2h1.6 1.6l4.2-1.5zM2.7 153.8l-.4-2.3v4 4l.5-1.7.5-1.7-.4-2.3zm1-18l-.4-5.3v10 10l.4-4.7.4-4.7-.4-5.3zm127-40.5L129 95l-2.3.4-2.3.4h4 4l-1.7-.5zm195.2.2V95h-.5-.5v.5.5h.5.5zm-265-39V56h-.5-.5v.5.5h.5.5zm184-4V52h-.5-.5v.5.5h.5.5zm6-19V32h-1-1v1.5V35h1 1zm-194-8V25h.5.5v.5.5h-.5-.5zM268.4 22l-.6-1h1 1l1.6-.6 1.6-.6v1 1l-2 .5-2 .5zM56.2 19.5v-3l.5 1.8.5 1.8-.5 1.2-.5 1.2v-3zM244 21v-1.3l.7.7.7.7-.7.7-.7.7zm24-2v-1h2.8 2.8l-2 1-2 1h-.7-.7zm2.3-3.4l.5-1.4-1-1-1-1 .7-1.8.7-1.8 1.3 3.8 1.3 3.8v.3.3h-1.6-1.6zM244 14.4l.1-2 .5 1.3.5 1.3-.6.6-.6.6v-2zm-162-3V11h.5.5v.5.5h-.5-.5zm-23-4V7h.5.5v.5.5h-.5-.5zm187 0V7h.5.5v.5.5h-.5-.5zm23 0V7h.5.5v.5.5h-.5-.5zm-188-1V6h.5.5v.5.5h-.5-.5zm-4-3V3h.5.5v.5.5h-.5-.5zm179.8-2.2l1.3-.5 1.3.5 1.3.5H258h-2.5z" fill="#32b8eb"/><path d="M122.3 351L10 350.5l-2.8-2-2.8-2-1.7-3.4-1.7-3.4.2-122 .2-122 .6 64.7.6 64.7.8.7.8.7v-9.2-9.2h1 1v8 8h3.5H13v-8-8h4 4v-1-1h3 3v-3-3h1 1v-4-4h3 3l1.5-1.5L38 189h2.4H43v-2.5-2.5h2 2v-4-4h15 15v-4-4h4 4v-8-8h3 3v-4-4h-3-3l.3-3.7.3-3.7 7.5-.5 7.5-.5.3-2.7.3-2.7h2.5 2.5l2.5-2.5 2.5-2.5v-1.8-1.8l3.8-1.4 3.8-1.4 11.3-.4 11.3-.4v1 1h8 8v1.5 1.5h3.5 3.5v-1.5-1.5h-3.5-3.5v-3-3h4 4v-1-1h8 8v-1-1h12 12v-5-5h-19-19v-2-2l27.3-.2 27.3-.2-34-.8-34-.8-76.3.2-76.3.2v-30-30l2-3.4 2-3.4 4-2 4-2h21 21l.6 6.8.6 6.8v6.3V50l2 4 2 4 2 1.5 2 1.5 2.2-.6 2.2-.6-2-.4-2-.4-1.7-1.6-1.7-1.6v-2.8V50h3 3v1 1h-1-1v1.5V55h1.4 1.4l.7-4.5.7-4.5h2.4H74v-1-1h1.5H77v-2-2h3 3v1 1l-1.2.4-1.2.4 2.2.6 2.2.6V33.7 23.5h79.3 79.3v14.2V52l1 1 1 1-.4-4-.4-4h2 2v2 2h1 1v-1-1h2 2v-2-2h3 3l.7-3.5.7-3.5h3.6 3.6l-1.2-1.4-1.2-1.4 2.5.1 2.5.1-.5 2.8-.5 2.8h1 1v-8-8l-1-.3-1-.3 22.7.3 22.7.3 3.8 2.2 3.8 2.2 2 3.2 2 3.2V189v154.4l-2 3.2-2 3.2-3.3.6-3.3.6-41.5.2-41.5.2zM4 336.5v-.5h-.5H3v.5.5h.5.5zm74.8-40.2l2.7-1.7 1.5-2 1.5-2 1.3-2.4 1.3-2.4v-4.4-4.4l-1.5-3-1.5-3-3.6-2.7-3.6-2.7-5.7-.4-5.7-.4-3.5 2.4-3.5 2.4-2.3 3.4-2.3 3.4v5.5 5.5l2.7 4 2.7 4 3 1.3 3 1.3h5.3H76l2.7-1.7zm62.2.2l3-1.5 2.5-3.3 2.5-3.3.7-4.2.7-4.2-1.7-4.5-1.7-4.5-3.5-2.7-3.5-2.7-5.7-.4-5.7-.4-3.2 1.6-3.2 1.6-2.6 4-2.6 4 .4 7 .4 7 2 2.2 2 2.2 3 2 3 2h5.3 5.3l3-1.5zm62 .1l2.8-1.4 3-3.6 3-3.6V282v-5.8l-2.3-3.4-2.3-3.4-3.4-2.3-3.4-2.3h-5.2-5.2l-4 3-4 3-1.7 3.5-1.7 3.5v3.8 3.8l2 4 2 4 3.3 2.2 3.3 2.2h5.3 5.3zM3.7 266.8l-.5-1.2v2.5 2.5l.5-1.2.5-1.2zm-1-9.5l-.4-2.7v5.5 5.5l.4-2.7.4-2.7zm323.3-.7v-.5h-.5-.5v.5.5h.5.5zM3.7 244.3l-.5-1.8v3 3l.5-1.2.5-1.2-.5-1.8zm-1-10l-.4-2.8v5 5l.4-2.2.4-2.2zm76.3-.8l3-1.5 2.5-4 2.5-4v-5-5l-2.6-4-2.6-4-4.2-2-4.2-2h-3-3l-4 1.8-4 1.8-2.4 2.6-2.4 2.6-.4 6-.4 6 1.2 3 1.2 3 2.8 2.5 2.8 2.5 1.4.6 1.4.6 5.8.1H76l3-1.5zm62.8-.1l2.7-1.6 2.4-3.5 2.4-3.5v-5l.1-5-1.3-3-1.3-3-4.2-3-4.2-3h-6.3-6.3l-4.4 4.7-4.4 4.7v6.6 6.6l1.2 2.2 1.2 2.2 1 1 1 1 2.5 1.7 2.5 1.7h6.4 6.4l2.7-1.6zm64-1l3.3-2.7 1.4-2.7 1.4-2.7v-5.3-5.3l-2.5-3.6-2.5-3.6-4.4-2-4.4-2h-2.7-2.7l-3.7 1.5-3.7 1.5-2.3 2.2-2.3 2.2-1.5 5-1.5 5 1.6 4.4 1.6 4.4 2.2 2.4 2.2 2.4 2 .8 2 .8h6.6 6.6l3.3-2.7zm62.6-.4l3.6-3 1.4-2.8 1.4-2.8v-4-4l-1.6-3-1.6-3-2-2-2-2-3.6-1.5-3.6-1.5h-3-3l-3.2 1.6-3.2 1.6-2 1.6-2 1.6-2 3.7-2 3.7v3 3l1.5 3.5 1.5 3.5 3.8 3 3.8 3h6.7 6.7l3.6-3zM118 200.5v-.5h-.5-.5v.5.5h.5.5zm24.2-30l4-2.6 2-4.2 2-4.2V156v-3.5l-2.2-4-2.2-4-3.4-2.3-3.4-2.3h-5.4-5.4l-2.8 1.5-2.8 1.5-2.6 3-2.6 3v7.4 7.4l3.3 3.5 3.3 3.5 4 1.5 4 1.5 3.4-.5 3.4-.5 4-2.6zm58.3 2l4-1.4 3.8-4.2 3.8-4.2V157v-5.8l-1.6-2.8-1.6-2.8-3.5-2.7-3.5-2.7h-6-6l-2.2 1.3-2.2 1.3-2.6 3-2.6 3-1 4.3-1 4.3 1 3.8 1 3.8 2.4 2.8 2.4 2.8 4.3 2 4.3 2h1.5 1.5l4-1.4zm62.5-.1l4.2-1.5 2.4-2.3 2.4-2.3 1.5-3.4 1.5-3.4V156v-3.8l-1.5-3-1.5-3-3.8-3.2-3.8-3.2h-6-6l-2.8 1.8-2.8 1.8-1.8 2-1.8 2-1.3 3.3-1.3 3.3.5 4 .5 4 2.7 4 2.7 4 4.2 2 4.2 2h1.6 1.6l4.2-1.5zm62.7-35.7l-.4-2.3v4 4l.5-1.7.5-1.7-.4-2.3zm-196.7-.3v-.5h-.5-.5v.5.5h.5.5zm196.7-35.2l-.4-6.8v13 13l.4-6.2.4-6.2-.4-6.8zm-76-5L246 96l-3.2.4-3.2.4h7 7l-3.8-.4zm-13.5-1l-1.2-.5-1.8.5-1.8.5h3 3l-1.2-.5zm54.5 0L289 95l-2.3.4-2.3.4h4 4l-1.7-.5zM250 58l-1-2-.6.6-.6.6 1.3 1.5 1.3 1.5h.4.4zm-172 .6V58h-.5-.5v.5.5h.5.5zm2-2V56h-.5-.5v.5.5h.5.5zm189.7-2.2l-.7-.7V55v1.3l.7-.7.7-.7zm-186-3l-.7-.7V52v1.3l.7-.7.7-.7zm188 0l-.7-.7-.7.7-.7.7h1.3 1.3zm-2.7-2.8V48h-.5-.5v.5.5h.5.5zM4.2 196.5v-3l.5 1.8.5 1.8-.5 1.2-.5 1.2v-3zm32.8-10V185h2 2v1.5 1.5h-2-2zM269.3 21.3l.7-.7.7.7.7.7H270h-1.3zM56 20.5V20h.5.5v.5.5h-.5-.5zm216 0V20h.5.5v.5.5h-.5-.5zm-3-2V18h.5.5v.5.5h-.5-.5zm2.3-.2l.7-.7.7.7.7.7H272h-1.3zM269 7.5V7h.5.5v.5.5h-.5-.5z" fill="#2db2e7"/><path d="M122.5 351l-112-.5-2.7-1.8L5 347l.5-1 .5-1-.6-1.5-.6-1.5-1.3.5-1.3.5-.6-2.3-.6-2.3V273v-65.4l.4.4.4.4.3 56.5.3 56.5.6-5.5.6-5.5.5 4.5.5 4.5-.3-10-.3-10 1-6 1-6 .1 15.3V318h7 7v-7-7h-3.5H13v-8-8h7 7v-4-4h1 1v-8-8l3.4-.6 3.4-.6.7-4.4.7-4.4h3 3v-7-7h-1-1v-12-12h2 2v-2-2h-1-1v-2-2h1 1v-2-2l2-.6 2-.6-1-2-1-2v-1-1l3.5-1.4L54 194h2.5H59v-1-1h2 2v-1-1h6.8 6.8l1.4 2 1.4 2h1.4H82l1.4 1.4L85 197v1 1h1 1l1.5-1.5L90 196h5.4 5.4v-1-1h3 3v-1-1h2 2l.5-1.3.5-1.3-.5-2.7-.5-2.7h1 1v-1.6-1.6l-2-1.6-2-1.6-.5-8.3-.5-8.3-1-.7-1-.7-.6-2.7-.6-2.7.6-3 .6-3h1.4 1.4v-1-1h1.3 1.3l1.3-4.3 1.3-4.3 2-1.4 2-1.4v-1.3-1.3l8.3.3 8.3.3 2.2-.8 2.2-.8 1.8 2 1.8 2h2.3 2.3l4 1.2 4 1.2v1.3 1.3h1 1v-1.5-1.5h8.4 8.4l3-.6 3-.6v-1-1l1-3.7 1-3.7h1.5 1.5v1 1h2 2v-1.5-1.5h4 4v1.5 1.5h2 2v-1.5-1.5h1 1v1.5 1.5h3.6 3.6l1.7 2 1.7 2 2.4-.1 2.4-.1 2.3.1h2.2v1.5 1.5h2.5 2.5v-1-1l1.4-1.4 1.4-1.4h2 2v-1-1h2 2v-2-2l5 .7 5 .7v-1-1l5.4.6 5.4.6 8.6-.7 8.6-.7v-1.4-1.4h8 8v4 4h-1-1v3.5 3.5h1 1v-3.5-3.5h12 12v-4-4h4 4v4 4h-4-4v2 2h-2-2l-.5 2-.5 2h-6.6-6.6v2 2h3 3v1 1h10 10l.3 40.3.3 40.3v-64-64H163.3 1v-30-30l2-3.4 2-3.4 4-2 4-2h21 21l.4 14 .4 14 2 2.7 2 2.7 2.4 1.8 2.4 1.8 3 .5 3 .5 3.5-1 3.5-1 2-1.7 2-1.7 1.6-2.5 1.6-2.5v-14l.2-14 78.8.3 78.8.3v12.2 12.2l1 3 1 3 2 2 2 2 2 1 2 1h4.5 4.5l-.5-2-.5-2h1.5 1.5l.4 1 .4 1 2.3-.7 2.3-.7 1.7-3.6 1.7-3.6-1.2-.4-1.2-.4v-1-1l1.5.6 1.5.6V36.5 24h21.8 21.8l3.8 2.3 3.8 2.3 2 3 2 3V189v154.5l-2 3.2-2 3.2-3.3.6-3.3.6-41.5.2-41.5.2zm-87.7-1.7L33 349l-2.3.4-2.3.4h4 4l-1.7-.5zm-11.5-1L19 348l-4.2.4-4.2.4H19h8.5zm5-2L25 346l-3.2.4-3.2.4H25h6.5zm50.5 0L64 346l-14.7.3-14.7.3H64h29.5zM4 330.3l-.1-7.7-.3 1-.3 1-.5 6.8-.5 6.8h1 1v-7.7zm75-34l2.7-1.7 1.5-2 1.5-2 1.3-2.4 1.3-2.4v-4.4-4.4l-1.5-3-1.5-3-3.6-2.7-3.6-2.7-5.7-.4-5.7-.4-3.5 2.4-3.5 2.4-2.3 3.4-2.3 3.4v5.5 5.5l2.7 4 2.7 4 3 1.3 3 1.3h5.3H76l2.7-1.7zm62.2.2l3-1.5 2.5-3.3 2.5-3.3.7-4.2.7-4.2-1.7-4.5-1.7-4.5-3.5-2.7-3.5-2.7-5.7-.4-5.7-.4-3.2 1.6-3.2 1.6-2.6 4-2.6 4 .4 7 .4 7 2 2.2 2 2.2 3 2 3 2h5.3 5.3l3-1.5zm62 .1l2.8-1.4 3-3.6 3-3.6V282v-5.8l-2.3-3.4-2.3-3.4-3.4-2.3-3.4-2.3h-5.2-5.2l-4 3-4 3-1.7 3.5-1.7 3.5v3.8 3.8l2 4 2 4 3.3 2.2 3.3 2.2h5.3 5.3zm30.8-33.8l-.5-1.2v2.5 2.5l.5-1.2.5-1.2zm9-6.4l-.7-.7-.7.7-.7.7h1.3 1.3l-.7-.7zm83-12.6l-.4-4.2v9 9l.4-4.8.4-4.8-.4-4.2zM79 233.5l3-1.5 2.5-4 2.5-4v-5-5l-2.6-4-2.6-4-4.2-2-4.2-2h-3-3l-4 1.8-4 1.8-2.4 2.6-2.4 2.6-.4 6-.4 6 1.2 3 1.2 3 2.8 2.5 2.8 2.5 1.4.6 1.4.6 5.8.1H76l3-1.5zm62.8-.1l2.7-1.6 2.4-3.5 2.4-3.5v-5l.1-5-1.3-3-1.3-3-4.2-3-4.2-3h-6.3-6.3l-4.4 4.7-4.4 4.7v6.6 6.6l1.2 2.2 1.2 2.2 1 1 1 1 2.5 1.7 2.5 1.7h6.4 6.4l2.7-1.6zm64-1l3.3-2.7 1.4-2.7 1.4-2.7v-5.3-5.3l-2.5-3.6-2.5-3.6-4.4-2-4.4-2h-2.7-2.7l-3.7 1.5-3.7 1.5-2.3 2.2-2.3 2.2-1.5 5-1.5 5 1.6 4.4 1.6 4.4 2.2 2.4 2.2 2.4 2 .8 2 .8h6.6 6.6l3.3-2.7zm62.6-.4l3.6-3 1.4-2.8 1.4-2.8v-4-4l-1.6-3-1.6-3-2-2-2-2-3.6-1.5-3.6-1.5h-3-3l-3.2 1.6-3.2 1.6-2 1.6-2 1.6-2 3.7-2 3.7v3 3l1.5 3.5 1.5 3.5 3.8 3 3.8 3h6.7 6.7l3.6-3zm-90.5-7.4v-.5h-.5-.5v.5.5h.5.5zm64-16v-.5h-.5-.5v.5.5h.5.5zm-176.3-8.2l-.7-.7-.7.7-.7.7H65h1.3zm52.3.2v-.5h-.5-.5v.5.5h.5.5zm29 0v-.5h-.5-.5v.5.5h.5.5zm-29-25v-.5h-.5-.5v.5.5h.5.5zm1.7-2.2l-.7-.7v1.3 1.3l.7-.7.7-.7zm22.6-3l4-2.6 2-4.2 2-4.2V156v-3.5l-2.2-4-2.2-4-3.4-2.3-3.4-2.3h-5.4-5.4l-2.8 1.5-2.8 1.5-2.6 3-2.6 3v7.4 7.4l3.3 3.5 3.3 3.5 4 1.5 4 1.5 3.4-.5 3.4-.5 4-2.6zm58.3 2l4-1.4 3.8-4.2 3.8-4.2V157v-5.8l-1.6-2.8-1.6-2.8-3.5-2.7-3.5-2.7h-6-6l-2.2 1.3-2.2 1.3-2.6 3-2.6 3-1 4.3-1 4.3 1 3.8 1 3.8 2.4 2.8 2.4 2.8 4.3 2 4.3 2h1.5 1.5l4-1.4zm62.5-.1l4.2-1.5 2.4-2.3 2.4-2.3 1.5-3.4 1.5-3.4V156v-3.8l-1.5-3-1.5-3-3.8-3.2-3.8-3.2h-6-6l-2.8 1.8-2.8 1.8-1.7 2-1.7 2-1.4 2.7-1.4 2.7.5 4.6.5 4.6 2.7 4 2.7 4 4.2 2 4.2 2h1.6 1.6l4.2-1.5zm-145.3-1.2l-.7-.7v1.3 1.3l.7-.7.7-.7zM156 153v-1h-1-1v1 1h1 1zm19.5-5l.6-1h-1-1v1 1h.4.4zm72.5-7.5v-.5h-.5-.5v.5.5h.5.5zm-128.4-2l1.4-1.4v-1-1h-1-1v1.5 1.5h-1.5-1.5v1 1h1 1zm130.4-.1v-.5h-.5-.5v.5.5h.5.5zm-121.3-2.2l-.7-.7-.7.7-.7.7h1.3 1.3zM3.3 344.3l.7-.7.7.7.7.7H4 2.7zm0-51.8v-5l.4 2.8.4 2.8-.4 2.2-.4 2.2zM269 52v-1.3l.7.7.7.7-.7.7-.7.7z" fill="#26a8e3"/><path d="M123 351l-111.5-.5 100-.3 100-.3 9-.7 9-.7-96-.4-96-.4 96-.5 96-.5-49-.5-49-.5 20.5-.5 20.5-.5.3-15.2.3-15.2h-10-10v1.6 1.6l-1.4 1.4-1.4 1.4h-8.6-8.6v-2-2h-2-2v2 2h-2-2v-2-2h-2-2v2 2h-1-1v-2-2h-1-1l-.6-2-.6-2h-4.4-4.4v-1-1h-4-4v-1-1h-5-5v1 1h-2-2v1 1h-2-2v3 3h-9-9v-2-2h-1-1v-2-2h-3.5H54v-3-3h-2.5H49v-1.6-1.6l-1.2-1.4-1.2-1.4-1.2-1.5L44 295v-1.4-1.4l1.6-.6 1.6-.6-1.5-1.5L44 288h-1.6H41v-2.7-2.7l1-7 1-7 1-.3 1-.3V265v-2.8l4-4 4-4 .5 1.2.5 1.2.1-7.2V242l-1.5-1.5L51 239v-1.6-1.6h-1.5H48v-4-4h-1-1v-2-2l1-.3 1-.3.5-10 .5-10 .1-.4v-.4l1.5.6 1.5.6 1.5-.6 1.5-.6v-2.4-2.4h-1-1v1.3 1.3l-1-1.5-1-1.5v2.5 2.5l-1-1.8-1-1.8.6-1.4.6-1.4h6.5H63v-1-1h7 7v1 1h1.5H80l.5 1.4.5 1.4 2.7.5 2.7.5 2.4 2 2.4 2h2.8H97v2 2h4 4v-1-1h2 2v-2-2h1 1l1-1.5 1-1.5 2.5-.4 2.5-.4 1.3-4.2 1.3-4.2h1 1v-1-1h-2-2v-2-2l1-.4 1-.4-.7-1.7-.7-1.7h-1.5-1.5l.5-2.5.5-2.5-3.4-.6-3.4-.6v-.1-.1l-1.4-9-1.4-9v-2-2l1 1.5 1 1.5v-2-2l1.5-.6 1.5-.6v-.8l-.2-.8.7-1.7.7-1.7.4-1.4.4-1.4 5.5-2.7 5.5-2.7 1 .7 1 .7 1.4-1.2 1.4-1.2 3.7 1 3.7 1 .7-.5.7-.5 2.7 1.4 2.7 1.4 1.4-1.4 1.4-1.4 1.5.6 1.5.6v1.4 1.4h1.6 1.6l1.6 1.6 1.6 1.6-1.4 1-1.4 1 1 .8 1 .8.4-1.2.4-1.2h2 2v2 2h4 4v-2-2l2 .6 2 .6 1.4-1.4 1.4-1.4v-1-1h1 1v-1.4-1.4l1.4-.6 1.4-.6.3 1 .3 1 3.8-1.2 3.8-1.2v-1.3-1.3h2.6 2.6l1.7 1.7 1.7 1.7-3-.7-3-.7 1.8 1 1.8 1 2.7-.8 2.7-.8 6 .3 6 .3.3 1 .3 1h2 2v1 1h4 4v1.8l-.2 1.8.1 3.8v3.8h1 1v-3-3l1.4-1.4 1.4-1.4h1.6 1.6v-1-1h2 2v-1-1h2 2v-1-1h-1-1v-1-1h3 3v1.8l.1 1.8.5-1.2.5-1.2 3.4.6 3.4.6v-1.6-1.6l2.6-.6 2.6-.6 7.8.5 7.8.5 1.7 1.7 1.7 1.7h2 2v2 2h2 2v4.4 4.4l1 .3 1 .3.3 10.5.3 10.5.8 6.8.8 6.8h-2-2v3 3h2 2v13 13h2 2v2 2h-1-1v2 2h2 2v8 8h-1-1v4 4h4 4v4 4l-1.2.5-1.2.5 13.7.1H326l.3-81 .3-81-2-.5-2-.5-160.8.3L1 94.5v-30-30l2-3.4 2-3.4 4-2 4-2h21 21v13 13l1.5 3.5 1.5 3.5 3.3 2.3 3.3 2.3h5.7H76l2.8-2 2.8-2 2-2.8 2-2.8V37.7 23.5l78.8.3 78.8.3v12.2 12.2l1 3.4 1 3.4 1.8 1.7 1.8 1.7L251 60l2.4 1.3 4.3-.2h4.3l3.8-2 3.8-2 1.6-4 1.6-4V36.5 24h21.8 21.8l3.8 2.3 3.8 2.3 2 3 2 3V189v154.5l-2 3.2-2 3.2-3.3.6-3.3.6-41.5.2-41.5.2zm107.7-2.7l-.7-.7v1.3 1.3l.7-.7.7-.7zm3.3-.3v-2h-.8-.8l-.2 2-.2 2h1 1zm-3-1.5v-.5h-.5-.5v.5.5h.5.5zm-.3-9.7l-.4-3.3v6 6l.4-2.7.4-2.7-.4-3.3zm3-.5l-.1-8.7-.3 2.5-.3 2.5-.3 6.3-.3 6.3h.8.8v-8.7zm-.2-21l-.5-1.7v3.5 3.5l.5-1.7.5-1.7zM78 299.5v-.5h-.5-.5v.5.5h.5.5zm48 0v-.5h-.5-.5v.5.5h.5.5zm-47.2-3.2l2.7-1.7 1.5-2 1.5-2 1.3-2.4 1.3-2.4v-4.4-4.4l-1.5-3-1.5-3-3.6-2.7-3.6-2.7-5.7-.4-5.7-.4-3.5 2.4-3.5 2.4-2.3 3.4-2.3 3.4v5.5 5.5l2.7 4 2.7 4 3 1.3 3 1.3h5.3H76l2.7-1.7zm62.2.2l3-1.5 2.5-3.3 2.5-3.3.7-4.2.7-4.2-1.7-4.5-1.7-4.5-3.5-2.7-3.5-2.7-5.7-.4-5.7-.4-3.2 1.6-3.2 1.6-2.6 4-2.6 4 .4 7 .4 7 2 2.2 2 2.2 3 2 3 2h5.3 5.3l3-1.5zm62 .1l2.8-1.4 3-3.6 3-3.6V282v-5.8l-2.3-3.4-2.3-3.4-3.4-2.3-3.4-2.3h-5.2-5.2l-4 3-4 3-1.7 3.5-1.7 3.5v3.8 3.8l2 4 2 4 3.3 2.2 3.3 2.2h5.3 5.3zm33.3-36l1.7-1.7 3-1 3-1h23.7 23.7l.5-.5.5-.5h-23.7H245v-2-2h-10-10v8 8h2 2v2 2h1 1l-.6 4-.6 4h1.6 1.6l.2 8.3.2 8.3.6-17 .6-17 1.7-1.7zm.8-4.5v-1l2 .5 2 .5v.4.4h-2-2zm-116 10.4v-.5h-.5-.5v.5.5h.5.5zm-10.6-3.5l2-.7-1.6-1.6-1.6-1.6v-1-1l1.7-1.7 1.7-1.7.4 1.2.4 1.2h1.4 1.4v-6-6h-3.5-3.5v-4-4h-6-6l-.3 3.7-.3 3.7-1.7.3-1.7.3v-2-2l-1.7.3-1.7.3-.3 6.3-.3 6.3 2 1.8 2 1.8v1.6 1.6h2 2v2 2l1.3.4 1.3.4 4.5-.5 4.5-.5zm53.6-15v-6h-3.5-3.5v3 3h1 1v3 3h2.5 2.5zm-80-8.5v-.5h-.5-.5v.5.5h.5.5zm-5-6l3-1.5 2.5-4 2.5-4v-5-5l-2.6-4-2.6-4-4.2-2-4.2-2h-3-3l-4 1.8-4 1.8-2.4 2.6-2.4 2.6-.4 6-.4 6 1.2 3 1.2 3 2.8 2.5 2.8 2.5 1.4.6 1.4.6 5.8.1H76l3-1.5zm62.8-.1l2.7-1.6 2.4-3.5 2.4-3.5v-5l.1-5-1.3-3-1.3-3-4.2-3-4.2-3h-6.3-6.3l-4.4 4.7-4.4 4.7v6.6 6.6l1.2 2.2 1.2 2.2 1 1 1 1 2.5 1.7 2.5 1.7h6.4 6.4l2.7-1.6zm64-1l3.3-2.7 1.4-2.7 1.4-2.7v-5.3-5.3l-2.5-3.6-2.5-3.6-4.4-2-4.4-2h-2.7-2.7l-3.7 1.5-3.7 1.5-2.3 2.2-2.3 2.2-1.5 5-1.5 5 1.6 4.4 1.6 4.4 2.2 2.4 2.2 2.4 2 .8 2 .8h6.6 6.6l3.3-2.7zm62.6-.4l3.6-3 1.4-2.8 1.4-2.8v-4-4l-1.6-3-1.6-3-2-2-2-2-3.6-1.5-3.6-1.5h-3-3l-3.2 1.6-3.2 1.6-2 1.6-2 1.6-2 3.7-2 3.7v3 3l1.5 3.5 1.5 3.5 3.8 3 3.8 3h6.7 6.7l3.6-3zm-90.5-7.4v-.5h-.5-.5v.5.5h.5.5zm-127.3-5.7l-.5-1.3-.1 2v2l.6-.6.6-.6zM242 208.5v-.5h-.5-.5v.5.5h.5.5zm-157.8-5.7l-1-1 .6 2.4.6 2.4.4-1.3.4-1.3zm36.8 1.7v-.5h-.5-.5v.5.5h.5.5zm25-1v-.5h-.5-.5v.5.5h.5.5zm22-1v-1.4l1.6-.6 1.6-.6h2.3 2.3l.6-2.8.6-2.8 2-2.3 2-2.3.5 1.3.5 1.3.1-4.2V184h-1.4-1.4l-.6-1.6-.6-1.6v-2.4-2.4h-2.5-2.5v-2-2h-7.5-7.5l-4.5 4.5-4.5 4.5v1.5 1.5h-2-2v2 2h2 2v3.4 3.4l2 .6 2 .6v2 2h3.4 3.4l1.6.6 1.6.6v1.4 1.4h2.5 2.5zM61 201v-1h-1-1v1 1h1 1zm87 0v-1h-1-1l.6 1 .6 1h.4.4zm-82.3-.7l-.7-.7-.7.7-.7.7H65h1.3zM80 200v-1l-1.5.6-1.5.6v.4.4h1.5H80zm38 .5v-.5h-.5-.5v.5.5h.5.5zm71.7-.2l-.7-.7-.7.7-.7.7h1.3 1.3zm12.3.2v-.5h-.5-.5v.5.5h.5.5zm19-6.5v-2h7 7l-.3-6.7-.3-6.7-2.2-.3-2.2-.3v-1-1h-5.5-5.5v1 1h-3-3v1 1h1 1v6 6h1 1v1.4 1.4l1.3.5 1.3.5.8.1h.8v-2zm-8-19v-1h-1.5-1.5v1 1h1.5 1.5zm-93.3-1.7l-.7-.7v1.3 1.3l.7-.7.7-.7zm22.6-3l4-2.6 2-4.2 2-4.2V156v-3.5l-2.2-4-2.2-4-3.4-2.3-3.4-2.3h-5.4-5.4l-2.8 1.5-2.8 1.5-2.6 3-2.6 3v7.4 7.4l3.3 3.5 3.3 3.5 4 1.5 4 1.5 3.4-.5 3.4-.5 4-2.6zm58.3 2l4-1.4 3.8-4.2 3.8-4.2V157v-5.8l-1.6-2.8-1.6-2.8-3.5-2.7-3.5-2.7h-6-6l-2.2 1.3-2.2 1.3-2.6 3-2.6 3-1 4.3-1 4.3 1 3.8 1 3.8 2.4 2.8 2.4 2.8 4.3 2 4.3 2h1.5 1.5l4-1.4zm62.5-.1l4.2-1.5 2.4-2.3 2.4-2.3 1.5-3.4 1.5-3.4V156v-3.8l-1.5-3-1.5-3-3.8-3.2-3.8-3.2h-6-6l-2.8 1.8-2.8 1.8-1.7 2-1.7 2-1.4 2.7-1.4 2.7.5 4.6.5 4.6 2.7 4 2.7 4 4.2 2 4.2 2h1.6 1.6l4.2-1.5zm-145-.5v-1h-.4-.4l-.6 1-.6 1h1 1zm60.7-5.7l-.7-.7v1.3 1.3l.7-.7.7-.7zM175 161v-3h-1-1v2 2l-1-.2-1-.2-.5 1.3-.5 1.3h2.6 2.6zm-19-8.6V151l-1 .6-1 .6v1 1h1 1zm19.5-5.3l-.5-.5-1.5 2-1.5 2v1 1l2-2.4 2-2.4-.5-.5zm62.5.3v-.5h-.5-.5v.5.5h.5.5zm-55.6-6l.6-1.5h-1-1v1.5 1.5h.4.4zm65.6-1v-.5h-.5-.5v.5.5h.5.5zm3-2v-.4l-1-.6-1-.6v1 1h1 1zM7 348l-2.4-2 1.2.6 1.2.6 2-1 2-1 .6.6.6.6-1.3.8-1.3.8.7 1 .7 1h-1-1zm-3.5-3.6l.7-.7.7.7.7.7H4 2.7zm-1.8-4.6l-.6-3.2.3-31.5.3-31.5.2 33.3L2 340h1 1v1.5 1.5H3 2zM4 337v-1.3l.7.7.7.7-.7.7-.7.7zm-2.8-78v-3.5l.5 1.8.5 1.8-.5 1.8-.5 1.8zm0-24.5v-4l.4 2.3.4 2.3-.5 1.7-.5 1.7v-4zm0-9v-4l.4 2.3.4 2.3-.5 1.7-.5 1.7v-4zm180.7-90v-.5h.5.5v.5.5h-.5-.5zm87-84V51h.5.5v.5.5h-.5-.5z" fill="#26a4db"/><path d="M192.5 351l-43-.5 40.8-.2 40.8-.2v-2.2l-.1-2.2-.5 1.3-.5 1.3-28.2-.2-28.2-.2 27.3-.3 27.3-.3 1.5-1.5 1.5-1.5.8.5.8.5-.5 2.5-.5 2.5h1 1v-43-43l2.8-3 2.8-3 42.7-.2 42.7-.2.5-.5.5-.5.2-73.4.2-73.4.7 20 .7 20 .1 97v97l-2 3.2-2 3.2-3.3.6-3.3.6-41 .2-41 .2-43-.5zm-149.7-.7L73 350l30.3.3 30.3.3H73 12.5zM8 348.5v-.5h.5.5v.5.5h-.5H8zm-4-4v-.5h.5.5v.5.5h-.5H4zm225.3-4.5v-4.5l.4 2.3.4 2.3-.4 2.3-.4 2.3zm-228-2v-2.5l.5 1.3.5 1.3-.5 1.3-.5 1.3zM197 311v-1h-8-8v-1-1h-4-4v-2-2h2 2v-.5-.5l-3.5-3.5-3.5-3.5v-1-1h-4.5-4.5v1 1h-3-3v2 2h1 1v1 1h-2-2v1 1h-4-4v1 1l-5.7.6-5.7.6-1-1.5-1-1.5h-7.2-7.2v-1-1h-1.7-1.7l1.2-1.2 1.2-1.2v-1.8-1.8l-2.5-2.5-2.5-2.5v-1.5-1.5h-1-1v-2-2h-1-1v-2-2h1 1v-2-2h-1-1v-1-1h1.8 1.8l1.8-3 1.8-3 1.8.5 1.8.5 1.8-1.4 1.8-1.4-.8-.8-.8-.8-.4 1.3-.4 1.3h-1-1v-1-1l2-.6 2-.6.6-2.3.6-2.3 2.4.5 2.4.5 2-2 2-2v1 1l6 1.3 6 1.3 1.3 1.3 1.3 1.3h.8.8l1.8 2.4 1.8 2.4 3 .6 3 .6v1.5 1.5h7 7v-1-1l2.6-2.4 2.6-2.4h1.4 1.4l2.5-1.2 2.5-1.2v-2-2l1.4-1.4 1.4-1.4.6-1.3.6-1.3.6 1.3.6 1.3h1 1v-4-4h6 6v4 4h1 1v-4-4h1 1v4 4h1 1v2 2l2 .6 2 .6v1.4 1.4h.8l.8-.1 1.3.1h1.3v1.4 1.4l3 1.2 3 1.2v5.4 5.4h1 1v5.5 5.5l-2 1-2 1v5.5 5.5h-1-1v3 3h-7-7v1 1h-4-4zm-15.5-7l.6-1h-.5-.5l-.6 1-.6 1h.5.5zm-54.8-2.6l-.6-.6-1.3.5-1.3.5 2 .1h2l-.6-.6zm78-.1l-.7-.7-.7.7-.7.7h1.3 1.3zm-78.7-1.8v-.5h-.5-.5v.5.5h.5.5zm15-3l3-1.5 2.5-3.3 2.5-3.3.7-4.2.7-4.2-1.7-4.5-1.7-4.5-3.5-2.7-3.5-2.7-5.7-.4-5.7-.4-3.2 1.6-3.2 1.6-2.6 4-2.6 4 .4 7 .4 7 2 2.2 2 2.2 3 2 3 2h5.3 5.3l3-1.5zm62 .1l2.8-1.4 3-3.6 3-3.6V282v-5.8l-2.3-3.4-2.3-3.4-3.4-2.3-3.4-2.3h-5.2-5.2l-4 3-4 3-1.7 3.5-1.7 3.5v3.8 3.8l2 4 2 4 3.3 2.2 3.3 2.2h5.3 5.3zm-85.2-1.2l-.7-.7v1.3 1.3l.7-.7.7-.7zm37.3-8.8v-.5h-.5-.5v.5.5h.5.5zm0-2v-.5h-.5-.5v.5.5h.5.5zm-2.3-4.7l-.5-1.3-.1 2v2l.6-.6.6-.6-.5-1.3zm-.7-4.3v-.5h-.5-.5v.5.5h.5.5zm26-1v-.5h-.5-.5v.5.5h.5.5zm-28-6.5v-1h-1-1v1 1h1 1zm-3-1.4v-.4l-1-.6-1-.6v1 1h1 1zm-89.5 33.7L54 297l-.7-3.5-.7-3.5-.8.5-.8.5-.7-3.5-.7-3.5.7-3.7.7-3.7 1.6-3.7 1.6-3.7h1 1l1.2-2 1.2-2h1.7 1.7l-.6-.6-.6-.6 2-2 2-2H71h5.6l1 .7 1 .7 1.2 2.5 1.2 2.5v-1.7-1.7l3.3 2 3.3 2-.2 1-.2 1h1.8 1.8l1.8 6.2 1.8 6.2-.5 4.6-.5 4.6-1.8 3.7-1.8 3.7h-1.3H87v2 2l-2.7 1-2.7 1-10.4-.2-10.4-.2zM83 302v-1l1.3-.4 1.3-.4-2.5.5-2.5.5-3.5.7-3.5.7 4.8.1H83zm-4.3-2.7l-.7-.7-.7.7-.7.7H78h1.3zm.1-3L81 295l1.2.7 1.2.7-.8-1.2-.8-1.2 1.3-1.7 1.3-1.7 1.3-2.2L87 286v-4.6-4.6l-1.5-3-1.5-3-3.6-2.7-3.6-2.7-5.7-.4-5.7-.4-3.5 2.4-3.5 2.4-2 3.2-2 3.2-.4-.4-.4-.4.5 6.7.5 6.7L57 292l2.5 3.4 3 1.3 3 1.3H71h5.5l2.2-1.6zm-23.8-4v-.5h-.5-.5v.5.5h.5.5zm33-22l-1.2-1 .6 1.8.6 1.8v1.2l.1 1.2.5-2 .5-2zm-33.6-5.3l.7-.7.7.7.7.7H55h-1.3zM191 245v-1h-2-2l-.3-2.2-.3-2.2-3.2-1-3.2-1v-1.4-1.4l1-2.2 1-2.2-1.3 1.3-1.3 1.2h-.7-.7l-.5-2-.5-2h1.7 1.7l-1.5-1-1.5-1-.1-1.3-.1-1.3-.3-1.5-.3-1.5-.8 4-.8 4 .4-5.7.4-5.7h-1-1v2.3 2.3l-1-1.8-1-1.8.7-3 .7-3 3.6-2.7 3.6-2.7 2.8-3 2.8-3v-.8-.8l2.3.1 2.3.1 3.7-.2 3.7-.2-.5-1.4-.5-1.4 1-.5 1-.5 1.5 1 1.5 1-1.3.5-1.3.5.6 1 .6 1h5.4 5.4v2 2h2 2v2.3l.1 2.3-.1.7v.7l4 1 4 1v5.5 5.5h-1-1l-1.2 3-1.2 3-2.8 3-2.8 3-.6 3-.6 3h-2.5-2.5v2 2h-1-1v-2-2h-1-1v2 2h-6-6zm-7-10.4v-.4l-1-.6-1-.6v1 1h1 1zm22-2.3l3.3-2.7 1.4-2.7 1.4-2.7v-5.3-5.3l-2.5-3.6-2.5-3.6-4.4-2-4.4-2h-2.7-2.7l-3.7 1.5-3.7 1.5-2.3 2.2-2.3 2.2-1.5 5-1.5 5 1.6 4.4 1.6 4.4 2.2 2.4 2.2 2.4 2 .8 2 .8h6.6 6.6l3.3-2.7zm-28-16.8v-.5h-.5-.5v.5.5h.5.5zm35-4v-.5h-.5-.5v.5.5h.5.5zm-1-3v-.5h-.5-.5v.5.5h.5.5zm41 36.5v-1h-4-4v-1.6-1.6l-1 .6-1 .6-1.5-1.5-1.5-1.5v-1.6-1.6h-3.5-3.5l-.2-2.2-.2-2.2-.3-5-.3-5 .5-5.7.5-5.7h2.4 2.4v-2-2l1.3-2.2 1.3-2.2.2-.3.2-.3 1.3-.3 1.3-.3 1.7-.8 1.7-.8-.6-1-.6-1h1.7 1.7l-.6 1.4-.6 1.4 1.4-.6 1.4-.6v-1.3-1.3l2.3-.1h2.3 2l2-.1 2.5.1h2.5 1.5l1.5-.1 2.3.5 2.3.5 1.6 1.6 1.6 1.6h1 1v1 1l1.6 1.2 1.6 1.2.6 6.2.6 6.2h1 1v1.5 1.5h2 2v1 1h-1-1v1.4 1.4l-2 2.5-2 2.5v5 5h-1-1v-2.2-2.2l-1 2-1 2 1.2.4 1.2.4v2 2h-7-7v1 1h-6-6v-1zm-6-4.5v-.5h-.5-.5v.5.5h.5.5zm1.7-2.2l-.7-.7-.7.7-.7.7h1.3 1.3zm14 0l-.7-.7-.7.7-.7.7h1.3 1.3zm-15.7-2.8v-.5h-.5-.5v.5.5h.5.5zm21.5-3.6l3.6-3 1.4-2.8 1.4-2.8v-4-4l-1.6-3-1.6-3-2-2-2-2-3.6-1.5-3.6-1.5h-3-3l-3.2 1.6-3.2 1.6-2 1.6-2 1.6-2 3.7-2 3.7v3 3l1.5 3.5 1.5 3.5 3.8 3 3.8 3h6.7 6.7zm-28.8-.5l-.7-.7-.7.7-.7.7h1.3 1.3zm-3-3l-.7-.7v1.3 1.3l.7-.7.7-.7zm5.3 1.2v-.5h-.5-.5v.5.5h.5.5zm35-18v-.5h-.5-.5v.5.5h.5.5zm-35-3v-.5h-.5-.5v.5.5h.5.5zm34 0v-.5h-.5-.5v.5.5h.5.5zm-29.3-4.2l-.7-.7-.7.7-.7.7h1.3 1.3zm-.7-2.8v-.5h-.5-.5v.5.5h.5.5zm7.7-1.2l-.7-.7-.7.7-.7.7h1.3 1.3zm10.3-.8v-.5h-.5-.5v.5.5h.5.5zm-122 41v-2l-2.5.6-2.5.6-4.5.6-4.5.6V240 239h-1.2l-1.2.2-4.3-.8-4.3-.8.4-1.2.4-1.2 1.6.1 1.6.1v-.7-.7l-3.5-1.4-3.5-1.4v-1l-.1-1v-7.7-7.7l1.2-3 1.2-3 .8.5.8.5.6-1.5.6-1.5h-1-1l.5-1.4.5-1.4-1-1-1-1h1.2 1.2v1 1h1 1l-.5-1.3-.5-1.3H130h10.6l3 2 3 2-1.2-1.4-1.2-1.4v-.8-.8l2.6 1.7 2.6 1.7-1 .7-1 .7 3 2.5 3 2.5 1 2.8 1 2.8v5.2l.1 5.2.8-3 .8-3-.4 4-.4 4-.7 3.3-.7 3.2h-2-2v1 1l-1-.6-1-.6-2.6 1.7-2.6 1.7 2 .7 2 .7h-2.2-2.2l-.5 1.3-.5 1.3-.1-2zm-11.6-2.6l.6-1h-1.6-1.6l.6 1 .6 1h.4.4zm8.2-.6l-.6-.6-1.3.5-1.3.5 2 .1h2l-.6-.6zm8.2-9l2.4-3.5v-5l.1-5-1.3-3-1.3-3-4.2-3-4.2-3h-6.3-6.3l-4.4 4.7-4.4 4.7v6.6 6.6l1.2 2.2 1.2 2.2 1 1 1 1 2 1.5 2 1.5 6 .5 6 .5 3.5-1.8 3.5-1.8 2.4-3.5zm1 4.2v-.4l-1.2-.7-1.2-.7.7 1.2.7 1.2h.4.4zm4.7-10.2l-.7-.7v1.3 1.3l.7-.7.7-.7zm.3-5.8v-.5h-.5-.5v.5.5h.5.5zm-31.3-12.2l-.7-.7-.7.7-.7.7h1.3 1.3zm2-2l-.7-.7-.7.7-.7.7h1.3 1.3zM61 239l-1.5-1 1.3-.8 1.3-.8-1.5-1.3-1.5-1.3v1.3 1.3l-3.5-5.8-3.5-5.8v-4.4-4.4l1.2-4.5 1.2-4.5 1.3.5 1.3.5v-1.5-1.5l2.5-1 2.5-1v-1-1l5.5-.7 5.5-.7 5.5 2.4 5.5 2.4v1 1l1.5.6 1.5.6v2 2l1.8-.6 1.8-.6v1.3l.1 1.3.7 3.3.7 3.3h-1-1v3 3h1.3 1.3l-1 .7-1 .7-.7 3.3-.7 3.3-2.7-.3-2.7-.3v2 2l-2.8.3-2.8.3.6 1 .6 1h-5.8-5.8l1.4-1 1.4-1-3-.5-3-.5v.7.7l1.3.5 1.3.5-2 .1h-2l-1.5-1zm15.3-.6l-1.2-.5-1.2.5-1.2.5H75h2.5zm3.5-5.3l3.3-2 1-2.5 1-2.5h.8.8v-6.2-6.2l-2.8-4-2.8-4-4.6-2-4.6-2-4.6.7-4.6.7L59 207l-4.2 3.8-.4 6.2-.4 6.2 1.2 3 1.2 3 2.8 2.5 2.8 2.5 1.4.6 1.4.6 6 .1h6l3.3-2zm9.2-5.5v-.5h-.5-.5v.5.5h.5.5zm2-9v-.5h-.5-.5v.5.5h.5.5zm56.5 19.5l-.6-1h1.6 1.6v1 1h-1-1zM85 237v-1.3l.7.7.7.7-.7.7-.7.7zm87.2-11v-2.5l.5 1.3.5 1.3-.5 1.3-.5 1.3zm82-45.6l-1.3-1.5.5-2 .5-2-2.4.6-2.4.6-2.5-.6-2.5-.6v-1-1h1.5 1.5v1 1h1.8 1.8l-2.5-2-2.5-2-2.4.6-2.4.6.6-2 .6-2h-2.4-2.4l1-2.4 1-2.4-1-2-1-2v-3.5-3.5l1-.6 1-.6.4 5.3.4 5.3.2-5.5.2-5.5-1-1.4-1-1.4 1.6-2.4 1.6-2.4.7 1.2.7 1.2 1-.7 1-.7v-2.2-2.2l1.4-1.8 1.4-1.8 7.5.3 7.5.3-1.2.7-1.2.7h.8.8l2-1 2-1 2.2 1.3 2.2 1.3 2.3 2 2.3 2v1.4 1.4l1.5.6 1.5.6v2 2l-1-.6-1-.6v1 1l1 1 1 1 .6 5.7.6 5.7-1.2.7-1.2.7.7-1 .7-1-1-.6-1-.6-.5 2.4-.5 2.4 1.5-.6 1.5-.6-.7 1.8-.7 1.8v2.4 2.4h-1.7-1.7l-2.5 2-2.5 2h-1.2-1.2l-.5 1.3-.5 1.3-.1-1.2V178h-2-2v2 2h-2.7-2.7l-1.3-1.5zm8-5l-1.2-.5-1.2.5-1.2.5h2.5 2.5zm.7-2.8l4.2-1.5 2.4-2.3 2.4-2.3 1.5-3.4 1.5-3.4V156v-3.8l-1.5-3-1.5-3-3.8-3.2-3.8-3.2h-6-6l-2.8 1.8-2.8 1.8-1.7 2-1.7 2-1.2 2.2-1.2 2.2v4.3 4.3l3 4.8 3 4.8 4.2 2 4.2 2h1.6 1.6l4.2-1.5zM242 147v-1h-1-1v1.6 1.6l1-.6 1-.6zm32.7-.6l-.7-.7v1.3 1.3l.7-.7.7-.7zm-22.2-8.3l.6-1h-2-2l-.6 1.6-.6 1.6-1-.6-1-.6v1.6 1.6l3-1.5 3-1.5zM188 175.6l-3.5-1.3V173v-1.4l-1.5-.6-1.5-.6-.7 1-.7 1v-3.2-3.2l-1-.6-1-.6-.7-5.5-.7-5.5.7-3.5.7-3.5.8.5.8.5 2.4-4 2.4-4 5.8-.7 5.8-.7-1.3-1-1.3-1 2 .6 2 .6 4.5.6 4.5.6 1.3 1 1.3 1v1.8 1.8l1.5 1.2 1.5 1.2v-2l.1-2 1 3.4 1 3.4 1.4 1.4 1.4 1.4v5.4 5.4h-1-1v3 3h-2-2v1 1h-1.4-1.4l-1.6 2.2-1.6 2.2-6.8.2-6.8.2-3.5-1.3zm12.5-3l4-1.4 3.8-4.2 3.8-4.2v-6-6l-1.7-2.7-1.7-2.7-1.3-.8-1.3-.8v-1.5-1.5l-1 .6-1 .6-.6-1-.6-1h-6.5-6.5l-2 1-2 1-2.6 3-2.6 3-1.3 4-1.3 4 1 4.2 1 4.2 3.2 3.3 3.2 3.3 3.4 1.2 3.4 1.2 1.5.1h1.5l4-1.4zm12.2-8.2l-.7-.7v1.3 1.3l.7-.7.7-.7zM119 175.5v-.5h.5.5v.5.5h-.5-.5zm4.6-1l.5-1.3-1.6-1.3-1.6-1.3-2 2.4-2 2.4.8-2 .8-2 .5-1.8.5-1.8-1.3.3-1.3.3-1.2-3.5-1.2-3.5v-4-4l1.7-3.8 1.7-3.8h.8.8l-1 2-1 2v7.2 7.2l3.8 3.8 3.8 3.8 4.4 1.2 4.4 1.2 3.7-1 3.7-1 2.8-2.2 2.8-2.2 2-4 2-4V156v-3.5l-2.2-4-2.2-4-3.4-2.3-3.4-2.3H133h-5.7l-3.7 2.5-3.7 2.5h-.4-.4l.5-2 .5-2 3.6-1.2 3.6-1.2 5.5.2h5.5l2.8.6 2.8.6 1 2.5 1 2.5 1.4-.5 1.4-.5-.5 2-.5 2 1.6-.6 1.6-.6v1l.1 1 .2 6.4.2 6.4-1.5 4.3-1.5 4.3H147 145l-.6 1-.6 1h.8l.8-.2 1.8.8 1.8.8v1 1l-2-1.2-2-1.2-.8.8-.8.8 1.4 1 1.4 1h-11.6H123l.5-1.3zm-2.6-.1v-.5h.5.5v.5.5h-.5-.5zm56-6.2V166l-1-.6-1-.6v-2.7l.1-2.7.4 2 .4 2 1 2.2 1 2.2-.5 1.3-.5 1.3-.1-2.2zm-24-15l.1-2 .5 1.3.5 1.3-.6.6-.6.6v-2zm3-.4v-1.3l.7.7.7.7-.7.7-.7.7zm19-2.5v-.5h.5.5v.5.5h-.5-.5zm1-2v-.5h.5.5v.5.5h-.5-.5zm-50.2-11.2l1.3-.5.6.6.6.6h-2l-2-.1 1.3-.5zm5-1l2.3-.4 1.7.5 1.7.5h-4-4l2.3-.4zm68.2.2v-.5h.5.5v.5.5h-.5-.5zm127.3-39l.2-3-162.7-.3L1 94V64.4 34.7l2-3.4 2-3.4 4-2 4-2h21 21v13.8 13.8l2 3.3 2 3.3 3.3 2 3.3 2H70h4.4l4-2.2 4-2.2 2-4 2-4V36.7 24h78.5H243v13.3 13.3l1.7 3.4 1.7 3.4 2.6 2 2.6 2 4.4.5 4.4.5 4.5-2.3 4.5-2.3 1.7-3 1.7-3 .7-13.7.7-13.7h21 21l3.8 2.3 3.8 2.3 2 3 2 3V65l-.1 30.5-1 2.5-1 2.5.2-3z" fill="#249cd5"/><path d="M209.5 351l-26-.5 25.3-.2 25.3-.2v-42-42l1.7-2.8 1.7-2.8 2-1 2-1 43.3-.3 43.3-.3v43 43l-2 3.2-2 3.2-3.3.6-3.3.6-41 .2-41 .2-26-.5zm-133.7-.7L91 350l14.7.3 14.7.3h-30-30zM8 348.5v-.5h.5.5v.5.5h-.5H8zm202.8-1.2l6.3-.4 6.3.4 6.3.4H217h-12.5zm20.3.2v-.5h.5.5v.5.5h-.5-.5zm-2-2v-.5h.5.5v.5.5h-.5-.5zm2 0v-.5h.5.5v.5.5h-.5-.5zm-227-1v-.5h.5.5v.5.5h-.5H4zm225.2-3v-3l.5 1.8.5 1.8-.5 1.2-.5 1.2v-3zM1 337v-1.3l.7.7.7.7-.7.7-.7.7zm189.5-33l-3-.8 3-.2 3-.2-3.5-.7-3.5-.7 3.5-.2 3.5-.2-2.8-1-2.8-1-2.4 1-2.4 1v.8.8l1.8.5 1.8.5-1.5.1h-1.5l-1.5-1-1.5-1 1.5-1 1.5-1-1-.7-1-.7-1.4-3.5-1.4-3.5-.1-.7-.1-.7-.2-.2v-.2l-.3-3-.3-3-.3-1-.3-1 .8-4.3.8-4.3 1.4-.5 1.4-.5v-2-2h2.3 2.3l-1.4-1-1.4-1 2-1 2-1 11.6.3 11.6.3.3-.8.3-.8 2 1.5 2 1.5-1.4 1-1.4 1 1.4 1.8 1.4 1.8-2-.7-2-.7.7 1.8.7 1.8.5 2.7.5 2.7 2.4.6 2.4.6v4.4 4.4l-1.4-.5-1.4-.5-.7 3-.7 3h-.8-.8l-.6-1.2-.6-1.2.5 2.2.5 2.2-1.7 2.7-1.7 2.7-5.8-.7-5.8-.7v1 1l1.5.6 1.5.6v1 1h-3.2l-3.2-.1-3-.8zm12.4-7.4l2.8-1.4 3-3.6 3-3.6v-6.3-6.3l-3.5-4-3.5-4-3-1.3-3-1.3-5.3.4-5.3.4-2.6 2-2.6 2-2.6 5-2.6 5v2.7 2.7l1 .6 1 .6v1.7 1.7l2.3 2.8 2.3 2.8 2.4 1.3 2.4 1.3 5.3.1h5.3l2.8-1.4zm7-.6v-1h-1-1l.6 1 .6 1h.4.4zm.6-28.4l1.4-1.4v-.6-.6h-.8-.8l-1.2 2-1.2 2h.6.6zM68 303.5v-.5h.5.5v.5.5h-.5-.5zm-3-1.5v-1.3l.7.7.7.7-.7.7-.7.7zm61 .5v-.5h.5.5v.5.5h-.5-.5zm2.8-.4l1.3-.8-3-1.2-3-1.2-1 .5-1 .5-2.7-2.5-2.7-2.5v-1.5-1.5l-1.5-1.5-1.5-1.5v-4.2-4.2l.6-2.2.6-2.2h.8.8l.5 7.5.5 7.5 2.4 2 2.4 2 3 1.6 3 1.6 5 .1 5 .1.5-.5.5-.5 3.2-2.2 3.2-2.2h1.5 1.5v.8.8l-1.2 1.2-1.2 1.2h1.4 1.4l-2.3 2-2.3 2h-1.3-1.3l-.6-1-.6-1-3.6 1-3.6 1-1.5-.6-1.5-.6.5 1 .5 1-1.6.6-1.6.6h-.7-.7l1.3-.8zm-7.8-6.6v-.5h-.5-.5v.5.5h.5.5zm81.8 6.8l1.3-.5 1.3.5 1.3.5H204h-2.5zm-136-2.5l-1-.7-1 .6-1 .6-.7-1.2-.7-1.2-3.2-.1-3.2-.1-1.2-1.6-1.2-1.6 1.8 1.4 1.8 1.4v-1.6-1.6l-2-2-2-2-.6-6-.6-6h1 1l-.3 4-.3 4 3 4.7 3 4.7 2 1.4 2 1.4 3.7.6 3.7.6 4-1 4-1 2.6-2.6 2.6-2.6 1.5-3 1.5-3v-4.4-4.4l-1.6-3.2-1.6-3.2-2-1.7-2-1.7h1 1l1 1.3 1 1.3 2 2.4 2 2.4v.6.6l.4 2.5.4 2.5.5 3.6.5 3.6-.6 3-.6 3h-1.4H86v1 1l-2.2-.2-2.2-.2.2 1.2.2 1.2-2.5.6-2.5.6v.7.7h-4.6-4.6l-1-.7zm19.3-7v-1l-1 .6-1 .6v1 1l1-.6 1-.6zm61-1.3v-.4l1.5-3 1.5-3v-3.3-3.3l-1.4-3.5-1.4-3.5h.7.7l-5-3.6-5-3.6-6 .4-6 .4-1.5.5-1.5.5-3.2 4.4-3.2 4.4V273v-2.3l3.3-3.3 3.3-3.3 9.2-.2h9.2l.6 1.5.6 1.5h1.4 1.4l1.7 2.8 1.7 2.8 1.3-.4 1.3-.4v.8l.1.8.2 8 .2 8-.4 1.3-.4 1.3h-2.4-2.4v-.4zm4.6-17.4l-.6-.6-.6.6-.6.6.8 1.8.8 1.8.4-1.8.4-1.8zm3.6 12.2v-3l.5 1.8.5 1.8-.5 1.2-.5 1.2v-3zM54.7 273l.6-2.4 2.7-3 2.7-3 6.8-.5 6.8-.5 2.2.8 2.2.8h-8.2-8.2l-2.7 3-2.7 3-1.4 2-1.4 2zm93.3-7.6v-.5h.5.5v.5.5h-.5-.5zM326.5 213v-43.5l.3 21.8.3 21.8-.3 21.8-.3 21.8zm-255 26.3l.7-.7.7.7.7.7H72h-1.3zm66.4-.5l1-1 1.3.4 1.3.4-2.4.6-2.4.6zm58.2.4l6.5-.4.7-1 .7-1 1.3.8 1.3.8-2 .8-2 .8-6.5-.1-6.5-.1zm55-.4v-.8h4.8 4.8l1.5 1 1.5 1-6.2-.2-6.2-.2v-.8zm-125.2-.5l1.3-.5.6.6.6.6h-2l-2-.1 1.3-.5zm7 0l1.3-.5 1.3.5 1.3.5H134h-2.5zm112.3.2v-.5h.5.5v.5.5h-.5-.5zm-55.8-1.2l-3.3-.4.7-1 .7-1-1.7.6-1.7.6v-1.3-1.3l-2-1.8-2-1.8v1.3 1.3l-.5-.5-.5-.5.7-1.7.7-1.7 3.4 3.3 3.4 3.3 7.7.3 7.7.3 3-2.6 3-2.6h.5.5l1.2-3.3 1.2-3.3v-5-5l-2-3-2-3-3.6-2.2-3.6-2.2-4-.5-4-.5v-1-1l4.3.5 4.3.5 1.7.7 1.7.7-.5.8-.5.8 3.6.7 3.6.7-.4.4-.4.4 2 5.7 2 5.7-.5 4.5-.5 4.5-2 4.2-2 4.2v.8.8l-3.2.2-3.2.2-5 .4-5 .4-3.3-.4zm67.5-.1l-5.7-.4v-1-1h7 7l3.6-3 3.6-3 1.4-2.8 1.4-2.8v-4.3-4.3l-2.2-4-2.2-4-4-2-4-2 2.4-.3 2.4-.3 3 2.8 3 2.8 2 3.2 2 3.2-.6 2-.6 2 2-.5 2-.5v3.4 3.4l-2 3.5-2 3.5v-1.2-1.2h-1-1l-.5 2-.5 2h1.5 1.5l-.4 1.8-.4 1.8-2-.2-2-.2-2.8 1.4-2.8 1.4-1.8-.2-1.8-.2-5.7-.4zM278 222v-2.4l-.4.4-.4.4-.6 3.5-.6 3.5 1-1.5 1-1.5V222zM64 236v-1h6.3 6.3l3.3-2 3.3-2 .6-1.5.6-1.5.8.5.8.5.5-2.8.5-2.8.6-3.7.6-3.7-2.2-3.6-2.2-3.6.6-.6.6-.6 1 2.7 1 2.7 1-.6 1-.6-.2 7.3-.2 7.3-2.5 3-2.5 3-3.2 2-3.2 2h-6.5H64zm59.4-1l-3-2-.6-1-.6-1 1-.6 1-.6v1 1l2.8 1.5 2.8 1.5h6l6 .2 3-1.8 3-1.8 2-3.2 2-3.2.7-3.7.7-3.7-1.7-5.4-1.7-5.4-2.5-1.5-2.5-1.5 1-.7 1-.7v1 1l1-.6 1-.6 1.6 4 1.6 4h1.8 1.8v1 1h-1.5-1.5v1 1h1 1l-.7 4.8-.7 4.8-1.4 2.2-1.4 2.2.6 1.8.6 1.8-1-1.5-1-1.5-2.3 2-2.3 2-2.2 1-2.2 1h-5.8-5.8l-3-2zm124.6 1v-1l-4-4.2-4-4.2.2-5.6.2-5.6.4 5 .4 5 4.4 4.4 4.4 4.4v1.4 1.4h-1-1zm-186.7-1.7l.7-.7.7.7.7.7H62h-1.3zm182.7.2v-.5h.5.5v.5.5h-.5-.5zm-63-1v-.5h.5.5v.5.5h-.5-.5zm-124.2-2.2l-1.5-1.7-1-2-1-2-.7-3.7-.7-3.7 1-.6 1-.6.5 5.2.5 5.2 3 2.8 3 2.8h-1.4-1.4zm183.2.8v-1h1 1v1 1h-1-1zm-2.4-6.6l-.6-4.6v-3-3h1 1v6 6l.6 1.6.6 1.6h-1-1zm-121.4 2.4l-1.2-1.2V221v-5.6l1-1.5 1-1.5v6.3 6.3l1 2 1 2h-.8-.8l-1.2-1.2zm61.3-3.8l-.7-3 .7-5 .7-5 2.5-2.7 2.5-2.7-.4 1-.4 1-2.3 5-2.3 5 .5 2.5.5 2.5.7 2.3.7 2.3h-1-1zm-24.5-1.5v-.5h.5.5v.5.5h-.5-.5zm-100-8v-.5h.5.5v.5.5h-.5-.5zm188-1.2v-2.2l.6-1.6.6-1.6h1.4 1.4v-1.5-1.5h1 1v1 1l-1.6 1.3-1.6 1.3-1.3 3-1.3 3-.1-2.2zM54 211v-1.5l2-1.7 2-1.7v1 1l-1.4.8-1.4.8-.6 1.5-.6 1.5-.1-1.5zm63-.2v-1.5l2.5-2.6 2.5-2.6h1.2 1.2l-3.4 3.7-3.4 3.7-.2.4-.2.4zm159-2.3v-.5h.5.5v.5.5h-.5-.5zm-193.7-2.2l.7-.7.7.7.7.7H83h-1.3zm-22.5-2l1.3-.5.6.6.6.6h-2l-2-.1 1.3-.5zm58-.7l-.5-1.2h2 2v.7.7l-1.4.5-1.4.5zm67.7-.2l1.6-1.6 1 .6 1 .6v-1-1h1.5 1.5v.8.8l-3.3 1.2-3.3 1.2h-.8-.8zm63 1l.7-.7.7.7.7.7H249h-1.3zM79 203.5v-.5h.5.5v.5.5h-.5-.5zm68 0v-.5h.5.5v.5.5h-.5-.5zM63 202v-1h1 1l.6 1 .6 1h-1.6H63zm12.8.3l1.3-.5.6.6.6.6h-2l-2-.1 1.3-.5zm49.7-.3l.6-1 1 .6 1 .6v.4.4h-1.6-1.6zm7.5.1l-4.5-.7 1.8-.8 1.8-.8 5.2 1.5 5.2 1.5H140l-2.5-.1-4.5-.7zm120-.5l3.4-1.5h3 3l-.7.8-.7.8-2.7.2-2.7.2-3 .6-3 .6zM67.5 201l.6-1h1.7 1.7l-1.5 1-1.5 1h-.8-.8zm180.5.5v-.5h.5.5v.5.5h-.5-.5zM191.3 175l-2.2-.8v-.6-.6l3 .7 3 .7 4.6-1.3 4.6-1.3 4-4.4 4-4.4V156v-6.8l-1-.5-1-.5 1.3.3 1.3.3.5 7 .5 7-2.8 4.3-2.8 4.3-3.7 2-3.7 2-3.5.5-3.5.5zm57 .4l.7-.7.7.7.7.7H249h-1.3zm2.2-1.8l-5-2.5h1 1l4.3 1.5 4.3 1.5h2.6 2.6l-1.5 1-1.5 1H257h-1.5l-5-2.5zm12.7 1L262 173l2.7-1 2.7-1 2.5-2.5 2.5-2.5 1.3-2.6 1.3-2.6v-4.5-4.5l-1-1.8-1-1.8 1.8-.5 1.8-.5.2 6.6.2 6.6-2 4.2-2 4.2-1-.2-1-.2-3.3 3.6-3.3 3.6zm-142-4l-4.2-4.3v-1-1l3.5 3.8 3.5 3.8 4 1.2 4 1.2h2.2 2.2l4-2 4-2 2.6-3.3 2.6-3.3v1.4 1.4l-2.3 2-2.3 2-3 2.3-3 2.3h-6.3l-6.3-.1-4.2-4.3zM186 172l-1.5-1 .6-.6.6-.6 1.3 1.5 1.3 1.5h-.4-.4l-1.5-1zm-4.3-2.8l-1.7-2V166v-1.4l2 2 2 2-.4 1.2-.4 1.2zm62.5-.8L243 167v-1-1l-1 .6-1 .6-.6-3.3-.6-3.3.4-4 .4-4 .2 5 .2 5 2.6 3.8 2.6 3.8-.4.4-.4.4zm-66.2-6V161l1 .6 1 .6v1 1h-1-1zm-28.6-.8l.6-1.8v-2-2h1 1l-.6 2.8-.6 2.8-1 1-1 1zm-33.8-3l-.6-3.4 1-2.4 1-2.4v5.8 5.8h-.4-.4l-.6-3.4zM177 154v-2.5l1-1.4 1-1.4.5 1 .5 1-1.3 3-1.3 3-.1-2.5zm-27.8-2l-1.2-3.3 1.6 1.6 1.6 1.6-.3 1.7-.3 1.7zm91.8-2.5l.1-2 .5 1.3.5 1.3-.6.6-.6.6v-2zm85-1.4v-2.5l.5 1.3.5 1.3-.5 1.3-.5 1.3zM117 148v-1.3l.7.7.7.7-.7.7-.7.7zm28-3.7l-2.4-2.7 2.8 2.4 2.8 2.4v.3.3h-.3-.3zm36 1.8v-1.3l.7.7.7.7-.7.7-.7.7zm62 .2v-.8l1.2-1.2 1.2-1.2h.8.8l-1.2 2-1.2 2h-.8-.8zm28.5-.1l-.6-1 1-.6 1-.6v1.6 1.6h-.4-.4zm-151-2l.6-1h.5.5l-.6 1-.6 1h-.5-.5zm27.5.5v-.5h.5.5v.5.5h-.5-.5zm59.7-.2l-.7-.7V142v-1.6l1 1.8 1 1.8-.4.4-.4.4-.7-.7zm-23.7-.8v-.5h.5.5v.5.5h-.5-.5zm82.6-1.6l-2-2H258h-6.6l-1.2 1.2-1.2 1.2v-1.2-1.2l2.3-.5 2.3-.5 5.8-.5 5.8-.5v.8.8l2 .5 2 .5v1.6 1.6h-.2-.2l-2-2zm-126-.7l-.7-.7-6.7-.6-6.7-.6 6.5-.1 6.5-.1 1.5 1 1.5 1-.6.6-.6.6zm63-.2l-.6-1h1 1v1 1h-.4-.4zm-79.2-.7l.7-.7.7.7.7.7H125h-1.3zm64-.5l1.3-.8h6l6 .1-1 .3-1 .3-6.3.4-6.3.4 1.3-.8zM248 137v-1.3l.7.7.7.7-.7.7-.7.7zm-84.2-42.7L1 94V64.2 34.5l2-3 2-3 3.8-2.3 3.8-2.3h21.3H55v13.5V51l1.4 2.7 1.4 2.7 2.5 2.3 2.5 2.3 3.8 1 3.8 1 3.3-.6 3.3-.6L81 58l3.8-3.8.6-3.2.6-3.2V36 24h78 78v12.5V49l1.7 4 1.7 4 4 2.6 4 2.6h3.2 3.2l3-.6 3-.6 2.6-2.6 2.6-2.6 1.4-3.4 1.4-3.4V36.4 24h21.3 21.3l3.8 2.3 3.8 2.3 2 3 2 3v30.3V95l-.7-.2-.7-.2-162.7-.3z" fill="#1b96d0"/><path d="M234.2 350l-.5-1.4.7-42 .7-42 1.7-2 1.7-2 2-1.2 2-1.2 42.8-.5 42.8-.5v42.7V343l-1.2 2.6-1.2 2.6-3.2 1.5-3.2 1.5-42.3.2-42.3.2zM67 299.2v-1l2 .5 2 .5 3.8-1 3.8-1-1 1-1 1-4.7.6-4.7.6zm62.5-.2l.6-1h3 3l.6 1 .6 1h-4-4zm57-1.8l-5-3-.8-2.4-.8-2.4 2.3 2.8 2.3 2.8 2.8 1.4 2.8 1.4h5 5l2.8-1.4 2.8-1.4 3-3.6 3-3.6v-6.3-6.3l-3.5-4-3.5-4-3-1.3-3-1.3-6.2.5-6.2.5 2.5-1 2.5-1 6 .5 6 .5 4.4 4.4 4.4 4.4.4 7.3.4 7.3-1.6 2.4-1.6 2.4.6 1.8.6 1.8-1.3-1.2-1.3-1.2-2.7 2.6-2.7 2.6-6 .4-6 .4zm-122.2 1.2l.7-.7.7.7.7.7H65h-1.3zm60.2-1.3l-.6-1 1.6.6 1.6.6v.4.4h-1-1zm14.5.6v-.4l1.6-.6 1.6-.6-.6 1-.6 1h-1-1zM81.7 294l2.8-3h.3.3v1 1l-2.2 2-2.2 2h-1-1zm-26.2-2.6l-2.7-4.6.3-.3.3-.3 3.3 5 3.3 5h-1-1zM121 295v-1l1 .6 1 .6v.4.4h-1-1zm23-.4l1.2-1.5h1 1l-1.2 1.5-1.2 1.5h-1-1zm-25.7-2.2l.7-.7.7.7.7.7H119h-1.3zm28.7-.5v-.6l1.5-3 1.5-3v1.6 1.6l-1.5 2-1.5 2v-.6zm-30.4-2.4l-.6-1.6v-6.2l.1-6.2.7 7.5.7 7.5-.2.3-.2.3zM85 289v-1l1-.6 1-.6v-5-5l-1.5-3-1.5-3h.5.5l1.5 3 1.5 3v5 5l-1.5 1.5L85 290zm93.5-2l-.6-1h1 1v1 1h-.4-.4zM53 282v-1.3l.7.7.7.7-.7.7-.7.7zm97-.4V280l1-.6 1-.6v1.5 1.5l-1 .6-1 .6zm27-.4V279l2.5-5.3 2.5-5.3 2.2-.6 2.2-.6-1.6 1.2-1.6 1.2-2.6 4.6-2.6 4.6-.4 2.4-.4 2.4zm-124-2.7v-.5h.5.5v.5.5h-.5-.5zm95.3-3.5l-1-3h1 1l.6 2.5.6 2.5-.4.4-.4.4zm-93.6-1.5l.7-2 2-2.2 2-2.2h1 1l-2.3 2.3-2.3 2.3-1.5 2-1.5 2zm62.4.3v-1.6l2-2.4 2-2.4.5.5.5.5-2.4 3.5-2.4 3.5zm25.6-6l-4-3h1.4 1.4l3 2.4 3 2.4-.5.4-.5.4-4-3zM82 269v-1.3l.7.7.7.7-.7.7-.7.7zm-2-1.5v-.5h.5.5v.5.5h-.5-.5zm44-1.5v-1h1.5 1.5v.4.4l-1.5.6-1.5.6zm-61.2-.7l1.3-.5.6.6.6.6h-2l-2-.1 1.3-.5zm13.5 0l.7-.7.7.7.7.7H77h-1.3l.7-.7zm-8.6-1l2.3-.4 2.3.4 2.3.4H70h-4.5zm63.5 0l2.8-.4 2.2.4 2.2.4h-5-5zm-6.3-25.8v-.5h.5.5v.5.5h-.5-.5zM64 236v-1h6 6l3-1.5 3-1.5 1.6-2.2 1.6-2.2v1.5 1.5l-2 1.7-2 1.7-3.6 1.5-3.6 1.5h-5-5zm60.5-.3l-2-1.2-1.2-1.5-1.2-1.5v-1-1l1.8 2.3 1.8 2.3 7 .6 7 .6 3.5-2 3.5-2 2-2.6 2-2.6 1.2-5 1.2-5 .1 3.8v3.8l-1.2 2.2-1.2 2.2-2.6 2.8-2.6 2.8-2.7 1.4-2.7 1.4h-5.8-5.8l-2-1.2zm62.8-.1l-2-1.2-1.7-1.4-1.7-1.4-1-2-1-2 3.7 3.5 3.7 3.5 7.7.3 7.7.3 3-2.6 3-2.6h.8.8v.3.3l-4.4 3.2-4.4 3.2h-5.8l-5.8-.1-2-1.2zm65.2.5l-.7-1h6.5 6.5l3.6-3 3.6-3 1.4-2.8 1.4-2.8.2-3.8.2-3.8.6 4.5.6 4.5-1.5 2.6-1.5 2.6-4 3.4-4 3.4-6.3.4-6.3.4zm-191.2-1.8l.7-.7.7.7.7.7H62h-1.3zm183.7-3l-4-4 .5-.5.5-.5 4 4 4 4-.5.5-.5.5zm-186.6 1l-1-.7-2.2-3-2.2-3V221l.1-4.6.8 5.5.8 5.5 3 2.8 3 2.8h-.8-.8zm58-6.5l-.6-3.3.4-5 .4-5 .2 6.3.2 6.3 1 2 1 2h-1-1zm94 1.8l1-2 .7-6 .7-6 .2 6.6.2 6.6-1.7 1.4-1.7 1.4zm-33-3.4l-.6-1 1-.6 1-.6.6 1.5.6 1.5h-1-1zm-90.4-2v-2.5l.5 1.3.5 1.3-.5 1.3-.5 1.3zm153-2v-4.5l.4 2.3.4 2.3-.4 2.3-.4 2.3zm-62.3-6l.8-3 1-2 1-2h.8.8l-2.4 5-2.4 5h-.4-.4zm-29-.1l-.6-2.5-.7-2-.7-2 1.6 2.8 1.6 2.8-.4 1.7-.4 1.7zm-95.8.5v-.5h.5.5v.5.5h-.5-.5zm34 0v-.5h.5.5v.5.5h-.5-.5zm154.7-2l.6-3 1.8-1.7 1.8-1.7h.7.7l-2 2-2 2-1.2 2.7-1.2 2.7zM273 211l-2-4 1.4.5 1.4.5 1.2 3 1.2 3-.6.6-.6.6zM85 211l-1-2 .4-.4.4-.4 1 2.5 1 2.5h-.4-.4zm125.7.6l-.6-1.5h1 1v1.5 1.5h-.4-.4zm-156.6 0v-.5h.5.5v.5.5h-.5-.5zm63-.8v-1.3l3-3 3-3 .4.4.4.4-3.4 3.7-3.4 3.7zM56.5 208l.6-1h.5.5l-.6 1-.6 1h-.5-.5zm149-2l-4-3h-1.4-1.4v-1-1l4.3 2 4.3 2 1.4 2 1.4 2h-.4-.4l-4-3zm-123.6.6v-.5h.5.5v.5.5h-.5-.5zm63 0v-.5h.5.5v.5.5h-.5-.5zm121-2l-3.4-1.5.5-.5.5-.5 2.5 1 2.5 1 .7 1 .7 1h-.3l-.3-.1-3.4-1.5zm-206.3-.1l1.3-.5.6.6.6.6h-2l-2-.1 1.3-.5zm82.5 0l.7-.7.7.7.7.7H143h-1.3l.7-.7zm43.2-.3l1-1 3-.6 3-.6-3.4 1.5-3.4 1.5h-.6-.6zm62.8.3l.7-.7.7.7.7.7H249h-1.3l.7-.7zM65 202.5v-.5h.5.5v.5.5h-.5-.5zm10.3-.2l.7-.7.7.7.7.7H76h-1.3zm50.5 0l1.3-.5.6.6.6.6h-2l-2-.1 1.3-.5zm7.2-.2l-4.5-.6 2-.6 2-.6 4 1.2 4 1.2H139h-1.5l-4.5-.6zm119-.1l1.5-1h.8.8l-.6 1-.6 1h-1.7-1.7zm-184.7-.7l.7-.7.7.7.7.7H68h-1.3zm127.5 0l1.3-.5.6.6.6.6h-2l-2-.1 1.3-.5zm-68.3-28l-2-1.6 2 .7 2 .7 3.6.5 3.6.5 3.4-1.7 3.4-1.7-2.5 2-2.5 2H133h-4.5l-2-1.6zm63 .8l-.6-1 3 .5 3 .5 4.5-1.3 4.5-1.3 4-4.4 4-4.4v1.2 1.2l-2 3-2 3-4.4 2-4.4 2h-4.4-4.4zm68.3.2l1.3-.5.6.6.6.6h-2l-2-.1 1.3-.5zM251 173l-1.5-1h1 1l2 1 2 1H254h-1.5zm11.5 0l.6-1h1.3 1.3l3.6-3.2 3.6-3.2v-1.3-1.3l1-.6 1-.6v1.5 1.5l-3.3 3.3-3.3 3.3-2.8 1.3-2.8 1.3h-.5-.5zM120 169l-3-3v-1-1l.3.4.3.4 3.4 3.7 3.4 3.7h-.7-.7zm65 2v-1l1 .6 1 .6v.4.4h-1-1zm-39-4l2.3-3h.3.3v1.4 1.4l-2.6 1.7-2.6 1.7zm35.4 1l-1.8-2 .5-.5.5-.5 1.8 2 1.8 2-.5.5-.5.5zm61.6-2l-2-3v-.8-.8l2.5 3.4 2.5 3.4v.3.3h-.4-.4zm-64.5-3.8l-.7-1.8 1.2 1.2 1.2 1.2-.6.6-.6.6zm-29-2.3l.6-3.5.4-.4.4-.4v2.4 2.4l-1 1.5-1 1.5.6-3.5zm-33.3-3.5v-6l.4 3.3.4 3.3-.4 2.7-.4 2.7v-6zm96-.5v-6.5l.4 3.3.4 3.3-.4 3.3-.4 3.3zm62.8.7l-.2-4.8-1-2-1-2 1.4.6 1.4.6.3 1.2.3 1.2-.6 5-.6 5zm-35-1.2v-4l.4 2.3.4 2.3-.5 1.7-.5 1.7v-4zm-91-3.7l-1.2-3.2 1.5 2 1.5 2v1.3 1.3h-.3-.3zm28.8.7l.1-2 .5 1.3.5 1.3-.6.6-.6.6v-2zm63-3v-.5h.5.5v.5.5h-.5-.5zM117 148v-1.3l.7.7.7.7-.7.7-.7.7zm93.3.3l.7-.7.7.7.7.7H211h-1.3zm-65.4-4l-2.4-2.7 2.8 2.4 2.8 2.4v.3.3h-.3-.3zm36 1.8v-1.3l.7.7.7.7-.7.7-.7.7zm63.5-1l1.8-2h.4.4l-1.2 2-1.2 2h-1-1zm27 1l-.6-1h1 1v1 1h-.4-.4zm-151-2l.6-1h.5.5l-.6 1-.6 1h-.5-.5zm87.5.5v-.5h.5.5v.5.5h-.5-.5zm-24-1v-.5h.5.5v.5.5h-.5-.5zm82.6-1.6l-2-2h1 1l1.4 1 1.4 1-.4 1-.4 1-2-2zm-126-.6l-.7-.7-6.7-.6-6.7-.6 6.5-.1 6.5-.1 1.5 1 1.5 1-.6.6-.6.6zm63.4.3v-.5h.5.5v.5.5h-.5-.5zm45-.5v-1h1 1l-.6 1-.6 1h-.4-.4zm-124.7-.7l.7-.7.7.7.7.7H125h-1.3zm64.6-.6l.8-.8 5.4.3 5.4.3-6.2.5-6.2.5zm65.8-.4l3.3-.4 3.3.4 3.3.4H258h-6.5zm71-44.8l-.5-.5H163.2 1V64.2 34.5l2-3 2-3 3.8-2.3 3.8-2.3h20.8H54v12.4 12.4l1 3.4 1 3.4 2 2.3 2 2.3 3 1.5 3 1.5 5-.4 5-.4 3.2-2.3 3.2-2.3 2-4.3 2-4.3V36.5 24h77.5H242v12.5V49l1.5 3.8 1.5 3.8 3.6 2.8 3.6 2.8h5 5l3.4-1.7 3.4-1.7 2-2.8 2-2.8.3-14.4.3-14.4h21.2 21.2l3.8 2.3 3.8 2.3 2 3 2 3v30.3V95h-.8-.8l-.5-.5z" fill="#238db8"/><path d="M234.8 307.8l.3-43.2 3-2.8 3-2.8 2.3-.6 2.3-.6 41 .3 41 .3v41 41l-.8 3.8-.8 3.8-3.6 1.5-3.6 1.5h-42-42zM67 299.5v-.5h.5.5v.5.5h-.5-.5zm129.3-.2l.7-.7.7.7.7.7H197h-1.3zm-75.3-3.8v-.5h.5.5v.5.5h-.5-.5zm91.3-13v-4l.4 2.3.4 2.3-.5 1.7-.5 1.7v-4zm-1.3-10v-.5h.5.5v.5.5h-.5-.5zm62-44v-.5h.5.5v.5.5h-.5-.5zm-32-1v-.5h.5.5v.5.5h-.5-.5zm33-1v-.5h.5.5v.5.5h-.5-.5zM212 215v-1.3l.7.7.7.7-.7.7-.7.7zm-3-6.5v-.5h.5.5v.5.5h-.5-.5zm3-48v-.5h.5.5v.5.5h-.5-.5zM1 65.5V37l1.4-3.2 1.4-3.2L6.4 28 9 25.6l14.2-.8 14.2-.8 8 .3 8 .3L54 38l.6 13.5 1 2.6 1 2.6 3.2 2.7 3.2 2.7 2.5.6 2.5.6 4.3-.5 4.3-.5 3-2.3 3-2.3 2-4.3 2-4.3V36.6 24h77.5H242v14 14l3 4.2 3 4.2 3.7 1.5 3.7 1.5 4.7-.6 4.7-.6 2-1.3 2-1.3 2.2-3.5 2.2-3.5.5-14 .5-14 20.5-.3 20.5-.3 2.6 1 2.6 1 3.4 3.5 3.4 3.5.3 30.4.3 30.4H164.5 1z" fill="#0574ca"/><path d="M235 308l.5-43 3.2-3.2 3.2-3.2 42.8-.1 42.8-.1v39 39L327 300l-.5-36.5h-.8-.8L281 307.3 237.3 351H236h-1.4l.5-43zm86 41.5v-.5h.5.5v.5.5h-.5-.5zm3.7-2.5l.5-2 .8-.5.8-.5-.5 2-.5 2-.8.5-.8.5zM67 299.5v-.5h.5.5v.5.5h-.5-.5zm129.3-.2l.7-.7.7.7.7.7H197h-1.3zm-75.3-3.8v-.5h.5.5v.5.5h-.5-.5zm91.3-13v-4l.4 2.3.4 2.3-.5 1.7-.5 1.7v-4zm-1.3-10v-.5h.5.5v.5.5h-.5-.5zm62-44v-.5h.5.5v.5.5h-.5-.5zm1-2v-.5h.5.5v.5.5h-.5-.5zM212 215v-1.3l.7.7.7.7-.7.7-.7.7zm-3-6.5v-.5h.5.5v.5.5h-.5-.5zm3-48v-.5h.5.5v.5.5h-.5-.5zM10.8 93.3L1 93l.2-23.7.2-23.7.3 21.3L2 88h1 1v-2.7-2.7L5 81l1-1.5v5.8V91h15 15v-1-1l-.6-1.6-.6-1.6h-5-5v-1-1h4.8 4.8l1.3-2.7 1.3-2.7v-1-1l1.4-1.4L40 74h2.6H45v-4-4h6 6v-1-1h1.6H60l-2.8-3.7-2.8-3.7 2.5 1.8 2.5 1.8 3 2 3 2 5.8-.5 5.8-.5 1.8-1.6 1.8-1.6h1 1l2.3-4 2.3-4V38 24l1.2.4 1.2.4-.3 5v5l1 .7 1 .7 1-2.3 1-2.3v2.3V36h4 4v-2-2h1 1v-1.5V29h.3.3l8.5-.6 8.5-.6.3-.3.3-.3-14.6-.7-14.6-.7v-1-1h75 75v13.8 13.8l3 4.2 3 4.2 3.7 1.5 3.7 1.5 4.8-.6 4.8-.6 2-1.4 2-1.4 2.3-3 2.3-3L274 39l.5-14.5 20.5-.3 20.5-.3 2.6 1 2.6 1 3.4 3.5 3.4 3.5.3 30.4.3 30.4-153.8-.2-153.8-.2zM53 53.6V51h.4.4l.5 2 .5 2-1 .6-1 .6zm-51.7-13v-5l.4 2.8L2 41l-.4 2.2-.4 2.2zm.7-6V34h.5.5v.5.5h-.5H2zM3.5 31l.6-1h.4.4v1 1H4 3zM8 26.5V26h.5.5v.5.5h-.5H8zm26.8-2.2L41 24l6.3.4 6.3.4H41 28.5z" fill="#0966b1"/><path d="M235 329.8l.1-21.2.7-20 .7-20 .4 11.5.4 11.5.4-3.7.4-3.7h1.4 1.4v-1.4-1.4l2-.6 2-.6 2.6-4 2.6-4h2 2l1.3-1.7 1.3-1.7V267v-1.6l2.4-1.6 2.4-1.6 3-.8 3-.8-6-.6-6-.6 27.5-.3 27.5-.3 4.5-.3 4.5-.3 4.3.5 4.3.5v1 1l-1.5-.6-1.5-.6v1 1l-24 24-24 24v.3.3l-6.7 6.5-6.7 6.5-13.8 13.6-13.8 13.6h-.4-.4zm3-66.2v-.5h.5.5v.5.5h-.5-.5zM138.5 93l-71-.5 36.8-.2L141 92v-1-1h-3.5-3.5v-1-1h-4.2-4.2l2-1 2-1h-1.2-1.2v-1-1h5 5v-2-2h4 4v-3-3h1 1v1 1h2 2v1 1h1 1l-.1-3.7-.1-3.7-1-.7-1-.7 1.6-1.6L154 66h1.6 1.6v-1-1h4.5 4.5v-2-2h6.5 6.5v-2-2h2 2l1-3.7 1-3.7 2.2-.3 2.2-.3V46v-1.8l7.7-1.2 7.7-1.2.3 1 .3 1h3 3v-2-2h-1-1v-2-2h4 4v-2-2h2 2v-1.4-1.4l1.6-.6 1.6-.6h6.3 6.3l.5 1.3.5 1.3.1-1.6v-1.6l-11.7-.8-11.7-.8L156 25l-58.5-.7 72-.2 72-.2v13.5V51l2.4 4.3 2.4 4.3 3.6 1.7 3.6 1.7 2.4.7 2.4.7 4-1.3 4-1.3 3-2.6 3-2.6 1.4-3.2L275 50V37 24h20.5H316l2.7 1.4 2.7 1.4 3 3.2 3 3.2.3 30.5.3 30.5-59.3-.3-59.3-.3zm9.4-9.7l-.1-3.7-.5 1.3-.5 1.3h-3-3v2.5V87h3.5 3.5v-3.7zm90.8-48l-.5-1.8v3 3l.5-1.2.5-1.2-.5-1.8zm81.3-6.8V28h-.5-.5v.5.5h.5.5zM1 92.5V92h.5.5v.5.5h-.5H1zm87-68V24h.5.5v.5.5h-.5-.5zm8 0V24h.5.5v.5.5h-.5-.5z" fill="#0c5da4"/><path d="M235.3 338.3l.7-12.7V316l.1-9.5.7 2.4.7 2.4 1.7-1.7 1.7-1.7h1 1l-.6-1-.6-1h1 1l3.5-3.2 3.5-3.2v-1.8-1.8h2 2v-2-2h1 1v-2-2h2 2v-1-1h3 3v-3-3h2 2l1.7-2 1.7-2h1.2 1.2l.6-2 .6-2h1.7 1.7l1.8-1.3 1.8-1.3v-1.6-1.6l-1.2-.4-1.2-.4.7-.7.7-.7 3.8-1.3 3.8-1.3-.2-1-.2-1h17 17l-.6 1.8-.6 1.8-43.3 43.3L237 349v1 1h-1.2-1.2zM245 93l-81.5-.5 28.8-.2L221 92v-2-2l-5.7-.3-5.7-.3-.3-1.7-.3-1.7h9.6 9.6v-2-2h-1.5-1.5v-2-2h4 4v-2-2h4 4v-1-1h4 4v-2.4V65l4.8-.6 4.8-.6 3.7-.5 3.7-.5.6-1 .6-1h2 2v-1-1l2-3 2-3-.2-14.6V24h20.4 20.4l3 1.5 3 1.5 2 2 2 2-.1 8-.1 8 .4-6.8.4-6.8 1 .6 1 .6v29.4V94l-.7-.2-.7-.2zm48-50v-3h2 2v-2-2h2 2v1.5V39h3.5 3.5v-3.7-3.7l1-1.4 1-1.4 5.6.5 5.6.5-.4-1-.4-1-2.4-.2-2.4-.2-18.5-1-18.5-1h-1.2-1.2v8 8h4.5 4.5v2.5V46h4 4zm23-11.5V31h-.5-.5v.5.5h.5.5zM245 60v-1.3l.7.7.7.7-.7.7-.7.7zm-4-6v-1.3l.7.7.7.7-.7.7-.7.7zm-.7-12.5v-7l.4 3.8.4 3.8-.4 3.2-.4 3.2v-7zm-44-17.2l.7-.7.7.7.7.7H197h-1.3zm17-.1l9.8-.3 9.2.3 9.2.3h-19-19l9.8-.3z" fill="#115594"/></svg>