<svg xmlns="http://www.w3.org/2000/svg" width="224" height="198" xmlns:v="https://vecta.io/nano"><path d="M58 193.2v-4.8l3-3 3-3 16-.3 16-.3v-10-10H50.6 5.3l-2.6-2-2.6-2V81.4 5l2.5-2.5L5 0h107 107l2.5 2.5L224 5v76 76l-2 2.6-2 2.6h-46-46v10 10h15.3 15.3l3.2 2 3.2 2 1 2 1 2-.3 3.7-.3 3.7-54.2.3-54.2.3z" fill="#c9d1d8"/><path d="M58 193.8v-4.2l22 .3 22 .3-.6-1.6-.6-1.6 1.2.8 1.2.8 1.2.2 1.2.2-.5-1.3-.5-1.3-2.2.1-2.2.1-2.2-.1H96v-12-12H50.5 5l-2.5-2.5L0 157l.3-76 .3-76 2.8-2.4L6 0l105.7.2 105.7.2L112 1 6.5 1.5l107 .2 107 .2 2 2.2 2 2.2v75.4V157l-2.5 2.5-2.5 2.5h-45.5H128v10 10h13.3 13.3l3.4 1 3.4 1 2.3 2.2 2.3 2.2v4.8 4.8h-54-54zm50-6.7v-1h-1-1l.6 1 .6 1h.4.4zm2 .5v-.5h-.5-.5v.5.5h.5.5zm110-185V2h-.5-.5v.5.5h.5.5zm-117 185v-.5h.5.5v.5.5h-.5-.5z" fill="#b9c3cc"/><path d="M58 193.8v-4.2h54 54v4.3 4.3h-54-54zM96 174v-12H50.5 5l-2.5-2.5L0 157V82 7l2.5-2.5L5 2h107 107l2.5 2.5L224 7v75 75l-2.5 2.5-2.5 2.5h-45.5H128v12 12h-16-16z" fill="#38d6e1"/><path d="M58 193.8v-4.2h54 54v4.3 4.3h-54-54zM96 174v-12H50.5 5l-2.5-2.5L0 157V82 7l2.5-2.5L5 2h107 107l2.5 2.5L224 7v75 75l-2.5 2.5-2.5 2.5h-45.5H128v12 12h-16-16zM7 55.5V55h-.5H6v.5.5h.5.5zm-1-4l1 .5.6-1 .6-1 2 1 2 1-.6-1.7L11 49l.8.5.8.5 1.5-1 1.5-1H14h-1.5l1.5-1 1.5-1 1.7.5 1.7.5-.7-1.7-.7-1.7 2.6.5 2.6.5-.5-1.2-.5-1.2 1.6-.6L25 41l-.6 1-.6 1h1 1v-1.5V40l2-1 2-1h1.6H33l1.6-1.6 1.6-1.6 2 .5 2 .5-.5-.8-.5-.8 1.8-2 1.8-2 1 2.2 1 2.2-.3-3.2-.3-3.2.8.5.8.5 2.5-.6 2.5-.6-.2-1-.2-1 1.4.3 1.4.3.6-.8.6-.8 2.3-1.3L59 22l1 .7 1 .7-.7-1.2L60 21l1.5-1.5L63 18h.6.6l-1 2-1 2 2-.5 2-.5.6-1 .6-1-1.2.7-1.2.7v-.5-.5l.6-1.6.6-1.6h1.3 1.3l1.3-1.5 1.3-1.5 1.4 1 1.4 1v-1l.1-1-.1-.7V12l2 .4 2 .4 1-2 1-2h1.2 1.2L81 10l-1.5 1h1 1l1.6-2.5L85 6H46 7L5.6 7.6 4 9v23.2l.1 23.2.4-2.3L5 51zm31-18V33h.5.5v.5.5h-.5-.5zM77 11V9.7l.7.7.7.7-.7.7-.7.7zM9 51.5V51h-.5H8v.5.5h.5.5zm9-3V48h-.5-.5v.5.5h.5.5zm4-2V46l-1.2-.7-1.2-.7.7 1.2.7 1.2h.4.4zm3-2V44h-.5-.5v.5.5h.5.5zm3-3V41h-.5-.5v.5.5h.5.5zm4-1V40h-.5-.5v.5.5h.5.5zm15-8V32h-.5-.5v.5.5h.5.5zm22-14V18h-.5-.5v.5.5h.5.5zm4.4-2.2l-1-.7-.7-1-.7-1v1.8V17h1.7 1.7zM89 6.5V6h-.5-.5v.5.5h.5.5z" fill="#9ba4ac"/><path d="M58 193.8v-4.2h54 54v4.3 4.3h-54-54zm38-23V162H50.5 5l-2.5-2.5L0 157V82 7l2.5-2.5L5 2h107 107l2.5 2.5L224 7v75 75l-2.5 2.5-2.5 2.5h-45.4-45.4l-.6 8-.6 8-.6.6-.6.6-15 .1-15 .1zM7 55.5V55h-.5H6v.5.5h.5.5zm-1-4l1 .5.6-1 .6-1 2 1 2 1-.6-1.7L11 49l.8.5.8.5 1.5-1 1.5-1H14h-1.5l1.5-1 1.5-1 1.7.5 1.7.5-.7-1.7-.7-1.7 2.6.5 2.6.5-.5-1.2-.5-1.2 1.6-.6L25 41l-.6 1-.6 1h1 1v-1.5V40l2-1 2-1h1.6H33l1.6-1.6 1.6-1.6 2 .5 2 .5-.5-.8-.5-.8 1.8-2 1.8-2 1 2.2 1 2.2-.3-3.2-.3-3.2.8.5.8.5 2.5-.6 2.5-.6-.2-1-.2-1 1.4.3 1.4.3.6-.8.6-.8 2.3-1.3L59 22l1 .7 1 .7-.7-1.2L60 21l1.5-1.5L63 18h.6.6l-1 2-1 2 2-.5 2-.5.6-1 .6-1-1.2.7-1.2.7v-.5-.5l.6-1.6.6-1.6h1.3 1.3l1.3-1.5 1.3-1.5 1.4 1 1.4 1v-1l.1-1-.1-.7V12l2 .4 2 .4 1-2 1-2h1.2 1.2L81 10l-1.5 1h1 1l1.6-2.5L85 6H46 7L5.6 7.6 4 9v23.2l.1 23.2.4-2.3L5 51zm31-18V33h.5.5v.5.5h-.5-.5zM77 11V9.7l.7.7.7.7-.7.7-.7.7zM9 51.5V51h-.5H8v.5.5h.5.5zm9-3V48h-.5-.5v.5.5h.5.5zm4-2V46l-1.2-.7-1.2-.7.7 1.2.7 1.2h.4.4zm3-2V44h-.5-.5v.5.5h.5.5zm3-3V41h-.5-.5v.5.5h.5.5zm4-1V40h-.5-.5v.5.5h.5.5zm15-8V32h-.5-.5v.5.5h.5.5zm22-14V18h-.5-.5v.5.5h.5.5zm4.4-2.2l-1-.7-.7-1-.7-1v1.8V17h1.7 1.7zM89 6.5V6h-.5-.5v.5.5h.5.5z" fill="#32c8dd"/><path d="M58 193.8v-4.2h54 54v4.3 4.3h-54-54zm38-23V162H50.5 5l-2.5-2.5L0 157V82 7l2.5-2.5L5 2h107 107l2.5 2.5L224 7v75 75l-2.5 2.5-2.5 2.5h-45.4-45.4l-.6 8-.6 8-.6.6-.6.6-15 .1-15 .1zm-89-95l2-2.2V75v1.3l1.8-2 1.8-2L16 71l3.5-1.6.8-.1h.8l2-2 2-2 1 .7 1 .7-.6-1-.6-1 3-1.2 3-1.2.5.1h.5l2.6-2.5 2.6-2.5.7.5.7.5 5.7-4 5.7-4 .5.5.5.5 1.4-2 1.4-2h1.3 1.3l2.6-1.3 2.6-1.3-.7-.7-.7-.7H63l1.4-.1 1-.2 1-.2 1.3-.2L69 42l-.5-.7-.5-.7 1.4-1.3L71 38v.7.7l1.5-1.2 1.5-1.2v.8.8l2-1.8 2-1.8 1.2.8 1.2.8-.6-1-.6-1 2.6-2 2.6-2-1 1.4-1 1.4 1.5-1.2 1.5-1.2.8.7.8.7-.7-1.2L86 30l2.3-1.3 2.3-1.3.8.2.8.2v-1-1h2 2l.7-1.2.7-1.2-1.3.8-1.3.8.7-1 .7-1 2.2.6 2.2.6-.6-1-.6-1 3.5-1.4 3.5-1.4v-.8-.8l.8.2.8.2 5-3 5-3 1.2-1.5 1.2-1.5v1 1l2.2-2 2.2-2-.8 1.3-.8 1.3 2-1.3 2-1.3v-.8V6H66.5 6L5 8l-1 2v34 34h.6.6zm51-30.3V45h.5.5v.5.5h-.5-.5zm-22 15V60h-.5-.5v.5.5h.5.5zm20-12V48h-.5-.5v.5.5h.5.5zm64-36V12h-.5-.5v.5.5h.5.5z" fill="#939ba3"/><path d="M58 193.8v-4.2h54 54v4.3 4.3h-54-54zm38-26.5V162H50.8 5.5L4 160.7l-1.6-1.2-1.2-2.2L0 155V81.3 7.5L1.3 6l1.2-1.6 2.2-1.2L7 2h106 106l2.6 2.5L224 7v74.8 74.8l-1.2 1.6-1.2 1.6-2.2 1.2-2.2 1.2h-44.5H128l-.3 5.2-.3 5.2h-15.7H96v-5.2zM7 75.8l2-2.2V75v1.3l1.8-2 1.8-2L16 71l3.5-1.6.8-.1h.8l2-2 2-2 1 .7 1 .7-.6-1-.6-1 3-1.2 3-1.2.5.1h.5l2.6-2.5 2.6-2.5.7.5.7.5 5.7-4 5.7-4 .5.5.5.5 1.4-2 1.4-2h1.3 1.3l2.6-1.3 2.6-1.3-.7-.7-.7-.7H63l1.4-.1 1-.2 1-.2 1.3-.2L69 42l-.5-.7-.5-.7 1.4-1.3L71 38v.7.7l1.5-1.2 1.5-1.2v.8.8l2-1.8 2-1.8 1.2.8 1.2.8-.6-1-.6-1 2.6-2 2.6-2-1 1.4-1 1.4 1.5-1.2 1.5-1.2.8.7.8.7-.7-1.2L86 30l2.3-1.3 2.3-1.3.8.2.8.2v-1-1h2 2l.7-1.2.7-1.2-1.3.8-1.3.8.7-1 .7-1 2.2.6 2.2.6-.6-1-.6-1 3.5-1.4 3.5-1.4v-.8-.8l.8.2.8.2 5-3 5-3 1.2-1.5 1.2-1.5v1 1l2.2-2 2.2-2-.8 1.3-.8 1.3 2-1.3 2-1.3v-.8V6H66.5 6L5 8l-1 2v34 34h.6.6zm51-30.3V45h.5.5v.5.5h-.5-.5zm-22 15V60h-.5-.5v.5.5h.5.5zm20-12V48h-.5-.5v.5.5h.5.5zm64-36V12h-.5-.5v.5.5h.5.5z" fill="#2ec1da"/><path d="M58 193.8v-4.2h54 54v4.3 4.3h-54-54zm38-26.5V162H50.8 5.5L4 160.7l-1.6-1.2-1.2-2.2L0 155V81.3 7.5L1.3 6l1.2-1.6 2.2-1.2L7 2h106 106l2.6 2.5L224 7v74.8 74.8l-1.2 1.6-1.2 1.6-2.2 1.2-2.2 1.2h-44.5H128l-.3 5.2-.3 5.2h-15.7H96v-5.2zM8 97.5V97h-.5H7v.5.5h.5.5zm2-3.7v-1l1 .6 1 .6v-1.3-1.3l.8 1.2.8 1.2 1.4-2 1.4-2h1.3H19l-.6-1-.6-1 2 .5 2 .5v-1-1h1.4H25l2.7-2.5 2.7-2.5h.8.8l4.4-3 4.4-3h1.7H44l-.6-1-.6-1h1 1l1.6-1.6L48 71v1.3 1.3l1-1.7 1-1.7h1 1l2.8-2 2.8-2 .6.6.6.6v-1.2V65h1.5H62v-1-1l1.5.6 1.5.6v-1-1h1.6H68l-.6-1-.6-1 1.4.6 1.4.6 2.7-2.8 2.7-2.8-.8 1.5-.8 1.5 1.5-1.2 1.5-1.2.7.7.7.7-.7-2-.7-2 1.7.6 1.7.6V54v-.8l3-1.2 3-1.2 1.7-2 1.7-2 .8 1.3.8 1.3v-2-2l2 .5 2 .5-.4-.7-.4-.7 1.4-1.3L97 43v1 1l1.6-1.6 1.6-1.6 1 .5 1 .5.7-1.2.7-1.2-1.4.8-1.4.8 1.5-1.8 1.5-1.8.4 1 .4 1 2.5-2.5 2.5-2.5 1 .5 1 .5.6-1.6.6-1.6.8.5.8.5 1.2-1.5 1.2-1.5h2 2l-.6-1-.6-1h2 2l-.7-1.2-.7-1.2 1.6.6 1.6.6 2.6-2.4L130 24v.7.7l1.2-1.2 1.2-1.2h1.8 1.8v-1-1l3-1.5 3-1.5.8.7.8.7-.7-1.3-.7-1.3 3.2-.6 3.2-.6.4-1.6.4-1.6 2-.1 2-.1-.7 1-.7 1 1.2-.7 1.2-.7-.5-.8-.5-.8 5.2-2.7 5.2-2.7H84.7 6L5 8l-1 2v43.5V97l3-1 3-1zm4-3.3V90h.5.5v.5.5h-.5-.5zm12-6V84h.5.5v.5.5h-.5-.5zm11-4V80h-.5-.5v.5.5h.5.5zm52-30V50h-.5-.5v.5.5h.5.5zm11-6V44h-.5-.5v.5.5h.5.5z" fill="#29b7d6"/><path d="M58 193.8v-4.2h54 54v4.3 4.3h-54-54zm38-26.5V162H50.8 5.5L4 160.7l-1.6-1.2-1.2-2.2L0 155V81.3 7.5L1.3 6l1.2-1.6 2.2-1.2L7 2h106 106l2.6 2.5L224 7v74.8 74.8l-1.2 1.6-1.2 1.6-2.2 1.2-2.2 1.2h-44.5H128l-.3 5.2-.3 5.2h-15.7H96v-5.2zM7 123v-1l2 .5 2 .5-.1-1.6-.1-1.6h1.2H13l1.3-1.2 1.3-1.2h1.2 1.2l.3-1 .3-1 2.2-.2 2.2-.2-.2-1-.2-1 2-.4 2-.4 1.6-1.4 1.6-1.4 1.3 1.2 1.3 1.2-.7-1.3-.7-1.3 2.3-2 2.3-2 .7 1.2.7 1.2v-1.7-1.7l2.4.3 2.4.3-.6-1.5-.6-1.5 1.6.6 1.6.6.6-2.2.6-2.2 1 1.4 1 1.4L48 99l1.2-2.3 1 1.4 1 1.4v-1.3V97l3.7-2.2 3.7-2.2 1.4.3 1.4.3-.6-1-.6-1 4.2-1.8 4.2-1.8 1.7-1.5 1.7-1.5 1 .7 1 .7-.3-1.2-.3-1.2 3.8-2 3.8-2v-1-1l2.6.7 2.6.7-.8-1.3-.8-1.3 1.7.6 1.7.6-.2-1.2-.2-1.2 1.3.3 1.3.3v-1-1h1.2 1.2l3.6-2.7 3.6-2.7 1 .3 1 .3.8-1.2.8-1.2 2.2-.2 2.2-.2 1-1.6 1-1.6 1.6.6 1.6.6-.6-1.6-.6-1.6 2.4.3 2.4.3-.2-1-.2-1h1.5 1.5l1-1 1-1-.4-.6-.4-.6 1.7-.8 1.7-.8 1-.2 1-.2 2.2-.7 2.2-.7-.4-.7-.4-.7 3.4-1.2L136 49v-1-1l2.5.5 2.5.5-1-1.3-1-1.3 1-.6 1-.6v1.3l.1 1.3.5-1.3.5-1.3.7.4.7.4 3.8-3.3 3.8-3.3 2.5.3 2.5.3-.5-.5-.5-.5 1.6-1.6 1.6-1.6.8-.1.8-.1.5-.1h.5.7l.7.1 1-1.6 1-1.6 1 .6 1 .6v-1-1h1.4 1.4l.4-1 .4-1 1.8-.3 1.8-.3 2-1.7 2-1.7v.7.7l1-1.7 1-1.7h2.5 2.5l-.2-1.2-.2-1.2h1.5 1.5l1-1.4 1-1.4 1.7.7 1.7.7-.6-1-.6-1h1.5 1.5l.6-2 .6-2 1.2.7 1.2.7 1.2.2 1.2.2 1.3-1.7 1.3-1.7-1.7 1.4-1.7 1.4v-1-1l4.8-2.5 4.8-2.5h-101-101L5.2 7.2 4 8.4v57.8V124h1.5H7zm61-36.4V86h.5.5v.5.5h-.5-.5zm38-22V64h.5.5v.5.5h-.5-.5zm-80 49v-.5h-.5-.5v.5.5h.5.5zm21-11v-.5h-.5-.5v.5.5h.5.5zm57-35V67h-.5-.5v.5.5h.5.5zm10-5V62h-.5-.5v.5.5h.5.5zm10-7V55h-.5-.5v.5.5h.5.5zM149.5 42l.6-1h-.5-.5l-.6 1-.6 1h.5.5zm11.5-5.5V36h-.5-.5v.5.5h.5.5zm29-17V19h-.5-.5v.5.5h.5.5z" fill="#878f96"/><path d="M58.7 197.3l-.7-.7v-3.3-3.3h54 54v4 4h-53.3-53.3zM4.3 160.8l-2.2-1-1-2.6-1-2.6.3-73.8.3-73.8 2.8-2.4L6 2h105.4H217l2.4 1 2.4 1 1 2.4 1 2.4v73 73l-1 2.4-1 2.4-2.4 1-2.4 1H111.7 6.5zM7 123v-1l2 .5 2 .5-.1-1.6-.1-1.6h1.2H13l1.3-1.2 1.3-1.2h1.2 1.2l.3-1 .3-1 2.2-.2 2.2-.2-.2-1-.2-1 2-.4 2-.4 1.6-1.4 1.6-1.4 1.3 1.2 1.3 1.2-.7-1.3-.7-1.3 2.3-2 2.3-2 .7 1.2.7 1.2v-1.7-1.7l2.4.3 2.4.3-.6-1.5-.6-1.5 1.6.6 1.6.6.6-2.2.6-2.2 1 1.4 1 1.4L48 99l1.2-2.3 1 1.4 1 1.4v-1.3V97l3.7-2.2 3.7-2.2 1.4.3 1.4.3-.6-1-.6-1 4.2-1.8 4.2-1.8 1.7-1.5 1.7-1.5 1 .7 1 .7-.3-1.2-.3-1.2 3.8-2 3.8-2v-1-1l2.6.7 2.6.7-.8-1.3-.8-1.3 1.7.6 1.7.6-.2-1.2-.2-1.2 1.3.3 1.3.3v-1-1h1.2 1.2l3.6-2.7 3.6-2.7 1 .3 1 .3.8-1.2.8-1.2 2.2-.2 2.2-.2 1-1.6 1-1.6 1.6.6 1.6.6-.6-1.6-.6-1.6 2.4.3 2.4.3-.2-1-.2-1h1.5 1.5l1-1 1-1-.4-.6-.4-.6 1.7-.8 1.7-.8 1-.2 1-.2 2.2-.7 2.2-.7-.4-.7-.4-.7 3.4-1.2L136 49v-1-1l2.5.5 2.5.5-1-1.3-1-1.3 1-.6 1-.6v1.3l.1 1.3.5-1.3.5-1.3.7.4.7.4 3.8-3.3 3.8-3.3 2.5.3 2.5.3-.5-.5-.5-.5 1.6-1.6 1.6-1.6.8-.1.8-.1.5-.1h.5.7l.7.1 1-1.6 1-1.6 1 .6 1 .6v-1-1h1.4 1.4l.4-1 .4-1 1.8-.3 1.8-.3 2-1.7 2-1.7v.7.7l1-1.7 1-1.7h2.5 2.5l-.2-1.2-.2-1.2h1.5 1.5l1-1.4 1-1.4 1.7.7 1.7.7-.6-1-.6-1h1.5 1.5l.6-2 .6-2 1.2.7 1.2.7 1.2.2 1.2.2 1.3-1.7 1.3-1.7-1.7 1.4-1.7 1.4v-1-1l4.8-2.5 4.8-2.5h-101-101L5.2 7.2 4 8.4v57.8V124h1.5H7zm61-36.4V86h.5.5v.5.5h-.5-.5zm38-22V64h.5.5v.5.5h-.5-.5zm-80 49v-.5h-.5-.5v.5.5h.5.5zm21-11v-.5h-.5-.5v.5.5h.5.5zm57-35V67h-.5-.5v.5.5h.5.5zm10-5V62h-.5-.5v.5.5h.5.5zm10-7V55h-.5-.5v.5.5h.5.5zM149.5 42l.6-1h-.5-.5l-.6 1-.6 1h.5.5zm11.5-5.5V36h-.5-.5v.5.5h.5.5zm29-17V19h-.5-.5v.5.5h.5.5z" fill="#23a8d1"/><path d="M58.7 197.3l-.7-.7v-3.3-3.3h54 54v4 4h-53.3-53.3zM4.3 160.8l-2.2-1-1-2.6-1-2.6.3-73.8.3-73.8 2.8-2.4L6 2h105.4H217l2.4 1 2.4 1 1 2.4 1 2.4v73 73l-1 2.4-1 2.4-2.4 1-2.4 1H111.7 6.5zm3.4-11l1.6.6-.7-1-.7-1 1.8-1 1.8-1 1.4.5 1.4.5-.6-1.5-.6-1.5 2.3.3 2.3.3-.6-1.5-.6-1.5 1.2.8 1.2.8 2-2 2-2h1.5H26l1.4-1.4 1.4-1.4-.5-.6-.5-.6.7.5.7.5 1.5-1.2 1.5-1.2-1 1.5-1 1.5 2-1.8 2-1.8 2 .6 2 .6-1.2-1-1.2-1 1.7-1 1.7-1 1.7.3 1.7.3-.2-1-.2-1h1.3H45l.7-1 .7-1 5-3 5-3 .7-1 .7-1v1 1l2.6-3 2.6-3-.6 2-.6 2 1.4-1.8 1.4-1.8 1.3-.2 1.3-.2 1.4-1 1.4-1-.7 1.4-.7 1.4 1.4-1.7 1.4-1.7.7.7.7.7-.3-1.5-.3-1.5 1.7.1 1.7.1-.5-.8-.5-.8 1.7-.8 1.7-.8 1.3.2H81l.6-1.5.6-1.5 1.4.5 1.4.5V105l.1-1.4v-.6l-.1-.6 2.2.2 2.2.2 1.5-1.8 1.5-1.8 2.4-.3 2.4-.3 1.2-1.7 1.2-1.7 2.4-.5 2.4-.5.3-1 .3-1h2 2l-.6-1-.6-1h1 1l-.8-1.2-.8-1.2 2 1.5 2 1.5-.6-1.6-.6-1.6h1.7 1.7l1.3-.1h1.2v-1.5V84l1.3.3 1.3.3-.3-1.4-.3-1.4 1.6 1.3 1.6 1.3v-1-1l4-2 4-2 .5-1.3.5-1.3 1.5.6 1.5.6V76 75l1 .6 1 .6v-1-1l2.2-.7 2.2-.7 1.4-1.4L143 70h2 2v-1-1l3.5-1.7 3.5-1.7v-.8-.8h1 1l-.7 1.3-.7 1.3 2.2-2.3 2.2-2.3 3-.6 3-.6v-1.5-1.5l2 .5 2 .5 1.8-2.2 1.8-2.2 4-2 4-2 1.3-1.3L183 47h1l1-.1.8-.1.8-.1 1.8-1.7L190 43h1.5 1.5l.6-1.6.6-1.6 1.4.5 1.4.5v-1.5V38h1l1-.1.8-.2.8-.2 2.3-1.2L205 35v.6.6l1.4-1.3 1.4-1.3 2-1.7 2-1.7v.5.5l2.5-1.6 2.5-1.6v.7.7l1.5-1.5L220 26v-8.5V9l-1.6-1.6L217 6H111.6 6.4L5.2 7.2 4 8.4V78v69.7l.7 1.8.7 1.8.4-1 .4-1zM96 96.5V96h.5.5v.5.5h-.5-.5zm18-11V85h.5.5v.5.5h-.5-.5zm31-17V68h.5.5v.5.5h-.5-.5zm18-10V58h.5.5v.5.5h-.5-.5zm5-2.4v-1l1.6-.6 1.6-.6-1.3 1.5-1.3 1.5h-.4-.4zm11-7.6V48h.5.5v.5.5h-.5-.5zm-156 93v-.5h-.5-.5v.5.5h.5.5zm2-1v-.5h-.5-.5v.5.5h.5.5zm4-2v-.5h-.5-.5v.5.5h.5.5zm72-42V96h-.5-.5v.5.5h.5.5zm31-19V77h-.5-.5v.5.5h.5.5zm13-6V71h-.5-.5v.5.5h.5.5zm35-20V51h-.5-.5v.5.5h.5.5zm36-21V30h-.5-.5v.5.5h.5.5z" fill="#1fa0ce"/><path d="M58.7 197.3l-.7-.7v-3.3-3.3h54 54v4 4h-53.3-53.3zM4.3 160.8l-2.2-1-1-2.6-1-2.6.3-73.8.3-73.8 2.8-2.4L6 2h105.4H217l2.4 1 2.4 1 1 2.4 1 2.4v73 73l-1 2.4-1 2.4-2.4 1-2.4 1H111.7 6.5zm13.2-4.7l4-2 1 .6 1 .6-.6-1-.6-1 2.5-1.2L27 151l1 .7 1 .7-.6-1.6-.6-1.6 2.2-.6 2.2-.6h.5.5l1.5-1.3 1.5-1.3 1.8.3 1.8.3-1-1.3-1-1.3 2.8.4 2.8.4-1.3-1-1.3-1 3.5-1.4 3.5-1.4v-.7-.7l2.3-.8 2.3-.8.8-.2.8-.2 1-.1h1l-.7-1.2-.7-1.2 2 .6 2 .6-.1-.6v-.6l.1-1.3V131l1 .6 1 .6.6-1 .6-1 1 .5 1 .5 1-1.8 1-1.8v.8.8l3.5-2.7 3.5-2.7 1.5.6 1.5.6-.2-1-.2-1 2.5-.7 2.5-.7-1-.1h-1l1.8-1 1.8-1 1 .6 1 .6 1.4-2 1.4-2 1.4-.3 1.4-.3 2.5-2.2 2.5-2.2.8.5.8.5 2-1.8 2-1.8h.7.7l2.2-.7 2.2-.7.6-1.5.6-1.5 1 .6 1 .6v-1-1l2-.5 2-.5.4.2.4.2 2.2-2.7L118 97h1.2 1.2l-1.5 1-1.5 1h1 1l2.2-2.5L124 94h1.5 1.5v-.8-.8l3.3-1.5 3.3-1.5h1.5 1.5v-1.2V87h.8.8l1.5-1.5L141 84h1 1l-.6 1.3-.6 1.3 2-2.4 2-2.4 1.6.6 1.6.6.6-2 .6-2 1.2-.2 1.2-.2 1.5-.1 1.5-.1-.2-1-.2-1 1.5-.6 1.5-.6-.6 1.2-.6 1.2 2-2.3 2-2.3 2 .7 2 .7-.6-1-.6-1 1.4-1.3L166 70v1.3 1.3l1.6-2.2L169 68l1 .6 1 .6v-1-1l1 .6 1 .6v-1-1l1.8.6 1.8.6-.7-.8-.7-.8 1.4-1.4L178 63l1 .6 1 .6v-1-1h1.5 1.5v-1-1h2 2l1-2 1-2 .8 1.2.8 1.2 1.5-2.2 1.5-2.2 1.2.8 1.2.8-.7-1.2-.7-1.2h2 2l-.8-1.2-.8-1.2 1.7 1.4 1.7 1.4v-1.6V50h1.5 1.5v-1-1l3.3-1.3 3.3-1.3.5-.6.5-.6 4-2 4-2 .3-15.6.3-15.6-1.6-1.6L217 6H111.6 6.4L5.2 7.2 4 8.4v73 73l1.7 1.8 1.7 1.8h3.2 3.2zM83 118.5v-.5h.5.5v.5.5h-.5-.5zm134-78V40h.5.5v.5.5h-.5-.5zm-171 101v-.5h-.5-.5v.5.5h.5.5zm83-48V93h-.5-.5v.5.5h.5.5zm17-10V83h-.5-.5v.5.5h.5.5zm39-22V61h-.5-.5v.5.5h.5.5zm23-13V48h-.5-.5v.5.5h.5.5z" fill="#1d9bcd"/><path d="M58.7 197.3l-.7-.7v-3.3-3.3h54 54v4 4h-53.3-53.3zM4.3 160.8l-2.2-1-1-2.6-1-2.6.3-73.8.3-73.8 2.8-2.4L6 2h105.4H217l2.4 1 2.4 1 1 2.4 1 2.4v73 73l-1 2.4-1 2.4-2.4 1-2.4 1H111.7 6.5zm35.7-4v-1.2l1 1.5 1 1.5v-1.3-1.3l1 .6 1 .6v-1.3l.1-1.3-.1-.7v-.7h.5.5l1 2.3 1 2.3v-1.7-1.7h1.4 1.4l2.6-2 2.6-2v.8.8l1.4-2 1.4-2 .7.7.7.7 1.4-1 1.4-1-1.2-1.6-1.2-1.6.8.7.8.7 2-1 2-1-1.5 2-1.5 2 3-2.5 3-2.5-.7 1.2-.7 1.2 1.6-.6 1.6-.6v-2-2h1 1l-.6 1-.6 1h1.6H74l-.2-1.2-.2-1.2 2 .3 2 .3-1.4-1.8-1.4-1.8 1 .8 1 .8 2.3-1.5L81 134l1.6.6 1.6.6-.3-1.4-.3-1.4 1.7.3 1.7.3-.5-1.4-.5-1.4 2.4.5 2.4.5 2.5-3 2.5-3 1.7 1 1.7 1v-1.6-1.6l-1.2.7-1.2.7.8-1.2.8-1.2 1 1 1 1 1.4-1.4 1.4-1.4v-1-1l1.2-.7 1.2-.7-.6 1.5-.6 1.5 3-1 3-1v-.6-.6l2.2-2.4 2.2-2.4-.6 1.8-.6 1.8h1 1v-1.5-1.5h1.6 1.6l-.6-1-.6-1 2 .5 2 .5v-1-1l2-.6 2-.6-.6-1.6-.6-1.6h1 1l.6 1.5.6 1.5h1 1l-.6-1-.6-1 1.6-1.6 1.6-1.6 1 .6 1 .6-.3-1.3-.3-1.3 1.3-.2 1.3-.2 1-.1h1l2-2.2 2-2.2v1.2 1.2h1 1l-.5-1.4-.5-1.4 1.6-.6 1.6-.6-.8-1.3-.8-1.3 1.7 1.4 1.7 1.4 1-1 1-1 1.4.5 1.4.5 1-2.7 1-2.7 3 .5 3 .5-.5-.8-.5-.8 1.4-2 1.4-2v1.3V89l1-.6 1-.6-.6-1-.6-1h1 1l-.5-1-.5-1 3 .3 3 .3.6-1 .6-1 1 .7 1 .7-.8-1.3-.8-1.3 1.8.7 1.8.7-.5-2-.5-2 1.2 1 1.2 1 1.7-1.8 1.7-1.8-.7-.8-.7-.8 1.8 1.4 1.8 1.4-.3-1.4-.3-1.4h2 2l1.3-1 1.3-1-.5-1.2-.5-1.2 2.4.5 2.4.5 2.5-2.7L197 67v1.8l.1 1.8.5-1.8.5-1.8 1 .5 1 .5.7-1.2.7-1.2-1 .6-1 .6-.5-1.3-.5-1.3 1.6-.2 1.6-.2 2.2-.3 2.2-.3 3-3.3 3-3.3.4 1.2.4 1.2 1.7.2 1.7.2-1-1.8-1-1.8 2.7-.3 2.7-.3.3-23.5.3-23.5-1.7-1.3-1.7-1.3h-105-105L5.2 7.2 4 8.4v73.2V155l1.6 1.6 1.6 1.6h16.4l16.4-.1v-1.2zm10-5.5v-1l1.6-.6 1.6-.6-.4 1.2-.4 1.2-1.2.4-1.2.4zm-2-.7v-.5h.5.5v.5.5h-.5-.5zm6-2v-.5h.5.5v.5.5h-.5-.5zm5-1v-.5h.5.5v.5.5h-.5-.5zm9-7v-.5h.5.5v.5.5h-.5-.5zm4-3v-.5h.5.5v.5.5h-.5-.5zm18-8v-.5h.5.5v.5.5h-.5-.5zm-2-1v-.5h.5.5v.5.5h-.5-.5zm4-2.5v-1.3l.7.7.7.7-.7.7-.7.7zm8-4.5v-.5h.5.5v.5.5h-.5-.5zm19-10v-.5h.5.5v.5.5h-.5-.5zm4-2v-.5h.5.5v.5.5h-.5-.5zm4-2.5v-1.3l.7.7.7.7-.7.7-.7.7zm7-5.5v-.5h.5.5v.5.5h-.5-.5zm23-11V90h.5.5v.5.5h-.5-.5zm.3-2.2l.7-.7.7.7.7.7H158h-1.3zm12-5.8V81l.8.5.8.5-.6 1-.6 1h-.3-.3zm1.7-2V80h.5.5v.5.5h-.5-.5zm14-8V72h.5.5v.5.5h-.5-.5zm6-2V70h.5.5v.5.5h-.5-.5zm5-5V65h.5.5v.5.5h-.5-.5zm9.6-3.8l.7-1.8.6.6.6.6-1.2 1.2-1.2 1.2zm7.4-3.2V58h.5.5v.5.5h-.5-.5zm3.8-4.2l1.3-.5.6.6.6.6h-2l-2-.1zm-136 81l-.7-.7v1.3 1.3l.7-.7.7-.7zm20.3-8.8v-.5h-.5-.5v.5.5h.5.5zm31-19v-.5h-.5-.5v.5.5h.5.5zm13-8V99h-.5-.5v.5.5h.5.5zm2-1V98l-1.2-.7-1.2-.7.7 1.2.7 1.2h.4.4zm32-19V79h-.5-.5v.5.5h.5.5zM211.5 61l.6-1h-.5-.5l-.6 1-.6 1h.5.5z" fill="#1993ca"/><path d="M58.7 197.3l-.7-.7v-3.3-3.3h54 54v4 4h-53.3-53.3zM4.3 160.8l-2.2-1-1-2.6-1-2.6.3-73.8.3-73.8 2.8-2.4L6 2h105.4H217l2.4 1 2.4 1 1 2.4 1 2.4v73 73l-1 2.4-1 2.4-2.4 1-2.4 1H111.7 6.5zm75-4.3l.6-1.5h2 2l-.7-1.2-.7-1.2 2 .6 2 .6 1-1.3 1-1.3-.8-.4-.8-.4 1.5.4 1.5.4 1.4.1 1.4.1.3-1.3.3-1.3-.5 1-.5 1h-1-1l1.8-2 1.8-2 1 .5 1 .5v-1-1l1.5.6 1.5.6-.7-2-.7-2 .8.7.8.7 3-1.6 3-1.6 3-2 3-2 .7-1 .7-1v1 1l1.2-1.5 1.2-1.5 1.5.1 1.5.1 1.3-1.8 1.3-1.8 1 .7 1 .7 1.3-1.8 1.3-1.8v1 1l1.4-2 1.4-2 2 1.2 2 1.2-.5-2-.5-2h1l1-.1.8-.1.8-.1 1.8-1.7 1.8-1.7h.6.6l-1 1.3-1 1.3 2.4-2.5 2.4-2.5-.6 1.2-.6 1.2 1.2.7 1.2.7-.6-1-.6-1 .7-1 .7-1 4-2.4 4-2.4-.6 1.7-.6 1.7h.5.5l2-2 2-2h1.3 1.3v-1-1l-1.7.5-1.7.5 1.8-1 1.8-1 1.2.7 1.2.7-.6-1.7-.6-1.7h2 2v-1-1l1.6 1.3 1.6 1.3-.3-1.4-.3-1.4 2.3-.3 2.3-.3v-1-1l2.8.6 2.8.6-1.5-1-1.5-1 .5-.3.5-.3 3.3-2.3 3.3-2.3 1.4.5 1.4.5.6-1 .6-1 .8.5.8.5-.1-1.6-.1-1.6 1.8-.3 1.8-.3 2-1.7 2-1.7v.7.7l2.2-2 2.2-2h3 3l-1.3-.8-1.3-.8 1.3-1 1.3-1 1.8.3 1.8.3-.6-1.5-.6-1.5 2.5.5 2.5.5v-1.4-1.4l1.3.5 1.3.5 2.4-2 2.4-2-.8 1.4-.8 1.4 1.2-.7 1.2-.7V42.6 8.4l-1.2-1.2-1.2-1.2H112 6.4L5.2 7.2 4 8.4v73.8V156l1.8 1 1.8 1H43h35.6l.6-1.5zm6.6-4v-.5h.5.5v.5.5h-.5-.5zm67-39.5v-1h1 1v1 1h-1-1zm30.3-17.7l.7-.7.7.7.7.7H184h-1.3zM82 157.6v-.4l-1.2-.7-1.2-.7.7 1.2.7 1.2h.4.4zm22-13v-.5h-.5-.5v.5.5h.5.5zm18-11v-.5h-.5-.5v.5.5h.5.5zm7-4v-.5h-.5-.5v.5.5h.5.5zm6.5-2.5l.6-1h-.5-.5l-.6 1-.6 1h.5.5zm2.2-1.7l-.7-.7v1.3 1.3l.7-.7.7-.7zm31.3-17.8v-.5h-.5-.5v.5.5h.5.5zm9-6v-.5h-.5-.5v.5.5h.5.5zm4-1v-.5h-.5-.5v.5.5h.5.5zm19-11V89h-.5-.5v.5.5h.5.5zm5-4V85l-1.2-.7-1.2-.7.7 1.2.7 1.2h.4.4zm12-6V79h-.5-.5v.5.5h.5.5z" fill="#1388c6"/><path d="M58.7 197.3l-.7-.7v-3.3-3.3h54 54v4 4h-53.3-53.3zM4.3 160.8l-2.2-1-1-2.6-1-2.6.3-73.8.3-73.8 2.8-2.4L6 2h105.4H217l2.4 1 2.4 1 1 2.4 1 2.4v73 73l-1 2.4-1 2.4-2.4 1-2.4 1H111.7 6.5zm125-3.5l-1.3-.5 1-1.3 1-1.3 1.3.5 1.3.5 1.6-2.3 1.6-2.3.6.2.6.2 1 1.3 1 1.3-.3-2-.3-2 2.3-.3 2.3-.3v-1-1h2 2l2.4-2.2 2.4-2.2 2.3.1 2.3.1.5-2 .5-2 1 .6 1 .6.6-1.6.6-1.6 1 .6 1 .6 1.5-1.2 1.5-1.2v.7.7l1.4-1.3 1.4-1.3-.4-.6-.4-.6 2-.5 2-.5v1.2 1.2l1-1.5 1-1.5-.6-1-.6-1 1 .7 1 .7 3.3-2.8 3.3-2.8-.8 1.2-.8 1.2 1.8-.6 1.8-.6 1.8-1.5 1.8-1.5v-1.4-1.4l2 .6 2 .6.7-1 .7-1 .8.5.8.5 2.3-2.5 2.3-2.5.8 1.3.8 1.3v-1.8-1.8l1 .6 1 .6v-1-1l2.3-.7 2.3-.7 2.2-2 2.2-2 1 .7 1 .7v-1.6-1.6l1 .6 1 .6.6-1 .6-1h2 2l-.6-1-.6-1 1-.6 1-.6V55.6 8.4l-1.2-1.2-1.2-1.2H112 6.4L5.2 7.2 4 8.4V82v73.6l1.2 1.2 1.2 1.2h62l62-.1zm19.8-14.8v-.5h.5.5v.5.5h-.5-.5zm13-6v-.5h.5.5v.5.5h-.5-.5zm20.5-11.5l.6-1h.5.5l-.6 1-.6 1h-.5-.5zm-6.5 6.5v-.5h-.5-.5v.5.5h.5.5zm11.7-9.2l-.7-.7v1.3 1.3l.7-.7.7-.7zm22.3-11.8v-.5h-.5-.5v.5.5h.5.5z" fill="#0d7ac1"/><path d="M58.7 197.3l-.7-.7v-3.3-3.3h54 54v4 4h-53.3-53.3zM4.3 160.8l-2.2-1-1-2.6-1-2.6.3-73.8.3-73.8 2.8-2.4L6 2h105.4H217l2.4 1 2.4 1 1 2.4 1 2.4v73 73l-1 2.4-1 2.4-2.4 1-2.4 1H111.7 6.5zm166.3-3.6l-.5-.8h1.5 1.5v.8.8h1 1l-.2-1.2-.2-1.2h2 2l-.1-1.7-.1-1.7h.3.3l1.6 1.6 1.6 1.6v-2-2h1.3l1.3-.1 1-.2 1-.2 2-.2h2l-1.4-1-1.4-1 2-.7 2-.7 1.2.7 1.2.7-.7-1-.7-1 2-.6 2-.6.5-2 .5-2 2-.5 2-.5v-1-1l1 1 1 1 1.4-.5 1.4-.5v-1-1l-1.3 1-1.3 1v-1.5-1.5l.5.5.5.5 1.5-1.2 1.5-1.2-.8 1.3-.8 1.3h2 2v-1-1l1 .6 1 .6-.6-1.5-.6-1.5 1-.7 1-.7v1.6 1.6l1-.6 1-.6-.7-1-.7-1 1 .6 1 .6 2-1.5 2-1.5-1.5.7-1.5.7 1.3-1.3 1.3-1.3v-60-60l-1.2-1.2-1.2-1.2H112 6.4L5.2 7.2 4 8.4V82v73.6l1.2 1.2 1.2 1.2h82.4H171l-.5-.8zm6.4-2.7v-.5h.5.5v.5.5h-.5-.5zm3-3v-.5h.5.5v.5.5h-.5-.5zm5-3v-.5h.5.5v.5.5h-.5-.5zm8-4.5v-1.3l.7.7.7.7-.7.7-.7.7zm2-.5v-.5h.5.5v.5.5h-.5-.5zm14-8v-.5h.5.5v.5.5h-.5-.5zm-25 17v-.5h-.5-.5v.5.5h.5.5zm19-11.5v-1l-1.5.6-1.5.6v.4.4h1.5 1.5z" fill="#0970bd"/><path d="M58.7 197.3l-.7-.7v-3.3-3.3h54 54v4 4h-53.3-53.3zM4.3 160.8l-2.2-1-1-2.6-1-2.6.3-73.8.3-73.8 2.8-2.4L6 2h105.4H217l2.4 1 2.4 1 1 2.4 1 2.4v73 73l-1 2.4-1 2.4-2.4 1-2.4 1H111.7 6.5zm214.5-4l1.2-1.2V82 8.4l-1.2-1.2-1.2-1.2H112 6.4L5.2 7.2 4 8.4V82v73.6l1.2 1.2 1.2 1.2H112h105.6z" fill="#585d62"/><path d="M58.7 197.3l-.7-.7v-3.3-3.3h54 54l-.3 3.8-.3 3.8-53 .3-53 .3zM5 160.7l-2.5-1.3-1.3-2.5-1.3-2.5v-38.7V77l1-.6 1-.6v-1.2-1.2L1 75l-1 1.5v-1.3V74l1.5-.6 1.5-.6-.6-1-.6-1 1 .7 1 .7v41.6 41.6l1 1.3 1 1.3H112h105.7l1.2-1.2 1.2-1.2V81.4 7l-1-.5-1-.5h-49.7H119l.6-1 .6-1 1.4.5 1.4.5-.2-1-.2-1 2.8-.2 2.8-.2.5.8.5.8h1.2 1.2L130 3l-1.5-1h1.8 1.8v1.3 1.3l.8-1.3.8-1.3 42.6.3 42.6.3 2.3 2.3 2.3 2.3v75 75l-2.3 2.3-2.3 2.3-105.7.2-105.7.2zM3 69v-1.3l.7.7.7.7-.7.7-.7.7zm-3-.5V68h.5.5v.5.5H.5 0zm115-63v-.4l1.6-.6L118 4l-.6 1-.6 1h-1-1z" fill="#52575c"/><path d="M58.7 197.3l-.7-.7v-3.3-3.3h54 54l-.3 3.8-.3 3.8-53 .3-53 .3zm2.3-35.7v-.4l1.6-.6 1.6-.6-.6 1-.6 1h-1-1zm4.5-.6l-.7-1 1.3.3 1.3.3-.2-1.2-.2-1.2 2.5.3 2.5.3.7.7.7.7h1 1l-1.5-1-1.5-1H145h72.6l1-1.3 1-1.3v-41.6-41.6l2-.5 2-.5-.2 43-.2 43-2.3 2.3-2.3 2.3-74.4.2-74.4.2-.6-1-.6-1-1.3 1-1.3 1zm6.5-1.5v-.5h-.5-.5v.5.5h.5.5zm5 0v-.5h-.5-.5v.5.5h.5.5zm-12-1v-.5h.5.5v.5.5h-.5-.5zm157-89V69h.5.5v.5.5h-.5-.5zm0-2.5v-1.3l.7.7.7.7-.7.7-.7.7z" fill="#44484c"/></svg>