<svg xmlns="http://www.w3.org/2000/svg" viewBox="0 0 500 500"><g fill="#141414"><path d="M246 62c10-2 20 4 24 14 2 7 1 15 1 22v164c0 9 1 18-3 26-4 6-11 10-18 10-8 0-15-4-19-11-3-8-2-17-2-25V98c0-8-1-16 2-24 3-6 9-11 15-12z"/><path d="M183 107c10-3 22 3 25 13 3 8 1 17-5 22l-11 7a131 131 0 006 237 126 126 0 0067 9c28-2 56-16 76-36a129 129 0 0034-132c-6-19-17-37-31-52-8-8-17-16-27-21l-18-9a21 21 0 0123-36 173 173 0 0134 292 178 178 0 01-106 37 179 179 0 01-105-35c-9-8-18-15-25-25a171 171 0 01-26-184c14-32 38-59 68-76l21-11z"/></g></svg>