<svg xmlns="http://www.w3.org/2000/svg" viewBox="0 0 1024 1024"><g fill="#d63b00"><path d="M397 0h61l2 3h23l7 1a476 476 0 01236 91 562 562 0 0175 67 517 517 0 01137 321l1 27c0 18-1 36-5 53-2 14-7 27-11 41-10 23-21 45-37 64-6 8-12 16-19 22-41 44-99 72-159 77l-20 1h-30c-21-1-41-4-62-7v-37-44c7 0 13 2 20 1 8 2 17 1 25 1 8 1 17-1 25-2a172 172 0 00144-162c0-10 1-19-1-29l-3-31c-3-19-7-37-14-55a280 280 0 00-30-66c-9-15-20-30-32-44l-11-13-17-17c-20-20-44-36-68-50l-22-10-14-7-2 1V49l-1-9-30 5-14 4c-11 6-23 11-33 19-30 23-51 61-50 100l-1 3h-12l-17 2-34 4-29 7-18 6c-14 3-27 10-41 14-12 5-25 7-37 9-12 1-23 2-35 0-18-2-36-10-49-24a82 82 0 01-23-77c4-20 16-38 33-50 9-7 19-12 29-17l20-9c37-16 77-28 117-33h5a158 158 0 0120 0l1-3zM216 288c3-6 10-11 17-11 6 0 12 2 17 6 4 4 6 9 6 14 2 10 0 20 1 30 7 84 41 164 96 226l27 27 34 29-29 30-13 12-9-7-27-27-20-25-25-32-19-33c-5-9-11-18-15-28-24-52-38-108-43-164l-1-24c1-8-2-16 3-23z"/></g><path fill="#e6e6e6" d="M565 45l30-5 1 9v335h-44V269 104l-1-55 14-4z"/><path fill="#c7c7c7" d="M518 68c10-8 22-13 33-19l1 55v280h44v340l-69 1h-59v-2-160l-1-7 1-1v-60-327c-1-39 20-77 50-100m10 487c-6 1-11 6-14 12-2 5-2 11-1 16 3 8 10 14 18 15 6 0 13-1 17-6 9-8 9-24 0-32-5-5-13-7-20-5z"/><g fill="#9b9b9b"><path d="M719 305l11-12a345 345 0 0152 84c4 8 8 17 10 26L596 600V492v-67l2 2 9-10 112-112zM414 609l53-53 1 7v160l-83-84 29-30z"/></g><path fill="#f2f2f2" d="M528 555c7-2 15 0 20 5 9 8 9 24 0 32-4 5-11 6-17 6-8-1-15-7-18-15-1-5-1-11 1-16 3-6 8-11 14-12z"/><path fill="#086bbc" d="M372 651l13-12 83 84v5l-8 8-129 129a116 116 0 01-81 31 118 118 0 01-122-105v-24l2-20 2-2c0-6 3-11 5-17 2-7 6-13 10-19a122 122 0 01157-41c8 3 14 7 20 12l10 9 38-38m-132 61c-3 2-6 2-9 2l-5 2a64 64 0 00-41 57 64 64 0 0057 65c11 2 23-1 34-5 6-4 13-8 18-14 7-7 12-16 16-25v-8l2-1c0-8 1-15-1-22-2-13-9-24-18-33a62 62 0 00-39-18h-14z"/><path fill="#1492df" d="M527 725l69-1v56c0 2 2 3 3 3a118 118 0 0170 29 117 117 0 0137 61c3 14 5 28 3 42a120 120 0 01-82 103l-9 3h-6l-6 1-1 2h-31c-3-3-7-3-11-3h-4c-10-2-20-7-29-12a120 120 0 01-62-104V728v-3h59m53 115c-3 2-6 2-9 2l-5 2c-11 4-20 11-27 20l-9 14c-3 9-5 18-5 27l2 14c4 15 13 29 26 37 11 7 24 11 37 11 9 0 17-3 25-6l12-7c10-8 17-18 21-29 2-3 2-7 2-11l2-1c0-8 1-15-1-22-2-12-9-24-18-32-8-9-20-16-32-18-7-2-14-1-21-1z"/></svg>
