<svg xmlns="http://www.w3.org/2000/svg" fill="none" viewBox="0 0 256 256"><mask id="a" width="256" height="256" x="0" y="0" maskUnits="userSpaceOnUse"><path fill="#fff" fill-rule="evenodd" d="M182 254c4 2 8 2 12 0l53-26c5-2 9-8 9-14V42c0-6-4-12-9-14L194 2a16 16 0 00-18 3L75 97 31 64c-4-3-10-3-13 1L3 77c-4 5-4 12 0 16l39 35-39 35c-4 4-4 11 0 16l15 12c3 4 9 4 13 1l44-33 101 92 6 3zm10-184l-77 58 77 58V70z" clip-rule="evenodd"/></mask><g mask="url(#a)"><path fill="#0065A9" d="M247 28L194 2c-6-3-13-1-18 3L3 163c-4 4-4 11 0 16l14 12c4 4 10 4 14 1L239 34c7-5 17 0 17 9v-1c0-6-4-12-9-14z"/><g filter="url(#filter0_d)"><path fill="#007ACC" d="M247 228l-53 26c-6 3-13 1-18-3L3 93c-4-4-4-11 0-16l14-12c4-4 10-4 14-1l208 158c7 5 17 0 17-9v1c0 6-4 12-9 14z"/></g><g filter="url(#filter1_d)"><path fill="#1F9CF0" d="M194 254c-6 3-13 1-18-3 6 6 16 1 16-7V12c0-8-10-13-16-7 5-4 12-6 18-3l53 26c5 2 9 8 9 14v172c0 6-4 12-9 14l-53 26z"/></g><path fill="url(#paint0_linear)" fill-rule="evenodd" d="M181 254c4 2 9 2 13 0l53-26c5-2 9-8 9-14V42c0-6-4-12-9-14L194 2a16 16 0 00-18 3L75 97 31 64c-4-3-10-3-14 1L3 77c-4 5-4 12 0 16l38 35-38 35c-4 4-4 11 0 16l14 12c4 4 10 4 14 1l44-33 101 92 5 3zm11-184l-77 58 77 58V70z" clip-rule="evenodd" opacity=".3"/></g><defs><filter id="filter0_d" width="298.8" height="236.1" x="-22" y="41" color-interpolation-filters="sRGB" filterUnits="userSpaceOnUse"><feFlood flood-opacity="0" result="BackgroundImageFix"/><feColorMatrix in="SourceAlpha" values="0 0 0 0 0 0 0 0 0 0 0 0 0 0 0 0 0 0 127 0"/><feOffset/><feGaussianBlur stdDeviation="10.7"/><feColorMatrix values="0 0 0 0 0 0 0 0 0 0 0 0 0 0 0 0 0 0 0.25 0"/><feBlend in2="BackgroundImageFix" mode="overlay" result="effect1_dropShadow"/><feBlend in="SourceGraphic" in2="effect1_dropShadow" result="shape"/></filter><filter id="filter1_d" width="122.7" height="297.3" x="155" y="-21" color-interpolation-filters="sRGB" filterUnits="userSpaceOnUse"><feFlood flood-opacity="0" result="BackgroundImageFix"/><feColorMatrix in="SourceAlpha" values="0 0 0 0 0 0 0 0 0 0 0 0 0 0 0 0 0 0 127 0"/><feOffset/><feGaussianBlur stdDeviation="10.7"/><feColorMatrix values="0 0 0 0 0 0 0 0 0 0 0 0 0 0 0 0 0 0 0.25 0"/><feBlend in2="BackgroundImageFix" mode="overlay" result="effect1_dropShadow"/><feBlend in="SourceGraphic" in2="effect1_dropShadow" result="shape"/></filter><linearGradient id="paint0_linear" x1="127.8" x2="127.8" y1=".7" y2="255.3" gradientUnits="userSpaceOnUse"><stop stop-color="#fff"/><stop offset="1" stop-color="#fff" stop-opacity="0"/></linearGradient></defs></svg>