<svg xmlns="http://www.w3.org/2000/svg" width="30" height="30" fill="#fff" viewBox="0 0 50 50"><path d="M 18.585938 3.0683594 C 17.719887 3.0782694 16.914972 3.1655115 16.183594 3.3007812 C 13.258082 3.8418604 11.414063 5.1640625 11.414062 5.1640625 A 1.0001 1.0001 0 0 0 11.027344 5.7460938 L 7.7890625 19.517578 A 1.0001 1.0001 0 0 0 9.0019531 20.716797 C 12.426646 19.867786 17.569269 19.484368 22.888672 22.457031 A 1.0001 1.0001 0 0 0 24.345703 21.832031 L 28.142578 6.9472656 A 1.0001 1.0001 0 0 0 27.710938 5.8574219 C 24.333213 3.7036362 21.184087 3.0386217 18.585938 3.0683594 z M 18.609375 5.0585938 C 19.353893 5.0470055 20.153383 5.1030417 21.001953 5.2539062 C 22.518516 5.5235312 24.212499 6.1712781 26.009766 7.2207031 L 22.693359 20.220703 C 17.97093 17.960658 13.487307 17.894892 10.082031 18.503906 L 12.875 6.6230469 C 13.215514 6.3980947 14.382826 5.66587 16.546875 5.265625 C 17.175309 5.1493948 17.864857 5.070182 18.609375 5.0585938 z M 30.640625 8.1953125 A 1.0001 1.0001 0 0 0 29.695312 8.9472656 L 25.921875 23.740234 A 1.0001 1.0001 0 0 0 26.306641 24.798828 C 32.960976 29.579982 39.782833 27.893358 42.621094 26.810547 A 1.0001 1.0001 0 0 0 43.238281 26.105469 L 46.972656 10.228516 A 1.0001 1.0001 0 0 0 45.412109 9.1914062 C 45.412109 9.1914062 43.945911 10.263169 41.404297 10.728516 C 38.862683 11.193862 35.338281 11.041385 31.210938 8.3574219 A 1.0001 1.0001 0 0 0 30.640625 8.1953125 z M 31.322266 10.664062 C 35.381536 12.918978 39.073371 13.187883 41.763672 12.695312 C 42.935234 12.480811 43.772076 12.120006 44.552734 11.787109 L 41.423828 25.083984 C 38.820262 26.000616 33.515976 27.046541 28.054688 23.466797 L 31.322266 10.664062 z M 13.716797 22.121094 C 10.974136 22.139814 8.6984152 22.803678 7.3457031 23.320312 A 1.0001 1.0001 0 0 0 6.7285156 24.025391 L 3.0273438 39.771484 A 1.0001 1.0001 0 0 0 3 40 L 3 40.044922 A 1.0001 1.0001 0 0 0 4.5859375 40.855469 C 4.5859375 40.855469 5.963707 39.852523 8.3730469 39.371094 C 10.782387 38.889665 14.129815 38.946716 18.066406 41.267578 A 1.0001 1.0001 0 0 0 19.544922 40.652344 L 23.3125 25.880859 A 1.0001 1.0001 0 0 0 22.884766 24.791016 C 19.669324 22.72799 16.459458 22.102377 13.716797 22.121094 z M 13.679688 24.113281 C 15.920481 24.091511 18.528415 24.668481 21.169922 26.191406 L 17.904297 38.990234 C 14.025134 37.055768 10.524791 36.901755 7.9804688 37.410156 C 6.9102597 37.624003 6.1620342 37.956461 5.4355469 38.265625 L 8.5449219 25.042969 C 9.7609215 24.615415 11.507563 24.13438 13.679688 24.113281 z M 25.798828 27.082031 A 1.0001 1.0001 0 0 0 24.878906 27.833984 L 21.105469 42.617188 A 1.0001 1.0001 0 0 0 21.501953 43.683594 C 26.182861 46.953695 30.481955 47.315714 33.560547 46.798828 C 36.639139 46.281942 38.585937 44.878906 38.585938 44.878906 A 1.0001 1.0001 0 0 0 39 44.115234 L 39 44.113281 L 42.177734 30.613281 A 1.0001 1.0001 0 0 0 40.962891 29.414062 C 39.580629 29.757002 37.917001 30.021484 36.078125 30.021484 C 33.153599 30.021484 29.793174 29.339957 26.371094 27.230469 A 1.0001 1.0001 0 0 0 25.798828 27.082031 z M 26.529297 29.455078 C 29.874794 31.230582 33.189564 32.021484 36.078125 32.021484 C 37.525341 32.021484 38.703486 31.767888 39.902344 31.546875 L 37.107422 43.431641 C 36.745621 43.670829 35.506929 44.443961 33.230469 44.826172 C 30.710491 45.249268 27.248286 44.978418 23.232422 42.376953 L 26.529297 29.455078 z"/></svg>