<svg xmlns="http://www.w3.org/2000/svg" preserveAspectRatio="xMidYMid" viewBox="0 0 100 100"><rect width="10" height="10" x="45" y="25" fill="#fff" rx="5" ry="5"><animate attributeName="opacity" begin="-0.5833333333333334s" dur="0.6666666666666666s" keyTimes="0;1" repeatCount="indefinite" values="1;0"/></rect><rect width="10" height="10" x="45" y="25" fill="#fff" rx="5" ry="5" transform="rotate(45 50 50)"><animate attributeName="opacity" begin="-0.5s" dur="0.6666666666666666s" keyTimes="0;1" repeatCount="indefinite" values="1;0"/></rect><rect width="10" height="10" x="45" y="25" fill="#fff" rx="5" ry="5" transform="rotate(90 50 50)"><animate attributeName="opacity" begin="-0.4166666666666667s" dur="0.6666666666666666s" keyTimes="0;1" repeatCount="indefinite" values="1;0"/></rect><rect width="10" height="10" x="45" y="25" fill="#fff" rx="5" ry="5" transform="rotate(135 50 50)"><animate attributeName="opacity" begin="-0.3333333333333333s" dur="0.6666666666666666s" keyTimes="0;1" repeatCount="indefinite" values="1;0"/></rect><rect width="10" height="10" x="45" y="25" fill="#fff" rx="5" ry="5" transform="rotate(180 50 50)"><animate attributeName="opacity" begin="-0.25s" dur="0.6666666666666666s" keyTimes="0;1" repeatCount="indefinite" values="1;0"/></rect><rect width="10" height="10" x="45" y="25" fill="#fff" rx="5" ry="5" transform="rotate(225 50 50)"><animate attributeName="opacity" begin="-0.16666666666666666s" dur="0.6666666666666666s" keyTimes="0;1" repeatCount="indefinite" values="1;0"/></rect><rect width="10" height="10" x="45" y="25" fill="#fff" rx="5" ry="5" transform="rotate(270 50 50)"><animate attributeName="opacity" begin="-0.08333333333333333s" dur="0.6666666666666666s" keyTimes="0;1" repeatCount="indefinite" values="1;0"/></rect><rect width="10" height="10" x="45" y="25" fill="#fff" rx="5" ry="5" transform="rotate(315 50 50)"><animate attributeName="opacity" begin="0s" dur="0.6666666666666666s" keyTimes="0;1" repeatCount="indefinite" values="1;0"/></rect></svg>